SplineFontDB: 3.2
FontName: Gontserrat-SemiBold
FullName: Gontserrat Semi Bold
FamilyName: Gontserrat
Weight: Demi
Copyright: Gontserrat is a derivative work of Montserrat under the Open Font License, version 1.1. Copyright 2020 Gabriel Classon (gabeclasson.com). Montserrat copyright 2011 The Montserrat Project Authors (https://github.com/JulietaUla/Montserrat). 
Version: 7.222
ItalicAngle: 0
UnderlinePosition: -100
UnderlineWidth: 50
Ascent: 800
Descent: 200
InvalidEm: 0
sfntRevision: 0x00010000
LayerCount: 2
Layer: 0 1 "Back" 1
Layer: 1 1 "Fore" 0
XUID: [1021 930 -1503615855 32177]
StyleMap: 0x0040
FSType: 0
OS2Version: 4
OS2_WeightWidthSlopeOnly: 0
OS2_UseTypoMetrics: 1
CreationTime: 1485852831
ModificationTime: 1642923362
PfmFamily: 81
TTFWeight: 600
TTFWidth: 5
LineGap: 0
VLineGap: 0
Panose: 0 0 7 0 0 0 0 0 0 0
OS2TypoAscent: 968
OS2TypoAOffset: 0
OS2TypoDescent: -251
OS2TypoDOffset: 0
OS2TypoLinegap: 0
OS2WinAscent: 1177
OS2WinAOffset: 0
OS2WinDescent: 496
OS2WinDOffset: 0
HheadAscent: 968
HheadAOffset: 0
HheadDescent: -251
HheadDOffset: 0
OS2SubXSize: 650
OS2SubYSize: 600
OS2SubXOff: 0
OS2SubYOff: 75
OS2SupXSize: 650
OS2SupYSize: 600
OS2SupXOff: 0
OS2SupYOff: 350
OS2StrikeYSize: 50
OS2StrikeYPos: 322
OS2CapHeight: 700
OS2XHeight: 538
OS2Vendor: 'ULA '
OS2CodePages: 20000193.00000000
OS2UnicodeRanges: 20000007.00000001.00000000.00000000
Lookup: 1 0 0 "'rtla' Right to Left Alternates in Latin lookup 0" { "'rtla' Right to Left Alternates in Latin lookup 0 subtable"  } ['rtla' ('DFLT' <'dflt' > 'latn' <'dflt' > ) ]
Lookup: 1 0 0 "<10,2> Inferiors lookup 1" { "<10,2> Inferiors lookup 1 subtable" ("inferior") } [<10,2> ('DFLT' <'dflt' > ) 'subs' ('DFLT' <'dflt' > ) ]
Lookup: 1 0 0 "<10,1> Superiors lookup 2" { "<10,1> Superiors lookup 2 subtable" ("superior") } [<10,1> ('DFLT' <'dflt' > ) 'sups' ('DFLT' <'dflt' > ) ]

StartChar: .notdef
Encoding: 65536 -1 0
Width: 587
Flags: W
LayerCount: 2
Fore
SplineSet
40 0 m 1,0,-1
 40 700 l 1,1,-1
 547 700 l 1,2,-1
 547 0 l 1,3,-1
 40 0 l 1,0,-1
120 70 m 1,4,-1
 467 70 l 1,5,-1
 467 630 l 1,6,-1
 120 630 l 1,7,-1
 120 70 l 1,4,-1
EndSplineSet
EndChar

StartChar: exclam
Encoding: 33 33 5
Width: 240
Flags: W
LayerCount: 2
Fore
SplineSet
56 695 m 1,0,-1
 203 695 l 1,1,-1
 203 518 l 1,2,-1
 176 236 l 1,3,-1
 83 236 l 1,4,-1
 56 518 l 1,5,-1
 56 695 l 1,0,-1
183.5 128 m 128,-1,7
 205 106 205 106 205 71 c 256,8,9
 205 36 205 36 183.5 13.5 c 128,-1,10
 162 -9 162 -9 128 -9 c 0,11,12
 95 -9 95 -9 73 14 c 128,-1,13
 51 37 51 37 51 71 c 0,14,15
 51 106 51 106 73 128 c 128,-1,16
 95 150 95 150 128 150 c 0,17,6
 162 150 162 150 183.5 128 c 128,-1,7
EndSplineSet
Substitution2: "<3,3> Small Caps in Latin lookup 11 subtable" exclam.sc
EndChar

StartChar: numbersign
Encoding: 35 35 7
Width: 732
Flags: W
LayerCount: 2
Fore
SplineSet
701 422 m 1,0,-1
 562 422 l 1,1,-1
 544 271 l 1,2,-1
 679 271 l 1,3,-1
 667 160 l 1,4,-1
 530 160 l 1,5,-1
 510 0 l 1,6,-1
 399 0 l 1,7,-1
 419 160 l 1,8,-1
 267 160 l 1,9,-1
 247 0 l 1,10,-1
 135 0 l 1,11,-1
 155 160 l 1,12,-1
 19 160 l 1,13,-1
 31 271 l 1,14,-1
 169 271 l 1,15,-1
 187 422 l 1,16,-1
 52 422 l 1,17,-1
 64 533 l 1,18,-1
 201 533 l 1,19,-1
 222 700 l 1,20,-1
 333 700 l 1,21,-1
 312 533 l 1,22,-1
 464 533 l 1,23,-1
 485 700 l 1,24,-1
 597 700 l 1,25,-1
 576 533 l 1,26,-1
 712 533 l 1,27,-1
 701 422 l 1,0,-1
432 271 m 1,28,-1
 451 422 l 1,29,-1
 299 422 l 1,30,-1
 280 271 l 1,31,-1
 432 271 l 1,28,-1
EndSplineSet
EndChar

StartChar: dollar
Encoding: 36 36 8
Width: 637
Flags: W
LayerCount: 2
Fore
SplineSet
265.5 461.5 m 128,-1,1
 300 442 300 442 372 421 c 256,2,3
 444 400 444 400 490.5 379 c 128,-1,4
 537 358 537 358 570 316 c 128,-1,5
 603 274 603 274 603 205 c 0,6,7
 603 117 603 117 543.5 62 c 128,-1,8
 484 7 484 7 386 -5 c 1,9,-1
 386 -150 l 1,10,-1
 271 -150 l 1,11,-1
 271 -5 l 1,12,13
 200 4 200 4 135 32 c 128,-1,14
 70 60 70 60 20 103 c 1,15,-1
 83 232 l 1,16,17
 136 184 136 184 205 155 c 128,-1,18
 274 126 274 126 331 126 c 0,19,20
 380 126 380 126 407.5 144 c 128,-1,21
 435 162 435 162 435 196 c 0,22,23
 435 223 435 223 416.5 240.5 c 128,-1,24
 398 258 398 258 369.5 269 c 128,-1,25
 341 280 341 280 291 294 c 0,26,27
 219 314 219 314 173.5 334 c 128,-1,28
 128 354 128 354 95 395 c 128,-1,29
 62 436 62 436 62 504 c 0,30,31
 62 586 62 586 118.5 640.5 c 128,-1,32
 175 695 175 695 271 709 c 1,33,-1
 271 845 l 1,34,-1
 386 845 l 1,35,-1
 386 710 l 1,36,37
 446 703 446 703 501 684 c 128,-1,38
 556 665 556 665 599 636 c 1,39,-1
 538 505 l 1,40,41
 484 538 484 538 423.5 557.5 c 128,-1,42
 363 577 363 577 320 577 c 0,43,44
 279 577 279 577 255 562 c 128,-1,45
 231 547 231 547 231 518 c 0,46,0
 231 481 231 481 265.5 461.5 c 128,-1,1
EndSplineSet
EndChar

StartChar: ampersand
Encoding: 38 38 10
Width: 678
Flags: W
LayerCount: 2
Fore
SplineSet
593 -27 m 1,0,-1
 491 73 l 1,1,2
 399 -7 399 -7 288 -7 c 0,3,4
 222 -7 222 -7 169 19 c 128,-1,5
 116 45 116 45 85.5 91 c 128,-1,6
 55 137 55 137 55 195 c 0,7,8
 55 261 55 261 92.5 304.5 c 128,-1,9
 130 348 130 348 198 385 c 1,10,11
 166 429 166 429 151.5 466.5 c 128,-1,12
 137 504 137 504 137 542 c 0,13,14
 137 616 137 616 190 661.5 c 128,-1,15
 243 707 243 707 331 707 c 0,16,17
 387 707 387 707 431 687.5 c 128,-1,18
 475 668 475 668 499.5 633 c 128,-1,19
 524 598 524 598 524 553 c 0,20,21
 524 488 524 488 480.5 445 c 128,-1,22
 437 402 437 402 358 362 c 1,23,24
 409 304 409 304 479 236 c 1,25,26
 512 289 512 289 532 353 c 1,27,-1
 630 280 l 1,28,29
 605 215 605 215 564 154 c 1,30,31
 593 125 593 125 671 51 c 1,32,-1
 593 -27 l 1,0,-1
299 436 m 1,34,35
 349 463 349 463 376 489.5 c 128,-1,36
 403 516 403 516 403 552 c 0,37,38
 403 581 403 581 383.5 598.5 c 128,-1,39
 364 616 364 616 333 616 c 0,40,41
 299 616 299 616 278.5 595.5 c 128,-1,42
 258 575 258 575 258 542 c 0,43,33
 258 496 258 496 299 436 c 1,34,35
410 152 m 1,45,46
 319 243 319 243 259 309 c 1,47,48
 222 286 222 286 202 261.5 c 128,-1,49
 182 237 182 237 182 206 c 0,50,51
 182 161 182 161 214 133 c 128,-1,52
 246 105 246 105 294 105 c 0,53,44
 354 105 354 105 410 152 c 1,45,46
EndSplineSet
Substitution2: "<3,3> Small Caps in Latin lookup 11 subtable" ampersand.sc
EndChar

StartChar: quotesingle
Encoding: 39 39 11
Width: 236
Flags: W
LayerCount: 2
Fore
SplineSet
60 700 m 1,0,-1
 176 700 l 1,1,-1
 176 434 l 1,2,-1
 60 434 l 1,3,-1
 60 700 l 1,0,-1
EndSplineSet
Substitution2: "<3,3> Small Caps in Latin lookup 11 subtable" quotesingle.sc
EndChar

StartChar: parenleft
Encoding: 40 40 12
Width: 332
Flags: W
LayerCount: 2
Fore
SplineSet
238 541 m 128,-1,1
 206 429 206 429 206 309 c 256,2,3
 206 189 206 189 238 77 c 128,-1,4
 270 -35 270 -35 326 -124 c 1,5,-1
 188 -124 l 1,6,7
 127 -37 127 -37 94.5 74.5 c 128,-1,8
 62 186 62 186 62 309 c 256,9,10
 62 432 62 432 94.5 543.5 c 128,-1,11
 127 655 127 655 188 742 c 1,12,-1
 326 742 l 1,13,0
 270 653 270 653 238 541 c 128,-1,1
EndSplineSet
Substitution2: "'rtla' Right to Left Alternates in Latin lookup 0 subtable" parenright
EndChar

StartChar: parenright
Encoding: 41 41 13
Width: 332
Flags: W
LayerCount: 2
Fore
SplineSet
144 742 m 1,0,1
 205 655 205 655 237.5 543.5 c 128,-1,2
 270 432 270 432 270 309 c 256,3,4
 270 186 270 186 237.5 74.5 c 128,-1,5
 205 -37 205 -37 144 -124 c 1,6,-1
 6 -124 l 1,7,8
 62 -35 62 -35 94 77 c 128,-1,9
 126 189 126 189 126 309 c 256,10,11
 126 429 126 429 94 541 c 128,-1,12
 62 653 62 653 6 742 c 1,13,-1
 144 742 l 1,0,1
EndSplineSet
Substitution2: "'rtla' Right to Left Alternates in Latin lookup 0 subtable" parenleft
EndChar

StartChar: asterisk
Encoding: 42 42 14
Width: 368
Flags: W
LayerCount: 2
Fore
SplineSet
145 720 m 1,0,-1
 223 720 l 1,1,-1
 222 622 l 1,2,-1
 306 672 l 1,3,-1
 345 602 l 1,4,-1
 258 555 l 1,5,-1
 345 507 l 1,6,-1
 306 437 l 1,7,-1
 221 487 l 1,8,-1
 223 390 l 1,9,-1
 145 390 l 1,10,-1
 147 488 l 1,11,-1
 62 438 l 1,12,-1
 23 507 l 1,13,-1
 109 555 l 1,14,-1
 23 602 l 1,15,-1
 62 673 l 1,16,-1
 147 622 l 1,17,-1
 145 720 l 1,0,-1
EndSplineSet
EndChar

StartChar: plus
Encoding: 43 43 15
Width: 506
Flags: W
LayerCount: 2
Fore
SplineSet
473 377 m 1,0,-1
 473 275 l 1,1,-1
 302 275 l 1,2,-1
 302 106 l 1,3,-1
 204 106 l 1,4,-1
 204 275 l 1,5,-1
 33 275 l 1,6,-1
 33 377 l 1,7,-1
 204 377 l 1,8,-1
 204 547 l 1,9,-1
 302 547 l 1,10,-1
 302 377 l 1,11,-1
 473 377 l 1,0,-1
EndSplineSet
EndChar

StartChar: comma
Encoding: 44 44 16
Width: 232
Flags: W
LayerCount: 2
Fore
SplineSet
171 128 m 128,-1,1
 193 107 193 107 193 71 c 0,2,3
 193 55 193 55 188 41.5 c 128,-1,4
 183 28 183 28 173 9 c 2,5,-1
 102 -118 l 1,6,-1
 27 -118 l 1,7,-1
 74 8 l 1,8,9
 41 29 41 29 41 71 c 0,10,11
 41 105 41 105 63 127 c 128,-1,12
 85 149 85 149 118 149 c 0,13,0
 149 149 149 149 171 128 c 128,-1,1
EndSplineSet
EndChar

StartChar: hyphen
Encoding: 45 45 17
Width: 372
Flags: W
LayerCount: 2
Fore
SplineSet
57 357 m 1,0,-1
 315 357 l 1,1,-1
 315 255 l 1,2,-1
 57 255 l 1,3,-1
 57 357 l 1,0,-1
EndSplineSet
EndChar

StartChar: period
Encoding: 46 46 18
Width: 235
Flags: W
LayerCount: 2
Fore
SplineSet
172.5 128 m 128,-1,1
 194 106 194 106 194 71 c 256,2,3
 194 36 194 36 172.5 13.5 c 128,-1,4
 151 -9 151 -9 117 -9 c 0,5,6
 84 -9 84 -9 62 14 c 128,-1,7
 40 37 40 37 40 71 c 0,8,9
 40 106 40 106 62 128 c 128,-1,10
 84 150 84 150 117 150 c 0,11,0
 151 150 151 150 172.5 128 c 128,-1,1
EndSplineSet
Substitution2: "<3,3> Small Caps in Latin lookup 11 subtable" period.sc
EndChar

StartChar: slash
Encoding: 47 47 19
Width: 346
Flags: W
LayerCount: 2
Fore
SplineSet
290 812 m 1,0,-1
 420 812 l 1,1,-1
 98 -112 l 1,2,-1
 -31 -112 l 1,3,-1
 290 812 l 1,0,-1
EndSplineSet
Substitution2: "<11,2> Diagonal Fractions lookup 3 subtable" fraction
EndChar

StartChar: zero
Encoding: 48 48 20
Width: 705
Flags: W
LayerCount: 2
Fore
SplineSet
580 614 m 128,-1,1
 659 522 659 522 659 350 c 0,2,3
 659 179 659 179 580 86.5 c 128,-1,4
 501 -6 501 -6 354 -6 c 0,5,6
 206 -6 206 -6 126.5 86.5 c 128,-1,7
 47 179 47 179 47 350 c 0,8,9
 47 522 47 522 126.5 614 c 128,-1,10
 206 706 206 706 354 706 c 0,11,0
 501 706 501 706 580 614 c 128,-1,1
244 529 m 128,-1,13
 209 473 209 473 209 350 c 0,14,15
 209 228 209 228 244 171.5 c 128,-1,16
 279 115 279 115 354 115 c 0,17,18
 427 115 427 115 462 171.5 c 128,-1,19
 497 228 497 228 497 350 c 0,20,21
 497 473 497 473 462 529 c 128,-1,22
 427 585 427 585 354 585 c 0,23,12
 279 585 279 585 244 529 c 128,-1,13
EndSplineSet
Substitution2: "<21,0> Lower Case Numbers lookup 10 subtable" zero.osf
Substitution2: "<6,0> Monospaced Numbers lookup 9 subtable" zero.tf
Substitution2: "<11,2> Diagonal Fractions lookup 4 subtable" zero.numr
Substitution2: "<10,1> Superiors lookup 2 subtable" uni2070
Substitution2: "<10,2> Inferiors lookup 1 subtable" uni2080
EndChar

StartChar: one
Encoding: 49 49 21
Width: 393
Flags: W
LayerCount: 2
Fore
SplineSet
-7 700 m 1,0,-1
 292 700 l 1,1,-1
 292 0 l 1,2,-1
 134 0 l 1,3,-1
 134 566 l 1,4,-1
 -7 566 l 1,5,-1
 -7 700 l 1,0,-1
EndSplineSet
Substitution2: "<21,0> Lower Case Numbers lookup 10 subtable" one.osf
Substitution2: "<6,0> Monospaced Numbers lookup 9 subtable" one.tf
Substitution2: "<11,2> Diagonal Fractions lookup 4 subtable" one.numr
Substitution2: "<10,1> Superiors lookup 2 subtable" uni00B9
Substitution2: "<10,2> Inferiors lookup 1 subtable" uni2081
EndChar

StartChar: two
Encoding: 50 50 22
Width: 597
Flags: W
LayerCount: 2
Fore
SplineSet
564 132 m 1,0,-1
 564 0 l 1,1,-1
 38 0 l 1,2,-1
 38 109 l 1,3,-1
 297 376 l 2,4,5
 332 411 332 411 352.5 444.5 c 128,-1,6
 373 478 373 478 373 503 c 0,7,8
 373 536 373 536 347.5 554.5 c 128,-1,9
 322 573 322 573 277 573 c 256,10,11
 232 573 232 573 181 550 c 128,-1,12
 130 527 130 527 82 486 c 1,13,-1
 20 604 l 1,14,15
 158 707 158 707 300 707 c 0,16,17
 370 707 370 707 424 684.5 c 128,-1,18
 478 662 478 662 508 621.5 c 128,-1,19
 538 581 538 581 538 527 c 0,20,21
 538 474 538 474 503 417 c 128,-1,22
 468 360 468 360 404 294 c 2,23,-1
 243 132 l 1,24,-1
 564 132 l 1,0,-1
EndSplineSet
Substitution2: "<21,0> Lower Case Numbers lookup 10 subtable" two.osf
Substitution2: "<6,0> Monospaced Numbers lookup 9 subtable" two.tf
Substitution2: "<11,2> Diagonal Fractions lookup 4 subtable" two.numr
Substitution2: "<10,1> Superiors lookup 2 subtable" uni00B2
Substitution2: "<10,2> Inferiors lookup 1 subtable" uni2082
EndChar

StartChar: three
Encoding: 51 51 23
Width: 598
Flags: W
LayerCount: 2
Fore
SplineSet
504.5 349 m 128,-1,1
 559 299 559 299 559 219 c 0,2,3
 559 153 559 153 524.5 101.5 c 128,-1,4
 490 50 490 50 426.5 21.5 c 128,-1,5
 363 -7 363 -7 278 -7 c 0,6,7
 205 -7 205 -7 132.5 15.5 c 128,-1,8
 60 38 60 38 10 75 c 1,9,-1
 71 192 l 1,10,11
 114 156 114 156 164 137 c 128,-1,12
 214 118 214 118 266 118 c 0,13,14
 332 118 332 118 368 144.5 c 128,-1,15
 404 171 404 171 404 218 c 256,16,17
 404 265 404 265 368 289.5 c 128,-1,18
 332 314 332 314 265 314 c 2,19,-1
 152 314 l 1,20,-1
 152 404 l 1,21,-1
 327 573 l 1,22,-1
 46 573 l 1,23,-1
 45 701 l 1,24,-1
 524 701 l 1,25,-1
 524 606 l 1,26,-1
 322 416 l 1,27,-1
 358 411 l 2,28,0
 450 399 450 399 504.5 349 c 128,-1,1
EndSplineSet
Substitution2: "<21,0> Lower Case Numbers lookup 10 subtable" three.osf
Substitution2: "<6,0> Monospaced Numbers lookup 9 subtable" three.tf
Substitution2: "<11,2> Diagonal Fractions lookup 4 subtable" three.numr
Substitution2: "<10,1> Superiors lookup 2 subtable" uni00B3
Substitution2: "<10,2> Inferiors lookup 1 subtable" uni2083
EndChar

StartChar: four
Encoding: 52 52 24
Width: 603
Flags: W
LayerCount: 2
Fore
SplineSet
571 285 m 1,0,-1
 571 158 l 1,1,-1
 475 158 l 1,2,-1
 475 0 l 1,3,-1
 330 0 l 1,4,-1
 330 158 l 1,5,-1
 4 158 l 1,6,-1
 4 269 l 1,7,-1
 218 700 l 1,8,-1
 368 700 l 1,9,-1
 167 285 l 1,10,-1
 330 285 l 1,11,-1
 330 440 l 1,12,-1
 475 440 l 1,13,-1
 475 285 l 1,14,-1
 571 285 l 1,0,-1
EndSplineSet
Substitution2: "<21,0> Lower Case Numbers lookup 10 subtable" four.osf
Substitution2: "<6,0> Monospaced Numbers lookup 9 subtable" four.tf
Substitution2: "<11,2> Diagonal Fractions lookup 4 subtable" four.numr
Substitution2: "<10,1> Superiors lookup 2 subtable" uni2074
Substitution2: "<10,2> Inferiors lookup 1 subtable" uni2084
EndChar

StartChar: five
Encoding: 53 53 25
Width: 623
Flags: W
LayerCount: 2
Fore
SplineSet
459 418 m 128,-1,1
 520 391 520 391 553 343 c 128,-1,2
 586 295 586 295 586 233 c 0,3,4
 586 161 586 161 551.5 106.5 c 128,-1,5
 517 52 517 52 453.5 22.5 c 128,-1,6
 390 -7 390 -7 306 -7 c 0,7,8
 238 -7 238 -7 164.5 16.5 c 128,-1,9
 91 40 91 40 35 78 c 1,10,-1
 96 196 l 1,11,12
 140 160 140 160 190 140 c 128,-1,13
 240 120 240 120 289 120 c 0,14,15
 348 120 348 120 382 147.5 c 128,-1,16
 416 175 416 175 416 222 c 0,17,18
 416 268 416 268 382.5 292.5 c 128,-1,19
 349 317 349 317 283 317 c 0,20,21
 246 317 246 317 185.5 315.5 c 128,-1,22
 125 314 125 314 94 311 c 1,23,-1
 94 700 l 1,24,-1
 554 700 l 1,25,-1
 554 568 l 1,26,-1
 240 568 l 1,27,-1
 240 445 l 1,28,-1
 318 445 l 2,29,0
 398 445 398 445 459 418 c 128,-1,1
EndSplineSet
Substitution2: "<21,0> Lower Case Numbers lookup 10 subtable" five.osf
Substitution2: "<6,0> Monospaced Numbers lookup 9 subtable" five.tf
Substitution2: "<11,2> Diagonal Fractions lookup 4 subtable" five.numr
Substitution2: "<10,1> Superiors lookup 2 subtable" uni2075
Substitution2: "<10,2> Inferiors lookup 1 subtable" uni2085
EndChar

StartChar: six
Encoding: 54 54 26
Width: 632
Flags: W
LayerCount: 2
Fore
SplineSet
437.5 571.5 m 128,-1,1
 399 583 399 583 359 583 c 0,2,3
 271 583 271 583 227 527.5 c 128,-1,4
 183 472 183 472 185 374 c 1,5,6
 212 415 212 415 256 436.5 c 128,-1,7
 300 458 300 458 359 458 c 0,8,9
 462 458 462 458 522.5 396.5 c 128,-1,10
 583 335 583 335 583 232 c 0,11,12
 583 159 583 159 551.5 105 c 128,-1,13
 520 51 520 51 463 22 c 128,-1,14
 406 -7 406 -7 330 -7 c 0,15,16
 239 -7 239 -7 173 34.5 c 128,-1,17
 107 76 107 76 72 153.5 c 128,-1,18
 37 231 37 231 37 338 c 0,19,20
 37 449 37 449 75.5 532.5 c 128,-1,21
 114 616 114 616 184.5 661.5 c 128,-1,22
 255 707 255 707 349 707 c 0,23,24
 405 707 405 707 464.5 692 c 128,-1,25
 524 677 524 677 567 651 c 1,26,-1
 507 539 l 1,27,0
 476 560 476 560 437.5 571.5 c 128,-1,1
237 309.5 m 128,-1,29
 204 278 204 278 205 230 c 0,30,31
 204 185 204 185 234.5 153.5 c 128,-1,32
 265 122 265 122 323 122 c 0,33,34
 377 122 377 122 408.5 151 c 128,-1,35
 440 180 440 180 440 233 c 0,36,37
 440 283 440 283 410 312 c 128,-1,38
 380 341 380 341 327 341 c 0,39,28
 270 341 270 341 237 309.5 c 128,-1,29
EndSplineSet
Substitution2: "<21,0> Lower Case Numbers lookup 10 subtable" six.osf
Substitution2: "<6,0> Monospaced Numbers lookup 9 subtable" six.tf
Substitution2: "<11,2> Diagonal Fractions lookup 4 subtable" six.numr
Substitution2: "<10,1> Superiors lookup 2 subtable" uni2076
Substitution2: "<10,2> Inferiors lookup 1 subtable" uni2086
EndChar

StartChar: seven
Encoding: 55 55 27
Width: 582
Flags: W
LayerCount: 2
Fore
SplineSet
11 700 m 1,0,-1
 560 700 l 1,1,-1
 560 587 l 1,2,-1
 284 0 l 1,3,-1
 117 0 l 1,4,-1
 383 568 l 1,5,-1
 152 568 l 1,6,-1
 151 470 l 1,7,-1
 11 470 l 1,8,-1
 11 700 l 1,0,-1
EndSplineSet
Substitution2: "<21,0> Lower Case Numbers lookup 10 subtable" seven.osf
Substitution2: "<6,0> Monospaced Numbers lookup 9 subtable" seven.tf
Substitution2: "<11,2> Diagonal Fractions lookup 4 subtable" seven.numr
Substitution2: "<10,1> Superiors lookup 2 subtable" uni2077
Substitution2: "<10,2> Inferiors lookup 1 subtable" uni2087
EndChar

StartChar: eight
Encoding: 56 56 28
Width: 632
Flags: W
LayerCount: 2
Fore
SplineSet
485 656.5 m 128,-1,1
 550 606 550 606 550 520 c 0,2,3
 550 474 550 474 525.5 435.5 c 128,-1,4
 501 397 501 397 459 374 c 1,5,6
 518 351 518 351 552 304 c 128,-1,7
 586 257 586 257 586 197 c 0,8,9
 586 135 586 135 552 89 c 128,-1,10
 518 43 518 43 455.5 18 c 128,-1,11
 393 -7 393 -7 309 -7 c 0,12,13
 226 -7 226 -7 163.5 17.5 c 128,-1,14
 101 42 101 42 67 87.5 c 128,-1,15
 33 133 33 133 33 194 c 0,16,17
 33 254 33 254 69 302.5 c 128,-1,18
 105 351 105 351 167 374 c 1,19,20
 121 399 121 399 94.5 439 c 128,-1,21
 68 479 68 479 68 526 c 0,22,23
 68 609 68 609 133 658 c 128,-1,24
 198 707 198 707 308 707 c 0,25,0
 420 707 420 707 485 656.5 c 128,-1,1
228.5 575.5 m 128,-1,27
 200 553 200 553 200 512 c 0,28,29
 200 472 200 472 228.5 449.5 c 128,-1,30
 257 427 257 427 309 427 c 256,31,32
 361 427 361 427 389.5 449 c 128,-1,33
 418 471 418 471 418 512 c 256,34,35
 418 553 418 553 389.5 575.5 c 128,-1,36
 361 598 361 598 309 598 c 256,37,26
 257 598 257 598 228.5 575.5 c 128,-1,27
214.5 283 m 128,-1,39
 181 258 181 258 181 211 c 256,40,41
 181 164 181 164 214.5 138 c 128,-1,42
 248 112 248 112 309 112 c 256,43,44
 370 112 370 112 404 137.5 c 128,-1,45
 438 163 438 163 438 210 c 256,46,47
 438 257 438 257 404 282.5 c 128,-1,48
 370 308 370 308 309 308 c 256,49,38
 248 308 248 308 214.5 283 c 128,-1,39
EndSplineSet
Substitution2: "<21,0> Lower Case Numbers lookup 10 subtable" eight.osf
Substitution2: "<6,0> Monospaced Numbers lookup 9 subtable" eight.tf
Substitution2: "<11,2> Diagonal Fractions lookup 4 subtable" eight.numr
Substitution2: "<10,1> Superiors lookup 2 subtable" uni2078
Substitution2: "<10,2> Inferiors lookup 1 subtable" uni2088
EndChar

StartChar: nine
Encoding: 57 57 29
Width: 630
Flags: W
LayerCount: 2
Fore
SplineSet
178.5 128.5 m 128,-1,1
 217 117 217 117 257 117 c 0,2,3
 344 117 344 117 388 172.5 c 128,-1,4
 432 228 432 228 430 327 c 1,5,6
 375 242 375 242 256 242 c 0,7,8
 154 242 154 242 94 304 c 128,-1,9
 34 366 34 366 34 469 c 0,10,11
 34 541 34 541 65 595 c 128,-1,12
 96 649 96 649 153 678 c 128,-1,13
 210 707 210 707 286 707 c 0,14,15
 376 707 376 707 442 665.5 c 128,-1,16
 508 624 508 624 543 546.5 c 128,-1,17
 578 469 578 469 578 363 c 0,18,19
 578 252 578 252 540 168 c 128,-1,20
 502 84 502 84 431 38.5 c 128,-1,21
 360 -7 360 -7 266 -7 c 0,22,23
 211 -7 211 -7 152 8.5 c 128,-1,24
 93 24 93 24 50 50 c 1,25,-1
 109 162 l 1,26,0
 140 140 140 140 178.5 128.5 c 128,-1,1
208 550 m 128,-1,28
 177 521 177 521 177 468 c 0,29,30
 177 418 177 418 207 389 c 128,-1,31
 237 360 237 360 289 360 c 0,32,33
 346 360 346 360 378.5 391.5 c 128,-1,34
 411 423 411 423 411 471 c 0,35,36
 411 516 411 516 381 547.5 c 128,-1,37
 351 579 351 579 293 579 c 0,38,27
 239 579 239 579 208 550 c 128,-1,28
EndSplineSet
Substitution2: "<21,0> Lower Case Numbers lookup 10 subtable" nine.osf
Substitution2: "<6,0> Monospaced Numbers lookup 9 subtable" nine.tf
Substitution2: "<11,2> Diagonal Fractions lookup 4 subtable" nine.numr
Substitution2: "<10,1> Superiors lookup 2 subtable" uni2079
Substitution2: "<10,2> Inferiors lookup 1 subtable" uni2089
EndChar

StartChar: less
Encoding: 60 60 32
Width: 506
Flags: W
LayerCount: 2
Fore
SplineSet
473 575 m 1,0,-1
 473 461 l 1,1,-1
 134 325 l 1,2,-1
 473 188 l 1,3,-1
 473 74 l 1,4,-1
 33 260 l 1,5,-1
 33 389 l 1,6,-1
 473 575 l 1,0,-1
EndSplineSet
Substitution2: "'rtla' Right to Left Alternates in Latin lookup 0 subtable" greater
EndChar

StartChar: equal
Encoding: 61 61 33
Width: 506
Flags: W
LayerCount: 2
Fore
SplineSet
33 484 m 1,0,-1
 473 484 l 1,1,-1
 473 382 l 1,2,-1
 33 382 l 1,3,-1
 33 484 l 1,0,-1
33 270 m 1,4,-1
 473 270 l 1,5,-1
 473 168 l 1,6,-1
 33 168 l 1,7,-1
 33 270 l 1,4,-1
EndSplineSet
EndChar

StartChar: greater
Encoding: 62 62 34
Width: 506
Flags: W
LayerCount: 2
Fore
SplineSet
33 81 m 1,0,-1
 33 195 l 1,1,-1
 372 331 l 1,2,-1
 33 468 l 1,3,-1
 33 582 l 1,4,-1
 473 396 l 1,5,-1
 473 267 l 1,6,-1
 33 81 l 1,0,-1
EndSplineSet
Substitution2: "'rtla' Right to Left Alternates in Latin lookup 0 subtable" less
EndChar

StartChar: question
Encoding: 63 63 35
Width: 462
Flags: W
LayerCount: 2
Fore
SplineSet
82 643 m 128,-1,1
 141 701 141 701 243 701 c 0,2,3
 341 701 341 701 397.5 656 c 128,-1,4
 454 611 454 611 454 528 c 0,5,6
 454 490 454 490 441 461 c 128,-1,7
 428 432 428 432 409.5 412 c 128,-1,8
 391 392 391 392 360 365 c 0,9,10
 319 329 319 329 299.5 302 c 128,-1,11
 280 275 280 275 280 236 c 1,12,-1
 165 236 l 1,13,14
 165 276 165 276 176.5 305.5 c 128,-1,15
 188 335 188 335 204.5 354.5 c 128,-1,16
 221 374 221 374 248 400 c 0,17,18
 280 429 280 429 295 450.5 c 128,-1,19
 310 472 310 472 310 504 c 0,20,21
 310 539 310 539 289 556.5 c 128,-1,22
 268 574 268 574 230 574 c 0,23,24
 144 574 144 574 141 480 c 1,25,-1
 22 481 l 1,26,0
 23 585 23 585 82 643 c 128,-1,1
275.5 128 m 128,-1,28
 297 106 297 106 297 71 c 256,29,30
 297 36 297 36 275.5 13.5 c 128,-1,31
 254 -9 254 -9 220 -9 c 0,32,33
 187 -9 187 -9 165 14 c 128,-1,34
 143 37 143 37 143 71 c 0,35,36
 143 106 143 106 165 128 c 128,-1,37
 187 150 187 150 220 150 c 0,38,27
 254 150 254 150 275.5 128 c 128,-1,28
EndSplineSet
Substitution2: "<3,3> Small Caps in Latin lookup 11 subtable" question.sc
EndChar

StartChar: at
Encoding: 64 64 36
Width: 936
Flags: W
LayerCount: 2
Fore
SplineSet
729 105 m 0,1,2
 751 105 751 105 771 126.5 c 128,-1,3
 791 148 791 148 803 186 c 128,-1,4
 815 224 815 224 815 271 c 0,5,6
 815 367 815 367 773.5 445 c 128,-1,7
 732 523 732 523 654.5 568 c 128,-1,8
 577 613 577 613 474 613 c 0,9,10
 378 613 378 613 297 566.5 c 128,-1,11
 216 520 216 520 168.5 440.5 c 128,-1,12
 121 361 121 361 121 267 c 0,13,14
 121 174 121 174 166 99 c 128,-1,15
 211 24 211 24 288.5 -18.5 c 128,-1,16
 366 -61 366 -61 461 -61 c 0,17,18
 508 -61 508 -61 559.5 -45.5 c 128,-1,19
 611 -30 611 -30 651 -1 c 1,20,-1
 696 -78 l 1,21,22
 653 -110 653 -110 586.5 -130 c 128,-1,23
 520 -150 520 -150 461 -150 c 0,24,25
 339 -150 339 -150 240 -95.5 c 128,-1,26
 141 -41 141 -41 84 54 c 128,-1,27
 27 149 27 149 27 267 c 0,28,29
 27 387 27 387 86.5 486 c 128,-1,30
 146 585 146 585 248.5 642.5 c 128,-1,31
 351 700 351 700 474 700 c 256,32,33
 597 700 597 700 696 645 c 128,-1,34
 795 590 795 590 851.5 492.5 c 128,-1,35
 908 395 908 395 908 274 c 0,36,37
 908 200 908 200 883.5 144 c 128,-1,38
 859 88 859 88 816 57.5 c 128,-1,39
 773 27 773 27 717 27 c 0,40,41
 670 27 670 27 640 46.5 c 128,-1,42
 610 66 610 66 600 105 c 1,43,-1
 598 120 l 1,44,45
 570 79 570 79 529 58.5 c 128,-1,46
 488 38 488 38 440 38 c 0,47,48
 382 38 382 38 331 67.5 c 128,-1,49
 280 97 280 97 249 150 c 128,-1,50
 218 203 218 203 218 270 c 0,51,52
 218 335 218 335 244 389 c 128,-1,53
 270 443 270 443 318 474.5 c 128,-1,54
 366 506 366 506 428 506 c 0,55,56
 465 506 465 506 496 493 c 128,-1,57
 527 480 527 480 546.5 464 c 128,-1,58
 566 448 566 448 571 439 c 1,59,-1
 571 495 l 1,60,-1
 688 495 l 1,61,-1
 688 155 l 2,62,0
 688 105 688 105 729 105 c 0,1,2
375.5 361.5 m 128,-1,64
 346 326 346 326 346 275 c 0,65,66
 346 221 346 221 376 183 c 128,-1,67
 406 145 406 145 453 145 c 0,68,69
 503 145 503 145 533 182 c 128,-1,70
 563 219 563 219 563 274 c 0,71,72
 563 326 563 326 532.5 361.5 c 128,-1,73
 502 397 502 397 451 397 c 0,74,63
 405 397 405 397 375.5 361.5 c 128,-1,64
EndSplineSet
EndChar

StartChar: A
Encoding: 65 65 37
Width: 759
Flags: W
LayerCount: 2
Fore
SplineSet
594 0 m 1,0,-1
 539 136 l 1,1,-1
 215 136 l 1,2,-1
 160 0 l 1,3,-1
 -3 0 l 1,4,-1
 301 700 l 1,5,-1
 464 700 l 1,6,-1
 763 0 l 1,7,-1
 594 0 l 1,0,-1
267 263 m 1,8,-1
 488 263 l 1,9,-1
 378 535 l 1,10,-1
 267 263 l 1,8,-1
EndSplineSet
Substitution2: "<11,2> Diagonal Fractions lookup 7 nested-substitutions 0 subtable" ordfeminine
Substitution2: "<11,2> Diagonal Fractions lookup 5 nested-substitutions 0 subtable" ordfeminine
EndChar

StartChar: B
Encoding: 66 66 38
Width: 712
Flags: W
LayerCount: 2
Fore
SplineSet
582 653 m 128,-1,1
 649 606 649 606 649 525 c 0,2,3
 649 469 649 469 616.5 427.5 c 128,-1,4
 584 386 584 386 528 371 c 1,5,6
 596 358 596 358 635 310.5 c 128,-1,7
 674 263 674 263 674 194 c 0,8,9
 674 104 674 104 603 52 c 128,-1,10
 532 0 532 0 410 0 c 2,11,-1
 77 0 l 1,12,-1
 77 700 l 1,13,-1
 399 700 l 2,14,0
 515 700 515 700 582 653 c 128,-1,1
461.5 438.5 m 128,-1,16
 487 459 487 459 487 496 c 0,17,18
 487 532 487 532 461.5 552 c 128,-1,19
 436 572 436 572 391 571 c 2,20,-1
 235 571 l 1,21,-1
 235 418 l 1,22,-1
 391 418 l 2,23,15
 436 418 436 418 461.5 438.5 c 128,-1,16
479 151.5 m 128,-1,25
 511 174 511 174 511 214 c 0,26,27
 511 252 511 252 479 274 c 128,-1,28
 447 296 447 296 391 295 c 2,29,-1
 235 295 l 1,30,-1
 235 129 l 1,31,-1
 391 129 l 2,32,24
 447 129 447 129 479 151.5 c 128,-1,25
EndSplineSet
EndChar

StartChar: C
Encoding: 67 67 39
Width: 694
Flags: W
LayerCount: 2
Fore
SplineSet
499.5 548.5 m 128,-1,1
 451 573 451 573 402 573 c 0,2,3
 343 573 343 573 294 544 c 128,-1,4
 245 515 245 515 217 465 c 128,-1,5
 189 415 189 415 189 354 c 256,6,7
 189 293 189 293 217 242.5 c 128,-1,8
 245 192 245 192 294 162.5 c 128,-1,9
 343 133 343 133 402 133 c 0,10,11
 449 133 449 133 497.5 155.5 c 128,-1,12
 546 178 546 178 584 216 c 1,13,-1
 677 115 l 1,14,15
 621 57 621 57 545.5 23 c 128,-1,16
 470 -11 470 -11 394 -11 c 0,17,18
 291 -11 291 -11 207 36.5 c 128,-1,19
 123 84 123 84 75 167 c 128,-1,20
 27 250 27 250 27 352 c 0,21,22
 27 453 27 453 76 535 c 128,-1,23
 125 617 125 617 210.5 664 c 128,-1,24
 296 711 296 711 400 711 c 0,25,26
 476 711 476 711 550 679.5 c 128,-1,27
 624 648 624 648 676 594 c 1,28,-1
 584 481 l 1,29,0
 548 524 548 524 499.5 548.5 c 128,-1,1
EndSplineSet
EndChar

StartChar: D
Encoding: 68 68 40
Width: 769
Flags: W
LayerCount: 2
Fore
SplineSet
565 655.5 m 128,-1,1
 649 611 649 611 695.5 531.5 c 128,-1,2
 742 452 742 452 742 350 c 256,3,4
 742 248 742 248 694.5 168.5 c 128,-1,5
 647 89 647 89 562 44.5 c 128,-1,6
 477 0 477 0 368 0 c 2,7,-1
 77 0 l 1,8,-1
 77 700 l 1,9,-1
 374 700 l 2,10,0
 481 700 481 700 565 655.5 c 128,-1,1
482.5 160.5 m 128,-1,12
 529 188 529 188 555 237 c 128,-1,13
 581 286 581 286 581 349 c 256,14,15
 581 412 581 412 553.5 462 c 128,-1,16
 526 512 526 512 478.5 539.5 c 128,-1,17
 431 567 431 567 371 567 c 2,18,-1
 235 567 l 1,19,-1
 235 133 l 1,20,-1
 378 133 l 2,21,11
 436 133 436 133 482.5 160.5 c 128,-1,12
EndSplineSet
EndChar

StartChar: E
Encoding: 69 69 41
Width: 668
Flags: W
LayerCount: 2
Fore
SplineSet
77 700 m 1,0,-1
 610 700 l 1,1,-1
 610 569 l 1,2,-1
 235 569 l 1,3,-1
 235 417 l 1,4,-1
 572 417 l 1,5,-1
 572 286 l 1,6,-1
 235 286 l 1,7,-1
 235 131 l 1,8,-1
 621 131 l 1,9,-1
 621 0 l 1,10,-1
 77 0 l 1,11,-1
 77 700 l 1,0,-1
EndSplineSet
EndChar

StartChar: F
Encoding: 70 70 42
Width: 595
Flags: W
LayerCount: 2
Fore
SplineSet
77 700 m 1,0,-1
 580 700 l 1,1,-1
 579 569 l 1,2,-1
 235 569 l 1,3,-1
 235 397 l 1,4,-1
 551 397 l 1,5,-1
 551 265 l 1,6,-1
 235 265 l 1,7,-1
 235 0 l 1,8,-1
 77 0 l 1,9,-1
 77 700 l 1,0,-1
EndSplineSet
EndChar

StartChar: G
Encoding: 71 71 43
Width: 745
Flags: W
LayerCount: 2
Fore
SplineSet
409 402 m 1,0,-1
 690 402 l 1,1,-1
 690 81 l 1,2,3
 634 40 634 40 553 14.5 c 128,-1,4
 472 -11 472 -11 400 -11 c 0,5,6
 295 -11 295 -11 210 36.5 c 128,-1,7
 125 84 125 84 76 166.5 c 128,-1,8
 27 249 27 249 27 351 c 0,9,10
 27 452 27 452 77 534.5 c 128,-1,11
 127 617 127 617 214.5 664 c 128,-1,12
 302 711 302 711 409 711 c 0,13,14
 487 711 487 711 558.5 683 c 128,-1,15
 630 655 630 655 684 607 c 1,16,-1
 595 494 l 1,17,18
 556 531 556 531 508 552 c 128,-1,19
 460 573 460 573 409 573 c 0,20,21
 348 573 348 573 297.5 543.5 c 128,-1,22
 247 514 247 514 218 463.5 c 128,-1,23
 189 413 189 413 189 351 c 256,24,25
 189 289 189 289 218.5 237.5 c 128,-1,26
 248 186 248 186 298.5 156.5 c 128,-1,27
 349 127 349 127 410 127 c 0,28,29
 441 127 441 127 477 137.5 c 128,-1,30
 513 148 513 148 547 166 c 1,31,-1
 547 258 l 1,32,-1
 409 258 l 1,33,-1
 409 402 l 1,0,-1
EndSplineSet
EndChar

StartChar: H
Encoding: 72 72 44
Width: 787
Flags: W
LayerCount: 2
Fore
SplineSet
77 700 m 1,0,-1
 235 700 l 1,1,-1
 235 408 l 1,2,-1
 552 408 l 1,3,-1
 552 700 l 1,4,-1
 710 700 l 1,5,-1
 710 0 l 1,6,-1
 552 0 l 1,7,-1
 552 276 l 1,8,-1
 235 276 l 1,9,-1
 235 0 l 1,10,-1
 77 0 l 1,11,-1
 77 700 l 1,0,-1
EndSplineSet
EndChar

StartChar: I
Encoding: 73 73 45
Width: 313
Flags: W
LayerCount: 2
Fore
SplineSet
77 700 m 1,0,-1
 235 700 l 1,1,-1
 235 0 l 1,2,-1
 77 0 l 1,3,-1
 77 700 l 1,0,-1
EndSplineSet
EndChar

StartChar: J
Encoding: 74 74 46
Width: 524
Flags: W
LayerCount: 2
Fore
SplineSet
397.5 54 m 128,-1,1
 335 -7 335 -7 225 -7 c 0,2,3
 89 -7 89 -7 -4 102 c 1,4,-1
 69 214 l 1,5,6
 105 176 105 176 144.5 156 c 128,-1,7
 184 136 184 136 217 136 c 0,8,9
 257 136 257 136 279 160 c 128,-1,10
 301 184 301 184 301 228 c 2,11,-1
 301 566 l 1,12,-1
 60 566 l 1,13,-1
 60 700 l 1,14,-1
 460 700 l 1,15,-1
 460 224 l 2,16,0
 460 115 460 115 397.5 54 c 128,-1,1
EndSplineSet
EndChar

StartChar: K
Encoding: 75 75 47
Width: 737
Flags: W
LayerCount: 2
Fore
SplineSet
726 0 m 1,0,-1
 537 0 l 1,1,-1
 335 287 l 1,2,-1
 235 176 l 1,3,-1
 235 0 l 1,4,-1
 77 0 l 1,5,-1
 77 700 l 1,6,-1
 235 700 l 1,7,-1
 235 374 l 1,8,-1
 525 700 l 1,9,-1
 709 700 l 1,10,-1
 445 409 l 1,11,-1
 726 0 l 1,0,-1
EndSplineSet
EndChar

StartChar: L
Encoding: 76 76 48
Width: 552
Flags: W
LayerCount: 2
Fore
SplineSet
77 700 m 1,0,-1
 235 700 l 1,1,-1
 235 138 l 1,2,-1
 535 138 l 1,3,-1
 535 0 l 1,4,-1
 77 0 l 1,5,-1
 77 700 l 1,0,-1
EndSplineSet
EndChar

StartChar: M
Encoding: 77 77 49
Width: 940
Flags: W
LayerCount: 2
Fore
SplineSet
77 700 m 1,0,-1
 253 700 l 1,1,-1
 471 270 l 1,2,-1
 687 700 l 1,3,-1
 862 700 l 1,4,-1
 862 0 l 1,5,-1
 720 0 l 1,6,-1
 720 473 l 1,7,-1
 521 71 l 1,8,-1
 419 71 l 1,9,-1
 219 473 l 1,10,-1
 219 0 l 1,11,-1
 77 0 l 1,12,-1
 77 700 l 1,0,-1
EndSplineSet
EndChar

StartChar: N
Encoding: 78 78 50
Width: 788
Flags: W
LayerCount: 2
Fore
SplineSet
561 700 m 1,0,-1
 711 700 l 1,1,-1
 711 0 l 1,2,-1
 567 0 l 1,3,-1
 228 450 l 1,4,-1
 228 0 l 1,5,-1
 77 0 l 1,6,-1
 77 700 l 1,7,-1
 221 700 l 1,8,-1
 561 248 l 1,9,-1
 561 700 l 1,0,-1
EndSplineSet
EndChar

StartChar: O
Encoding: 79 79 51
Width: 806
Flags: W
LayerCount: 2
Fore
SplineSet
594 664 m 128,-1,1
 680 617 680 617 729.5 534.5 c 128,-1,2
 779 452 779 452 779 351 c 256,3,4
 779 250 779 250 729.5 167 c 128,-1,5
 680 84 680 84 594 36.5 c 128,-1,6
 508 -11 508 -11 403 -11 c 256,7,8
 298 -11 298 -11 212 36.5 c 128,-1,9
 126 84 126 84 76.5 166.5 c 128,-1,10
 27 249 27 249 27 351 c 0,11,12
 27 452 27 452 76.5 534.5 c 128,-1,13
 126 617 126 617 211.5 664 c 128,-1,14
 297 711 297 711 403 711 c 0,15,0
 508 711 508 711 594 664 c 128,-1,1
297 543.5 m 128,-1,17
 247 514 247 514 218 463 c 128,-1,18
 189 412 189 412 189 351 c 0,19,20
 189 289 189 289 218.5 238 c 128,-1,21
 248 187 248 187 297.5 157 c 128,-1,22
 347 127 347 127 405 127 c 256,23,24
 463 127 463 127 511.5 156.5 c 128,-1,25
 560 186 560 186 588.5 237.5 c 128,-1,26
 617 289 617 289 617 351 c 0,27,28
 617 412 617 412 588.5 463 c 128,-1,29
 560 514 560 514 511.5 543.5 c 128,-1,30
 463 573 463 573 405 573 c 256,31,16
 347 573 347 573 297 543.5 c 128,-1,17
EndSplineSet
Substitution2: "<11,2> Diagonal Fractions lookup 7 nested-substitutions 0 subtable" ordmasculine
Substitution2: "<11,2> Diagonal Fractions lookup 5 nested-substitutions 0 subtable" ordmasculine
EndChar

StartChar: P
Encoding: 80 80 52
Width: 678
Flags: W
LayerCount: 2
Fore
SplineSet
581 636.5 m 128,-1,1
 654 573 654 573 654 457 c 0,2,3
 654 335 654 335 580.5 267.5 c 128,-1,4
 507 200 507 200 374 200 c 2,5,-1
 235 200 l 1,6,-1
 235 0 l 1,7,-1
 77 0 l 1,8,-1
 77 700 l 1,9,-1
 374 700 l 2,10,0
 508 700 508 700 581 636.5 c 128,-1,1
468.5 362.5 m 128,-1,12
 504 393 504 393 504 452 c 0,13,14
 504 510 504 510 468.5 539.5 c 128,-1,15
 433 569 433 569 366 569 c 2,16,-1
 235 569 l 1,17,-1
 235 332 l 1,18,-1
 366 332 l 2,19,11
 433 332 433 332 468.5 362.5 c 128,-1,12
EndSplineSet
EndChar

StartChar: Q
Encoding: 81 81 53
Width: 812
Flags: W
LayerCount: 2
Fore
SplineSet
816 -85 m 1,0,1
 776 -121 776 -121 722.5 -141.5 c 128,-1,2
 669 -162 669 -162 618 -162 c 0,3,4
 548 -162 548 -162 490.5 -122.5 c 128,-1,5
 433 -83 433 -83 395 -11 c 1,6,7
 291 -9 291 -9 207 39 c 128,-1,8
 123 87 123 87 75 169 c 128,-1,9
 27 251 27 251 27 351 c 0,10,11
 27 452 27 452 76.5 534.5 c 128,-1,12
 126 617 126 617 211.5 664 c 128,-1,13
 297 711 297 711 403 711 c 0,14,15
 508 711 508 711 594 664 c 128,-1,16
 680 617 680 617 729.5 534.5 c 128,-1,17
 779 452 779 452 779 351 c 0,18,19
 779 235 779 235 714.5 143.5 c 128,-1,20
 650 52 650 52 543 13 c 1,21,22
 588 -37 588 -37 636 -37 c 0,23,24
 661 -37 661 -37 693 -22.5 c 128,-1,25
 725 -8 725 -8 759 18 c 1,26,-1
 816 -85 l 1,0,1
218.5 238 m 128,-1,28
 248 187 248 187 297.5 157 c 128,-1,29
 347 127 347 127 405 127 c 256,30,31
 463 127 463 127 511.5 156.5 c 128,-1,32
 560 186 560 186 588.5 237.5 c 128,-1,33
 617 289 617 289 617 351 c 0,34,35
 617 412 617 412 588.5 463 c 128,-1,36
 560 514 560 514 511.5 543.5 c 128,-1,37
 463 573 463 573 405 573 c 256,38,39
 347 573 347 573 297 543.5 c 128,-1,40
 247 514 247 514 218 463 c 128,-1,41
 189 412 189 412 189 351 c 0,42,27
 189 289 189 289 218.5 238 c 128,-1,28
EndSplineSet
EndChar

StartChar: R
Encoding: 82 82 54
Width: 724
Flags: W
LayerCount: 2
Fore
SplineSet
507 0 m 1,0,-1
 396 200 l 1,1,-1
 381 200 l 1,2,-1
 235 200 l 1,3,-1
 235 0 l 1,4,-1
 77 0 l 1,5,-1
 77 700 l 1,6,-1
 381 700 l 2,7,8
 518 700 518 700 593 636.5 c 128,-1,9
 668 573 668 573 668 457 c 0,10,11
 668 376 668 376 634.5 318.5 c 128,-1,12
 601 261 601 261 537 231 c 1,13,-1
 686 0 l 1,14,-1
 507 0 l 1,0,-1
235 332 m 1,15,-1
 381 332 l 2,16,17
 447 332 447 332 482.5 362.5 c 128,-1,18
 518 393 518 393 518 452 c 0,19,20
 518 510 518 510 482.5 539.5 c 128,-1,21
 447 569 447 569 381 569 c 2,22,-1
 235 569 l 1,23,-1
 235 332 l 1,15,-1
EndSplineSet
EndChar

StartChar: S
Encoding: 83 83 55
Width: 637
Flags: W
LayerCount: 2
Fore
SplineSet
423.5 557.5 m 128,-1,1
 363 577 363 577 320 577 c 0,2,3
 279 577 279 577 255 562 c 128,-1,4
 231 547 231 547 231 518 c 0,5,6
 231 481 231 481 265.5 461.5 c 128,-1,7
 300 442 300 442 372 421 c 256,8,9
 444 400 444 400 490.5 379 c 128,-1,10
 537 358 537 358 570 316 c 128,-1,11
 603 274 603 274 603 205 c 0,12,13
 603 138 603 138 567.5 89.5 c 128,-1,14
 532 41 532 41 470 16 c 128,-1,15
 408 -9 408 -9 329 -9 c 0,16,17
 244 -9 244 -9 162 21 c 128,-1,18
 80 51 80 51 20 103 c 1,19,-1
 83 232 l 1,20,21
 136 184 136 184 205 155 c 128,-1,22
 274 126 274 126 331 126 c 0,23,24
 380 126 380 126 407.5 144 c 128,-1,25
 435 162 435 162 435 196 c 0,26,27
 435 223 435 223 416.5 240.5 c 128,-1,28
 398 258 398 258 369.5 269 c 128,-1,29
 341 280 341 280 291 294 c 0,30,31
 219 314 219 314 173.5 334 c 128,-1,32
 128 354 128 354 95 395 c 128,-1,33
 62 436 62 436 62 504 c 0,34,35
 62 567 62 567 96 614.5 c 128,-1,36
 130 662 130 662 191 687.5 c 128,-1,37
 252 713 252 713 333 713 c 0,38,39
 405 713 405 713 475 692 c 128,-1,40
 545 671 545 671 599 636 c 1,41,-1
 538 505 l 1,42,0
 484 538 484 538 423.5 557.5 c 128,-1,1
EndSplineSet
EndChar

StartChar: T
Encoding: 84 84 56
Width: 601
Flags: W
LayerCount: 2
Fore
SplineSet
8 700 m 1,0,-1
 593 700 l 1,1,-1
 593 566 l 1,2,-1
 379 566 l 1,3,-1
 379 0 l 1,4,-1
 221 0 l 1,5,-1
 221 566 l 1,6,-1
 8 566 l 1,7,-1
 8 700 l 1,0,-1
EndSplineSet
EndChar

StartChar: U
Encoding: 85 85 57
Width: 753
Flags: W
LayerCount: 2
Fore
SplineSet
265.5 170.5 m 128,-1,1
 308 127 308 127 379 127 c 0,2,3
 448 127 448 127 489 170 c 128,-1,4
 530 213 530 213 530 289 c 2,5,-1
 530 700 l 1,6,-1
 688 700 l 1,7,-1
 688 289 l 2,8,9
 688 197 688 197 650.5 129.5 c 128,-1,10
 613 62 613 62 543 25.5 c 128,-1,11
 473 -11 473 -11 378 -11 c 256,12,13
 283 -11 283 -11 212 25.5 c 128,-1,14
 141 62 141 62 103 129.5 c 128,-1,15
 65 197 65 197 65 289 c 2,16,-1
 65 700 l 1,17,-1
 223 700 l 1,18,-1
 223 289 l 2,19,0
 223 214 223 214 265.5 170.5 c 128,-1,1
EndSplineSet
EndChar

StartChar: V
Encoding: 86 86 58
Width: 716
Flags: W
LayerCount: 2
Fore
SplineSet
0 700 m 1,0,-1
 170 700 l 1,1,-1
 361 172 l 1,2,-1
 553 700 l 1,3,-1
 716 700 l 1,4,-1
 438 0 l 1,5,-1
 275 0 l 1,6,-1
 0 700 l 1,0,-1
EndSplineSet
EndChar

StartChar: W
Encoding: 87 87 59
Width: 1094
Flags: W
LayerCount: 2
Fore
SplineSet
931 700 m 1,0,-1
 1094 700 l 1,1,-1
 857 0 l 1,2,-1
 694 0 l 1,3,-1
 547 505 l 1,4,-1
 398 0 l 1,5,-1
 236 0 l 1,6,-1
 0 700 l 1,7,-1
 170 700 l 1,8,-1
 322 166 l 1,9,-1
 473 700 l 1,10,-1
 628 700 l 1,11,-1
 781 166 l 1,12,-1
 931 700 l 1,0,-1
EndSplineSet
EndChar

StartChar: X
Encoding: 88 88 60
Width: 721
Flags: W
LayerCount: 2
Fore
SplineSet
25 700 m 1,0,-1
 209 700 l 1,1,-1
 355 486 l 1,2,-1
 502 700 l 1,3,-1
 689 700 l 1,4,-1
 456 365 l 1,5,-1
 709 0 l 1,6,-1
 520 0 l 1,7,-1
 355 233 l 1,8,-1
 193 0 l 1,9,-1
 8 0 l 1,10,-1
 259 358 l 1,11,-1
 25 700 l 1,0,-1
EndSplineSet
EndChar

StartChar: Y
Encoding: 89 89 61
Width: 666
Flags: W
LayerCount: 2
Fore
SplineSet
669 700 m 1,0,-1
 414 226 l 1,1,-1
 414 0 l 1,2,-1
 256 0 l 1,3,-1
 256 222 l 1,4,-1
 -3 700 l 1,5,-1
 156 700 l 1,6,-1
 335 386 l 1,7,-1
 510 700 l 1,8,-1
 669 700 l 1,0,-1
EndSplineSet
EndChar

StartChar: Z
Encoding: 90 90 62
Width: 672
Flags: W
LayerCount: 2
Fore
SplineSet
44 700 m 1,0,-1
 635 700 l 1,1,-1
 635 594 l 1,2,-1
 244 132 l 1,3,-1
 641 132 l 1,4,-1
 640 0 l 1,5,-1
 31 0 l 1,6,-1
 31 107 l 1,7,-1
 423 568 l 1,8,-1
 44 568 l 1,9,-1
 44 700 l 1,0,-1
EndSplineSet
EndChar

StartChar: bracketleft
Encoding: 91 91 63
Width: 347
Flags: W
LayerCount: 2
Fore
SplineSet
72 742 m 1,0,-1
 331 742 l 1,1,-1
 331 623 l 1,2,-1
 209 623 l 1,3,-1
 209 -5 l 1,4,-1
 331 -5 l 1,5,-1
 331 -124 l 1,6,-1
 72 -124 l 1,7,-1
 72 742 l 1,0,-1
EndSplineSet
Substitution2: "'rtla' Right to Left Alternates in Latin lookup 0 subtable" bracketright
EndChar

StartChar: backslash
Encoding: 92 92 64
Width: 346
Flags: W
LayerCount: 2
Fore
SplineSet
56 812 m 1,0,-1
 377 -112 l 1,1,-1
 248 -112 l 1,2,-1
 -74 812 l 1,3,-1
 56 812 l 1,0,-1
EndSplineSet
EndChar

StartChar: bracketright
Encoding: 93 93 65
Width: 347
Flags: W
LayerCount: 2
Fore
SplineSet
275 742 m 1,0,-1
 275 -124 l 1,1,-1
 16 -124 l 1,2,-1
 16 -5 l 1,3,-1
 138 -5 l 1,4,-1
 138 623 l 1,5,-1
 16 623 l 1,6,-1
 16 742 l 1,7,-1
 275 742 l 1,0,-1
EndSplineSet
Substitution2: "'rtla' Right to Left Alternates in Latin lookup 0 subtable" bracketleft
EndChar

StartChar: asciicircum
Encoding: 94 94 66
Width: 562
Flags: W
LayerCount: 2
Fore
SplineSet
531 135 m 1,0,-1
 417 135 l 1,1,-1
 281 435 l 1,2,-1
 144 135 l 1,3,-1
 30 135 l 1,4,-1
 216 525 l 1,5,-1
 345 525 l 1,6,-1
 531 135 l 1,0,-1
EndSplineSet
EndChar

StartChar: underscore
Encoding: 95 95 67
Width: 578
Flags: W
LayerCount: 2
Fore
SplineSet
0 -116 m 1,0,-1
 577 -116 l 1,1,-1
 577 -204 l 1,2,-1
 0 -204 l 1,3,-1
 0 -116 l 1,0,-1
EndSplineSet
EndChar

StartChar: a
Encoding: 97 97 69
Width: 596
Flags: W
LayerCount: 2
Fore
SplineSet
386 0 m 1,0,-1
 386 63 l 1,1,2
 359 29 359 29 316 11 c 128,-1,3
 273 -7 273 -7 217 -7 c 0,4,5
 132 -7 132 -7 82 39.5 c 128,-1,6
 32 86 32 86 32 161 c 0,7,8
 32 237 32 237 85.5 279.5 c 128,-1,9
 139 322 139 322 237 323 c 2,10,-1
 385 323 l 1,11,-1
 385 333 l 2,12,13
 385 376 385 376 356.5 399.5 c 128,-1,14
 328 423 328 423 273 423 c 0,15,16
 198 423 198 423 113 376 c 1,17,-1
 65 482 l 1,18,19
 129 514 129 514 185 529 c 128,-1,20
 241 544 241 544 308 544 c 0,21,22
 416 544 416 544 475.5 493 c 128,-1,23
 535 442 535 442 536 351 c 2,24,-1
 537 0 l 1,25,-1
 386 0 l 1,0,-1
343 126 m 128,-1,27
 378 149 378 149 385 184 c 1,28,-1
 385 232 l 1,29,-1
 264 232 l 2,30,31
 219 232 219 232 197.5 217.5 c 128,-1,32
 176 203 176 203 176 171 c 0,33,34
 176 140 176 140 198.5 121.5 c 128,-1,35
 221 103 221 103 260 103 c 0,36,26
 308 103 308 103 343 126 c 128,-1,27
EndSplineSet
Substitution2: "<3,3> Small Caps in Latin lookup 11 subtable" a.sc
Substitution2: "<11,2> Diagonal Fractions lookup 7 nested-substitutions 0 subtable" ordfeminine
Substitution2: "<11,2> Diagonal Fractions lookup 5 nested-substitutions 0 subtable" ordfeminine
EndChar

StartChar: b
Encoding: 98 98 70
Width: 684
Flags: W
LayerCount: 2
Fore
SplineSet
535.5 508.5 m 128,-1,1
 593 474 593 474 624.5 411 c 128,-1,2
 656 348 656 348 656 266 c 0,3,4
 656 185 656 185 625 123.5 c 128,-1,5
 594 62 594 62 537.5 28 c 128,-1,6
 481 -6 481 -6 406 -6 c 0,7,8
 350 -6 350 -6 306.5 15.5 c 128,-1,9
 263 37 263 37 233 78 c 1,10,-1
 233 0 l 1,11,-1
 79 0 l 1,12,-1
 79 742 l 1,13,-1
 233 742 l 1,14,-1
 233 459 l 1,15,16
 262 500 262 500 305.5 521.5 c 128,-1,17
 349 543 349 543 403 543 c 0,18,0
 478 543 478 543 535.5 508.5 c 128,-1,1
463 163.5 m 128,-1,20
 500 205 500 205 500 271 c 0,21,22
 500 336 500 336 463 377.5 c 128,-1,23
 426 419 426 419 367 419 c 256,24,25
 308 419 308 419 270.5 377.5 c 128,-1,26
 233 336 233 336 233 271 c 0,27,28
 233 204 233 204 270.5 163 c 128,-1,29
 308 122 308 122 367 122 c 256,30,19
 426 122 426 122 463 163.5 c 128,-1,20
EndSplineSet
Substitution2: "<3,3> Small Caps in Latin lookup 11 subtable" b.sc
EndChar

StartChar: c
Encoding: 99 99 71
Width: 563
Flags: W
LayerCount: 2
Fore
SplineSet
313 412 m 0,1,2
 255 412 255 412 218.5 372.5 c 128,-1,3
 182 333 182 333 182 268 c 256,4,5
 182 203 182 203 218 162.5 c 128,-1,6
 254 122 254 122 310 122 c 0,7,8
 394 122 394 122 435 185 c 1,9,-1
 541 113 l 1,10,11
 507 56 507 56 445.5 25 c 128,-1,12
 384 -6 384 -6 302 -6 c 0,13,14
 221 -6 221 -6 159 28 c 128,-1,15
 97 62 97 62 62.5 124 c 128,-1,16
 28 186 28 186 28 267 c 0,17,18
 28 349 28 349 62.5 411.5 c 128,-1,19
 97 474 97 474 159.5 508.5 c 128,-1,20
 222 543 222 543 304 543 c 0,21,22
 381 543 381 543 441 513.5 c 128,-1,23
 501 484 501 484 537 430 c 1,24,-1
 433 355 l 1,25,0
 387 412 387 412 313 412 c 0,1,2
EndSplineSet
Substitution2: "<3,3> Small Caps in Latin lookup 11 subtable" c.sc
EndChar

StartChar: d
Encoding: 100 100 72
Width: 685
Flags: W
LayerCount: 2
Fore
SplineSet
605 742 m 1,0,-1
 605 0 l 1,1,-1
 452 0 l 1,2,-1
 452 79 l 1,3,4
 423 37 423 37 380 15.5 c 128,-1,5
 337 -6 337 -6 282 -6 c 0,6,7
 206 -6 206 -6 148.5 28.5 c 128,-1,8
 91 63 91 63 59.5 126 c 128,-1,9
 28 189 28 189 28 271 c 0,10,11
 28 352 28 352 59 414 c 128,-1,12
 90 476 90 476 147 510 c 128,-1,13
 204 544 204 544 278 544 c 0,14,15
 392 544 392 544 452 459 c 1,16,-1
 452 742 l 1,17,-1
 605 742 l 1,0,-1
414.5 159.5 m 128,-1,19
 452 201 452 201 452 267 c 256,20,21
 452 333 452 333 414.5 374.5 c 128,-1,22
 377 416 377 416 318 416 c 0,23,24
 258 416 258 416 220.5 374.5 c 128,-1,25
 183 333 183 333 182 267 c 0,26,27
 183 201 183 201 220.5 159.5 c 128,-1,28
 258 118 258 118 318 118 c 0,29,18
 377 118 377 118 414.5 159.5 c 128,-1,19
EndSplineSet
Substitution2: "<3,3> Small Caps in Latin lookup 11 subtable" d.sc
EndChar

StartChar: e
Encoding: 101 101 73
Width: 597
Flags: W
LayerCount: 2
Fore
SplineSet
502.5 468 m 128,-1,1
 570 393 570 393 570 259 c 0,2,3
 570 235 570 235 569 222 c 1,4,-1
 183 222 l 1,5,6
 196 171 196 171 233 142.5 c 128,-1,7
 270 114 270 114 322 114 c 0,8,9
 360 114 360 114 395 128.5 c 128,-1,10
 430 143 430 143 458 171 c 1,11,-1
 539 89 l 1,12,13
 498 43 498 43 439.5 18.5 c 128,-1,14
 381 -6 381 -6 309 -6 c 0,15,16
 224 -6 224 -6 160.5 28 c 128,-1,17
 97 62 97 62 62.5 124 c 128,-1,18
 28 186 28 186 28 267 c 0,19,20
 28 349 28 349 63 411.5 c 128,-1,21
 98 474 98 474 161 508.5 c 128,-1,22
 224 543 224 543 305 543 c 0,23,0
 435 543 435 543 502.5 468 c 128,-1,1
425 313 m 1,24,25
 423 366 423 366 391 398 c 128,-1,26
 359 430 359 430 306 430 c 0,27,28
 256 430 256 430 222.5 398.5 c 128,-1,29
 189 367 189 367 180 313 c 1,30,-1
 425 313 l 1,24,25
EndSplineSet
Substitution2: "<3,3> Small Caps in Latin lookup 11 subtable" e.sc
EndChar

StartChar: f
Encoding: 102 102 74
Width: 380
Flags: W
LayerCount: 2
Fore
SplineSet
274 606 m 128,-1,1
 256 590 256 590 256 559 c 2,2,-1
 256 514 l 1,3,-1
 383 514 l 1,4,-1
 383 407 l 1,5,-1
 256 407 l 1,6,-1
 256 0 l 1,7,-1
 103 0 l 1,8,-1
 103 407 l 1,9,-1
 31 407 l 1,10,-1
 31 514 l 1,11,-1
 103 514 l 1,12,-1
 103 565 l 2,13,14
 103 623 103 623 129.5 664.5 c 128,-1,15
 156 706 156 706 201 727.5 c 128,-1,16
 246 749 246 749 301 749 c 0,17,18
 353 749 353 749 407 727 c 1,19,-1
 384 607 l 1,20,21
 369 613 369 613 352 617.5 c 128,-1,22
 335 622 335 622 320 622 c 0,23,0
 292 622 292 622 274 606 c 128,-1,1
EndSplineSet
Substitution2: "<3,3> Small Caps in Latin lookup 11 subtable" f.sc
EndChar

StartChar: g
Encoding: 103 103 75
Width: 645
Flags: W
LayerCount: 2
Fore
SplineSet
578 538 m 1,0,-1
 578 50 l 2,1,2
 578 -26 578 -26 542 -82.5 c 128,-1,3
 506 -139 506 -139 441 -169.5 c 128,-1,4
 376 -200 376 -200 291 -200 c 0,5,6
 225 -200 225 -200 165.5 -181 c 128,-1,7
 106 -162 106 -162 57 -129 c 1,8,-1
 114 -21 l 1,9,10
 190 -75 190 -75 281 -75 c 0,11,12
 347 -75 347 -75 386 -42.5 c 128,-1,13
 425 -10 425 -10 425 45 c 2,14,-1
 425 106 l 1,15,16
 398 68 398 68 357 48 c 128,-1,17
 316 28 316 28 263 28 c 0,18,19
 194 28 194 28 140.5 60.5 c 128,-1,20
 87 93 87 93 57.5 152 c 128,-1,21
 28 211 28 211 28 288 c 0,22,23
 28 364 28 364 57.5 421.5 c 128,-1,24
 87 479 87 479 140.5 511 c 128,-1,25
 194 543 194 543 263 543 c 0,26,27
 315 543 315 543 356 522.5 c 128,-1,28
 397 502 397 502 425 465 c 1,29,-1
 425 538 l 1,30,-1
 578 538 l 1,0,-1
390 183.5 m 128,-1,32
 425 222 425 222 425 284 c 256,33,34
 425 346 425 346 390 385 c 128,-1,35
 355 424 355 424 299 424 c 256,36,37
 243 424 243 424 208 385 c 128,-1,38
 173 346 173 346 172 284 c 0,39,40
 173 222 173 222 207.5 183.5 c 128,-1,41
 242 145 242 145 299 145 c 0,42,31
 355 145 355 145 390 183.5 c 128,-1,32
EndSplineSet
Substitution2: "<3,3> Small Caps in Latin lookup 11 subtable" g.sc
EndChar

StartChar: h
Encoding: 104 104 76
Width: 675
Flags: W
LayerCount: 2
Fore
SplineSet
563.5 488 m 128,-1,1
 617 432 617 432 617 338 c 2,2,-1
 617 0 l 1,3,-1
 463 0 l 1,4,-1
 463 293 l 2,5,6
 463 344 463 344 434.5 373.5 c 128,-1,7
 406 403 406 403 357 403 c 0,8,9
 300 402 300 402 266.5 363.5 c 128,-1,10
 233 325 233 325 233 265 c 2,11,-1
 233 0 l 1,12,-1
 79 0 l 1,13,-1
 79 742 l 1,14,-1
 233 742 l 1,15,-1
 233 443 l 1,16,17
 289 542 289 542 419 544 c 0,18,0
 510 544 510 544 563.5 488 c 128,-1,1
EndSplineSet
Substitution2: "<3,3> Small Caps in Latin lookup 11 subtable" h.sc
EndChar

StartChar: k
Encoding: 107 107 79
Width: 619
Flags: W
LayerCount: 2
Fore
SplineSet
432 0 m 1,0,-1
 302 219 l 1,1,-1
 233 146 l 1,2,-1
 233 0 l 1,3,-1
 79 0 l 1,4,-1
 79 742 l 1,5,-1
 233 742 l 1,6,-1
 233 334 l 1,7,-1
 430 537 l 1,8,-1
 605 537 l 1,9,-1
 408 330 l 1,10,-1
 614 0 l 1,11,-1
 432 0 l 1,0,-1
EndSplineSet
Substitution2: "<3,3> Small Caps in Latin lookup 11 subtable" k.sc
EndChar

StartChar: l
Encoding: 108 108 80
Width: 313
Flags: W
LayerCount: 2
Fore
SplineSet
79 742 m 1,0,-1
 233 742 l 1,1,-1
 233 0 l 1,2,-1
 79 0 l 1,3,-1
 79 742 l 1,0,-1
EndSplineSet
Substitution2: "<3,3> Small Caps in Latin lookup 11 subtable" l.sc
EndChar

StartChar: m
Encoding: 109 109 81
Width: 1039
Flags: W
LayerCount: 2
Fore
SplineSet
927.5 488.5 m 128,-1,1
 980 433 980 433 980 338 c 2,2,-1
 980 0 l 1,3,-1
 827 0 l 1,4,-1
 827 293 l 2,5,6
 827 345 827 345 799 374 c 128,-1,7
 771 403 771 403 723 403 c 0,8,9
 668 402 668 402 636 364 c 128,-1,10
 604 326 604 326 604 266 c 2,11,-1
 604 0 l 1,12,-1
 451 0 l 1,13,-1
 451 293 l 2,14,15
 451 344 451 344 423.5 373.5 c 128,-1,16
 396 403 396 403 348 403 c 0,17,18
 293 402 293 402 260.5 364 c 128,-1,19
 228 326 228 326 228 266 c 2,20,-1
 228 0 l 1,21,-1
 74 0 l 1,22,-1
 74 538 l 1,23,-1
 228 538 l 1,24,-1
 228 445 l 1,25,26
 284 542 284 542 410 544 c 0,27,28
 478 544 478 544 525 511.5 c 128,-1,29
 572 479 572 479 592 420 c 1,30,31
 618 481 618 481 667.5 512 c 128,-1,32
 717 543 717 543 786 544 c 0,33,0
 875 544 875 544 927.5 488.5 c 128,-1,1
EndSplineSet
Substitution2: "<3,3> Small Caps in Latin lookup 11 subtable" m.sc
EndChar

StartChar: n
Encoding: 110 110 82
Width: 670
Flags: W
LayerCount: 2
Fore
SplineSet
557.5 488 m 128,-1,1
 611 432 611 432 611 338 c 2,2,-1
 611 0 l 1,3,-1
 457 0 l 1,4,-1
 457 293 l 2,5,6
 457 344 457 344 428.5 373.5 c 128,-1,7
 400 403 400 403 351 403 c 0,8,9
 294 402 294 402 261 363.5 c 128,-1,10
 228 325 228 325 228 265 c 2,11,-1
 228 0 l 1,12,-1
 74 0 l 1,13,-1
 74 538 l 1,14,-1
 228 538 l 1,15,-1
 228 444 l 1,16,17
 284 542 284 542 414 544 c 0,18,0
 504 544 504 544 557.5 488 c 128,-1,1
EndSplineSet
Substitution2: "<3,3> Small Caps in Latin lookup 11 subtable" n.sc
EndChar

StartChar: o
Encoding: 111 111 83
Width: 633
Flags: W
LayerCount: 2
Fore
SplineSet
467.5 509 m 128,-1,1
 533 475 533 475 569 413 c 128,-1,2
 605 351 605 351 605 269 c 0,3,4
 605 188 605 188 569 125.5 c 128,-1,5
 533 63 533 63 467.5 28.5 c 128,-1,6
 402 -6 402 -6 317 -6 c 0,7,8
 231 -6 231 -6 165.5 28.5 c 128,-1,9
 100 63 100 63 64 125.5 c 128,-1,10
 28 188 28 188 28 269 c 0,11,12
 28 351 28 351 64 413 c 128,-1,13
 100 475 100 475 165.5 509 c 128,-1,14
 231 543 231 543 317 543 c 0,15,0
 402 543 402 543 467.5 509 c 128,-1,1
219.5 374 m 128,-1,17
 182 333 182 333 182 267 c 256,18,19
 182 201 182 201 219.5 160 c 128,-1,20
 257 119 257 119 317 119 c 0,21,22
 376 119 376 119 413.5 160 c 128,-1,23
 451 201 451 201 451 267 c 256,24,25
 451 333 451 333 413.5 374 c 128,-1,26
 376 415 376 415 317 415 c 0,27,16
 257 415 257 415 219.5 374 c 128,-1,17
EndSplineSet
Substitution2: "<3,3> Small Caps in Latin lookup 11 subtable" o.sc
Substitution2: "<11,2> Diagonal Fractions lookup 7 nested-substitutions 0 subtable" ordmasculine
Substitution2: "<11,2> Diagonal Fractions lookup 5 nested-substitutions 0 subtable" ordmasculine
EndChar

StartChar: p
Encoding: 112 112 84
Width: 684
Flags: W
LayerCount: 2
Fore
SplineSet
535.5 508.5 m 128,-1,1
 593 474 593 474 624.5 411 c 128,-1,2
 656 348 656 348 656 266 c 0,3,4
 656 185 656 185 625 123.5 c 128,-1,5
 594 62 594 62 537.5 28 c 128,-1,6
 481 -6 481 -6 406 -6 c 0,7,8
 350 -6 350 -6 306.5 15.5 c 128,-1,9
 263 37 263 37 233 78 c 1,10,-1
 233 -194 l 1,11,-1
 79 -194 l 1,12,-1
 79 538 l 1,13,-1
 233 538 l 1,14,-1
 233 459 l 1,15,16
 262 500 262 500 305.5 521.5 c 128,-1,17
 349 543 349 543 403 543 c 0,18,0
 478 543 478 543 535.5 508.5 c 128,-1,1
463 163.5 m 128,-1,20
 500 205 500 205 500 271 c 0,21,22
 500 336 500 336 463 377.5 c 128,-1,23
 426 419 426 419 367 419 c 256,24,25
 308 419 308 419 270.5 377.5 c 128,-1,26
 233 336 233 336 233 271 c 0,27,28
 233 204 233 204 270.5 163 c 128,-1,29
 308 122 308 122 367 122 c 256,30,19
 426 122 426 122 463 163.5 c 128,-1,20
EndSplineSet
Substitution2: "<3,3> Small Caps in Latin lookup 11 subtable" p.sc
EndChar

StartChar: q
Encoding: 113 113 85
Width: 685
Flags: W
LayerCount: 2
Fore
SplineSet
605 538 m 1,0,-1
 605 -194 l 1,1,-1
 452 -194 l 1,2,-1
 452 79 l 1,3,4
 423 37 423 37 380 15.5 c 128,-1,5
 337 -6 337 -6 282 -6 c 0,6,7
 206 -6 206 -6 148.5 28.5 c 128,-1,8
 91 63 91 63 59.5 126 c 128,-1,9
 28 189 28 189 28 271 c 0,10,11
 28 352 28 352 59 414 c 128,-1,12
 90 476 90 476 147 510 c 128,-1,13
 204 544 204 544 278 544 c 0,14,15
 392 544 392 544 452 459 c 1,16,-1
 452 538 l 1,17,-1
 605 538 l 1,0,-1
414.5 159.5 m 128,-1,19
 452 201 452 201 452 267 c 256,20,21
 452 333 452 333 414.5 374.5 c 128,-1,22
 377 416 377 416 318 416 c 0,23,24
 258 416 258 416 220.5 374.5 c 128,-1,25
 183 333 183 333 182 267 c 0,26,27
 183 201 183 201 220.5 159.5 c 128,-1,28
 258 118 258 118 318 118 c 0,29,18
 377 118 377 118 414.5 159.5 c 128,-1,19
EndSplineSet
Substitution2: "<3,3> Small Caps in Latin lookup 11 subtable" q.sc
EndChar

StartChar: r
Encoding: 114 114 86
Width: 416
Flags: W
LayerCount: 2
Fore
SplineSet
301 517 m 128,-1,1
 346 543 346 543 406 544 c 1,2,-1
 406 399 l 1,3,4
 398 400 398 400 382 400 c 0,5,6
 311 400 311 400 269.5 361.5 c 128,-1,7
 228 323 228 323 228 259 c 2,8,-1
 228 0 l 1,9,-1
 74 0 l 1,10,-1
 74 538 l 1,11,-1
 228 538 l 1,12,-1
 228 441 l 1,13,0
 256 491 256 491 301 517 c 128,-1,1
EndSplineSet
Substitution2: "<3,3> Small Caps in Latin lookup 11 subtable" r.sc
EndChar

StartChar: s
Encoding: 115 115 87
Width: 499
Flags: W
LayerCount: 2
Fore
SplineSet
326 418.5 m 128,-1,1
 283 432 283 432 249 432 c 0,2,3
 221 432 221 432 204 422 c 128,-1,4
 187 412 187 412 187 392 c 0,5,6
 187 370 187 370 210 358 c 128,-1,7
 233 346 233 346 285 331 c 0,8,9
 342 314 342 314 379 297.5 c 128,-1,10
 416 281 416 281 443 248.5 c 128,-1,11
 470 216 470 216 470 163 c 0,12,13
 470 83 470 83 408.5 38.5 c 128,-1,14
 347 -6 347 -6 251 -6 c 0,15,16
 185 -6 185 -6 124 13.5 c 128,-1,17
 63 33 63 33 18 69 c 1,18,-1
 68 173 l 1,19,20
 109 141 109 141 159.5 123.5 c 128,-1,21
 210 106 210 106 255 106 c 0,22,23
 286 106 286 106 304.5 116.5 c 128,-1,24
 323 127 323 127 323 148 c 0,25,26
 323 171 323 171 299.5 184 c 128,-1,27
 276 197 276 197 224 212 c 0,28,29
 169 228 169 228 132.5 244 c 128,-1,30
 96 260 96 260 70 292.5 c 128,-1,31
 44 325 44 325 44 377 c 0,32,33
 44 457 44 457 104 501 c 128,-1,34
 164 545 164 545 256 545 c 0,35,36
 311 545 311 545 366 529.5 c 128,-1,37
 421 514 421 514 466 485 c 1,38,-1
 413 380 l 1,39,0
 369 405 369 405 326 418.5 c 128,-1,1
EndSplineSet
Substitution2: "<3,3> Small Caps in Latin lookup 11 subtable" s.sc
EndChar

StartChar: t
Encoding: 116 116 88
Width: 426
Flags: W
LayerCount: 2
Fore
SplineSet
407 30 m 1,0,1
 377 12 377 12 340.5 2.5 c 128,-1,2
 304 -7 304 -7 267 -7 c 0,3,4
 192 -7 192 -7 145 36 c 128,-1,5
 98 79 98 79 98 159 c 2,6,-1
 98 408 l 1,7,-1
 23 408 l 1,8,-1
 23 514 l 1,9,-1
 98 514 l 1,10,-1
 98 662 l 1,11,-1
 251 662 l 1,12,-1
 251 514 l 1,13,-1
 397 514 l 1,14,-1
 397 407 l 1,15,-1
 251 407 l 1,16,-1
 251 185 l 2,17,18
 251 123 251 123 300 123 c 0,19,20
 334 123 334 123 375 143 c 1,21,-1
 407 30 l 1,0,1
EndSplineSet
Substitution2: "<3,3> Small Caps in Latin lookup 11 subtable" t.sc
EndChar

StartChar: u
Encoding: 117 117 89
Width: 660
Flags: W
LayerCount: 2
Fore
SplineSet
585 538 m 1,0,-1
 585 0 l 1,1,-1
 432 0 l 1,2,-1
 432 95 l 1,3,4
 377 -6 377 -6 252 -6 c 0,5,6
 163 -6 163 -6 110.5 49.5 c 128,-1,7
 58 105 58 105 58 200 c 2,8,-1
 58 538 l 1,9,-1
 212 538 l 1,10,-1
 212 244 l 2,11,12
 212 193 212 193 239 164 c 128,-1,13
 266 135 266 135 313 135 c 0,14,15
 368 136 368 136 400 174 c 128,-1,16
 432 212 432 212 432 272 c 2,17,-1
 432 538 l 1,18,-1
 585 538 l 1,0,-1
EndSplineSet
Substitution2: "<3,3> Small Caps in Latin lookup 11 subtable" u.sc
EndChar

StartChar: v
Encoding: 118 118 90
Width: 556
Flags: W
LayerCount: 2
Fore
SplineSet
-3 537 m 1,0,-1
 156 538 l 1,1,-1
 283 146 l 1,2,-1
 409 538 l 1,3,-1
 562 538 l 1,4,-1
 359 0 l 1,5,-1
 201 0 l 1,6,-1
 -3 537 l 1,0,-1
EndSplineSet
Substitution2: "<3,3> Small Caps in Latin lookup 11 subtable" v.sc
EndChar

StartChar: w
Encoding: 119 119 91
Width: 923
Flags: W
LayerCount: 2
Fore
SplineSet
-3 537 m 1,0,-1
 154 538 l 1,1,-1
 274 153 l 1,2,-1
 390 538 l 1,3,-1
 541 538 l 1,4,-1
 659 153 l 1,5,-1
 777 538 l 1,6,-1
 929 538 l 1,7,-1
 733 0 l 1,8,-1
 579 0 l 1,9,-1
 463 355 l 1,10,-1
 348 0 l 1,11,-1
 194 0 l 1,12,-1
 -3 537 l 1,0,-1
EndSplineSet
Substitution2: "<3,3> Small Caps in Latin lookup 11 subtable" w.sc
EndChar

StartChar: x
Encoding: 120 120 92
Width: 589
Flags: W
LayerCount: 2
Fore
SplineSet
20 538 m 1,0,-1
 196 538 l 1,1,-1
 295 375 l 1,2,-1
 400 538 l 1,3,-1
 568 538 l 1,4,-1
 397 276 l 1,5,-1
 580 0 l 1,6,-1
 403 0 l 1,7,-1
 295 176 l 1,8,-1
 177 0 l 1,9,-1
 7 0 l 1,10,-1
 193 275 l 1,11,-1
 20 538 l 1,0,-1
EndSplineSet
Substitution2: "<3,3> Small Caps in Latin lookup 11 subtable" x.sc
EndChar

StartChar: y
Encoding: 121 121 93
Width: 564
Flags: W
LayerCount: 2
Fore
SplineSet
138 -201 m 0,1,2
 95 -201 95 -201 60 -188.5 c 128,-1,3
 25 -176 25 -176 -8 -149 c 1,4,-1
 57 -38 l 1,5,6
 92 -67 92 -67 127 -67 c 0,7,8
 176 -67 176 -67 198 -19 c 2,9,-1
 213 11 l 1,10,-1
 -10 538 l 1,11,-1
 149 538 l 1,12,-1
 290 168 l 1,13,-1
 417 538 l 1,14,-1
 571 538 l 1,15,-1
 335 -60 l 2,16,0
 279 -201 279 -201 138 -201 c 0,1,2
EndSplineSet
Substitution2: "<3,3> Small Caps in Latin lookup 11 subtable" y.sc
EndChar

StartChar: z
Encoding: 122 122 94
Width: 548
Flags: W
LayerCount: 2
Fore
SplineSet
48 537 m 1,0,-1
 507 537 l 1,1,-1
 507 440 l 1,2,-1
 230 121 l 1,3,-1
 516 121 l 1,4,-1
 516 -1 l 1,5,-1
 38 0 l 1,6,-1
 38 97 l 1,7,-1
 315 416 l 1,8,-1
 48 417 l 1,9,-1
 48 537 l 1,0,-1
EndSplineSet
Substitution2: "<3,3> Small Caps in Latin lookup 11 subtable" z.sc
EndChar

StartChar: braceleft
Encoding: 123 123 95
Width: 356
Flags: W
LayerCount: 2
Fore
SplineSet
234.5 368 m 128,-1,1
 224 347 224 347 204.5 335.5 c 128,-1,2
 185 324 185 324 147 309 c 1,3,4
 185 294 185 294 204.5 282 c 128,-1,5
 224 270 224 270 234.5 249 c 128,-1,6
 245 228 245 228 245 191 c 2,7,-1
 245 59 l 2,8,9
 245 22 245 22 264 7.5 c 128,-1,10
 283 -7 283 -7 335 -7 c 1,11,-1
 335 -126 l 1,12,-1
 276 -126 l 2,13,14
 213 -126 213 -126 176.5 -112.5 c 128,-1,15
 140 -99 140 -99 123.5 -69.5 c 128,-1,16
 107 -40 107 -40 107 11 c 2,17,-1
 107 201 l 2,18,19
 107 226 107 226 98 237 c 128,-1,20
 89 248 89 248 68 248 c 2,21,-1
 32 248 l 1,22,-1
 32 370 l 1,23,-1
 68 370 l 2,24,25
 89 370 89 370 98 380.5 c 128,-1,26
 107 391 107 391 107 416 c 2,27,-1
 107 606 l 2,28,29
 107 657 107 657 123.5 686.5 c 128,-1,30
 140 716 140 716 176.5 729.5 c 128,-1,31
 213 743 213 743 276 743 c 2,32,-1
 335 743 l 1,33,-1
 335 624 l 1,34,35
 283 624 283 624 264 609.5 c 128,-1,36
 245 595 245 595 245 558 c 2,37,-1
 245 426 l 2,38,0
 245 389 245 389 234.5 368 c 128,-1,1
EndSplineSet
Substitution2: "'rtla' Right to Left Alternates in Latin lookup 0 subtable" braceright
EndChar

StartChar: bar
Encoding: 124 124 96
Width: 289
Flags: W
LayerCount: 2
Fore
SplineSet
87 805 m 1,0,-1
 202 805 l 1,1,-1
 202 -111 l 1,2,-1
 87 -111 l 1,3,-1
 87 805 l 1,0,-1
EndSplineSet
EndChar

StartChar: braceright
Encoding: 125 125 97
Width: 356
Flags: W
LayerCount: 2
Fore
SplineSet
324 370 m 1,0,-1
 324 248 l 1,1,-1
 288 248 l 2,2,3
 267 248 267 248 258 237 c 128,-1,4
 249 226 249 226 249 201 c 2,5,-1
 249 11 l 2,6,7
 249 -40 249 -40 232.5 -69.5 c 128,-1,8
 216 -99 216 -99 179.5 -112.5 c 128,-1,9
 143 -126 143 -126 80 -126 c 2,10,-1
 21 -126 l 1,11,-1
 21 -7 l 1,12,13
 73 -7 73 -7 92 7.5 c 128,-1,14
 111 22 111 22 111 59 c 2,15,-1
 111 191 l 2,16,17
 111 228 111 228 121.5 249 c 128,-1,18
 132 270 132 270 151.5 282 c 128,-1,19
 171 294 171 294 209 309 c 1,20,21
 171 324 171 324 151.5 335.5 c 128,-1,22
 132 347 132 347 121.5 368 c 128,-1,23
 111 389 111 389 111 426 c 2,24,-1
 111 558 l 2,25,26
 111 595 111 595 92 609.5 c 128,-1,27
 73 624 73 624 21 624 c 1,28,-1
 21 743 l 1,29,-1
 80 743 l 2,30,31
 143 743 143 743 179.5 729.5 c 128,-1,32
 216 716 216 716 232.5 686.5 c 128,-1,33
 249 657 249 657 249 606 c 2,34,-1
 249 416 l 2,35,36
 249 391 249 391 258 380.5 c 128,-1,37
 267 370 267 370 288 370 c 2,38,-1
 324 370 l 1,0,-1
EndSplineSet
Substitution2: "'rtla' Right to Left Alternates in Latin lookup 0 subtable" braceleft
EndChar

StartChar: asciitilde
Encoding: 126 126 98
Width: 506
Flags: W
LayerCount: 2
Fore
SplineSet
420.5 280.5 m 128,-1,1
 394 240 394 240 340 240 c 0,2,3
 314 240 314 240 294.5 248 c 128,-1,4
 275 256 275 256 246 272 c 0,5,6
 229 282 229 282 218.5 287 c 128,-1,7
 208 292 208 292 198 292 c 0,8,9
 164 292 164 292 164 245 c 1,10,-1
 60 245 l 1,11,12
 60 327 60 327 86.5 367.5 c 128,-1,13
 113 408 113 408 167 408 c 0,14,15
 192 408 192 408 213 399.5 c 128,-1,16
 234 391 234 391 260 375 c 0,17,18
 276 365 276 365 287.5 360 c 128,-1,19
 299 355 299 355 309 355 c 0,20,21
 343 355 343 355 343 403 c 1,22,-1
 447 403 l 1,23,0
 447 321 447 321 420.5 280.5 c 128,-1,1
EndSplineSet
EndChar

StartChar: exclamdown
Encoding: 161 161 100
Width: 240
Flags: W
LayerCount: 2
Fore
SplineSet
75.5 409 m 128,-1,1
 54 431 54 431 54 466 c 256,2,3
 54 501 54 501 75.5 523.5 c 128,-1,4
 97 546 97 546 131 546 c 0,5,6
 164 546 164 546 186 523 c 128,-1,7
 208 500 208 500 208 466 c 0,8,9
 208 431 208 431 186 409 c 128,-1,10
 164 387 164 387 131 387 c 0,11,0
 97 387 97 387 75.5 409 c 128,-1,1
203 -158 m 1,12,-1
 56 -158 l 1,13,-1
 56 19 l 1,14,-1
 83 301 l 1,15,-1
 176 301 l 1,16,-1
 203 19 l 1,17,-1
 203 -158 l 1,12,-1
EndSplineSet
Substitution2: "<3,3> Small Caps in Latin lookup 11 subtable" exclamdown.sc
EndChar

StartChar: cent
Encoding: 162 162 101
Width: 600
Flags: W
LayerCount: 2
Fore
SplineSet
469 38.5 m 128,-1,1
 424 9 424 9 365 -1 c 1,2,-1
 365 -150 l 1,3,-1
 250 -150 l 1,4,-1
 250 -2 l 1,5,6
 149 14 149 14 88.5 86.5 c 128,-1,7
 28 159 28 159 28 267 c 0,8,9
 28 376 28 376 88 449 c 128,-1,10
 148 522 148 522 250 539 c 1,11,-1
 250 695 l 1,12,-1
 365 695 l 1,13,-1
 365 538 l 1,14,15
 420 528 420 528 464 500.5 c 128,-1,16
 508 473 508 473 537 430 c 1,17,-1
 433 355 l 1,18,19
 387 412 387 412 313 412 c 0,20,21
 255 412 255 412 218.5 372.5 c 128,-1,22
 182 333 182 333 182 268 c 256,23,24
 182 203 182 203 218 162.5 c 128,-1,25
 254 122 254 122 310 122 c 0,26,27
 394 122 394 122 435 185 c 1,28,-1
 541 113 l 1,29,0
 514 68 514 68 469 38.5 c 128,-1,1
EndSplineSet
EndChar

StartChar: sterling
Encoding: 163 163 102
Width: 557
Flags: W
LayerCount: 2
Fore
SplineSet
268 125 m 1,0,-1
 533 125 l 1,1,-1
 533 0 l 1,2,-1
 31 0 l 1,3,-1
 31 125 l 1,4,-1
 109 125 l 1,5,-1
 109 314 l 1,6,-1
 31 314 l 1,7,-1
 31 378 l 1,8,-1
 109 378 l 1,9,-1
 109 476 l 2,10,11
 109 586 109 586 169 646.5 c 128,-1,12
 229 707 229 707 339 707 c 0,13,14
 399 707 399 707 452.5 684.5 c 128,-1,15
 506 662 506 662 547 620 c 1,16,-1
 487 500 l 1,17,18
 421 569 421 569 356 569 c 0,19,20
 313 569 313 569 290.5 545 c 128,-1,21
 268 521 268 521 268 473 c 2,22,-1
 268 378 l 1,23,-1
 438 378 l 1,24,-1
 438 314 l 1,25,-1
 268 314 l 1,26,-1
 268 125 l 1,0,-1
EndSplineSet
EndChar

StartChar: currency
Encoding: 164 164 103
Width: 705
Flags: W
LayerCount: 2
Fore
SplineSet
576 183 m 1,1,-1
 677 82 l 1,2,-1
 590 -8 l 1,3,-1
 485 97 l 1,4,5
 423 62 423 62 352 62 c 256,6,7
 281 62 281 62 219 97 c 1,8,-1
 114 -8 l 1,9,-1
 28 82 l 1,10,-1
 129 184 l 1,11,12
 89 248 89 248 89 321 c 0,13,14
 89 391 89 391 126 454 c 1,15,-1
 28 553 l 1,16,-1
 114 643 l 1,17,-1
 215 542 l 1,18,19
 277 581 277 581 352 581 c 256,20,21
 427 581 427 581 490 543 c 1,22,-1
 590 643 l 1,23,-1
 677 553 l 1,24,-1
 578 454 l 1,25,26
 616 392 616 392 616 321 c 0,27,0
 616 247 616 247 576 183 c 1,1,-1
424 205 m 128,-1,29
 457 223 457 223 476.5 254 c 128,-1,30
 496 285 496 285 496 321 c 256,31,32
 496 357 496 357 476.5 388 c 128,-1,33
 457 419 457 419 424 437.5 c 128,-1,34
 391 456 391 456 352 456 c 256,35,36
 313 456 313 456 280.5 438 c 128,-1,37
 248 420 248 420 229 388.5 c 128,-1,38
 210 357 210 357 210 321 c 256,39,40
 210 285 210 285 229 254 c 128,-1,41
 248 223 248 223 280.5 205 c 128,-1,42
 313 187 313 187 352 187 c 256,43,28
 391 187 391 187 424 205 c 128,-1,29
EndSplineSet
EndChar

StartChar: yen
Encoding: 165 165 104
Width: 672
Flags: W
LayerCount: 2
Fore
SplineSet
672 700 m 1,0,-1
 466 317 l 1,1,-1
 611 317 l 1,2,-1
 611 253 l 1,3,-1
 431 253 l 1,4,-1
 417 226 l 1,5,-1
 417 199 l 1,6,-1
 611 199 l 1,7,-1
 611 135 l 1,8,-1
 417 135 l 1,9,-1
 417 0 l 1,10,-1
 259 0 l 1,11,-1
 259 135 l 1,12,-1
 65 135 l 1,13,-1
 65 199 l 1,14,-1
 259 199 l 1,15,-1
 259 222 l 1,16,-1
 242 253 l 1,17,-1
 65 253 l 1,18,-1
 65 317 l 1,19,-1
 207 317 l 1,20,-1
 0 700 l 1,21,-1
 158 700 l 1,22,-1
 338 386 l 1,23,-1
 513 700 l 1,24,-1
 672 700 l 1,0,-1
EndSplineSet
EndChar

StartChar: brokenbar
Encoding: 166 166 105
Width: 289
Flags: W
LayerCount: 2
Fore
SplineSet
87 805 m 1,0,-1
 202 805 l 1,1,-1
 202 461 l 1,2,-1
 87 461 l 1,3,-1
 87 805 l 1,0,-1
87 232 m 1,4,-1
 202 232 l 1,5,-1
 202 -111 l 1,6,-1
 87 -111 l 1,7,-1
 87 232 l 1,4,-1
EndSplineSet
EndChar

StartChar: section
Encoding: 167 167 106
Width: 530
Flags: W
LayerCount: 2
Fore
SplineSet
276 589 m 0,1,2
 242 589 242 589 221.5 577 c 128,-1,3
 201 565 201 565 201 545 c 0,4,5
 201 520 201 520 228 505 c 128,-1,6
 255 490 255 490 314 472 c 256,7,8
 373 454 373 454 410.5 437 c 128,-1,9
 448 420 448 420 475.5 388.5 c 128,-1,10
 503 357 503 357 503 307 c 0,11,12
 503 264 503 264 474.5 228 c 128,-1,13
 446 192 446 192 401 175 c 1,14,15
 439 155 439 155 456 131.5 c 128,-1,16
 473 108 473 108 473 70 c 0,17,18
 473 25 473 25 446 -11 c 128,-1,19
 419 -47 419 -47 369.5 -67 c 128,-1,20
 320 -87 320 -87 255 -87 c 0,21,22
 191 -87 191 -87 129 -67 c 128,-1,23
 67 -47 67 -47 18 -10 c 1,24,-1
 62 88 l 1,25,26
 109 55 109 55 157.5 37.5 c 128,-1,27
 206 20 206 20 251 20 c 0,28,29
 288 20 288 20 310 33 c 128,-1,30
 332 46 332 46 332 66 c 0,31,32
 332 90 332 90 306 104.5 c 128,-1,33
 280 119 280 119 223 137 c 0,34,35
 164 156 164 156 126.5 173 c 128,-1,36
 89 190 89 190 62 221.5 c 128,-1,37
 35 253 35 253 35 302 c 0,38,39
 35 348 35 348 64 381.5 c 128,-1,40
 93 415 93 415 146 433 c 1,41,42
 100 455 100 455 82 479 c 128,-1,43
 64 503 64 503 64 538 c 0,44,45
 64 583 64 583 90 618.5 c 128,-1,46
 116 654 116 654 164 674 c 128,-1,47
 212 694 212 694 275 694 c 0,48,49
 386 694 386 694 486 635 c 1,50,-1
 439 537 l 1,51,0
 341 589 341 589 276 589 c 0,1,2
193 346.5 m 128,-1,53
 172 334 172 334 172 312 c 0,54,55
 172 285 172 285 203.5 267.5 c 128,-1,56
 235 250 235 250 281 250 c 0,57,58
 320 250 320 250 341.5 263 c 128,-1,59
 363 276 363 276 363 298 c 0,60,61
 363 325 363 325 331.5 342 c 128,-1,62
 300 359 300 359 253 359 c 0,63,52
 214 359 214 359 193 346.5 c 128,-1,53
EndSplineSet
EndChar

StartChar: copyright
Encoding: 169 169 108
Width: 732
Flags: W
LayerCount: 2
Fore
SplineSet
536.5 643.5 m 128,-1,1
 614 598 614 598 659 520 c 128,-1,2
 704 442 704 442 704 350 c 0,3,4
 704 259 704 259 659 180.5 c 128,-1,5
 614 102 614 102 536 55.5 c 128,-1,6
 458 9 458 9 364 9 c 0,7,8
 271 9 271 9 193.5 55 c 128,-1,9
 116 101 116 101 71.5 179 c 128,-1,10
 27 257 27 257 27 348 c 256,11,12
 27 439 27 439 72 517.5 c 128,-1,13
 117 596 117 596 194.5 642.5 c 128,-1,14
 272 689 272 689 366 689 c 0,15,0
 459 689 459 689 536.5 643.5 c 128,-1,1
231 578 m 128,-1,17
 170 542 170 542 134.5 481 c 128,-1,18
 99 420 99 420 99 348 c 256,19,20
 99 276 99 276 134 215.5 c 128,-1,21
 169 155 169 155 229.5 119.5 c 128,-1,22
 290 84 290 84 364 84 c 256,23,24
 438 84 438 84 499.5 120 c 128,-1,25
 561 156 561 156 596.5 217 c 128,-1,26
 632 278 632 278 632 350 c 256,27,28
 632 422 632 422 597 482.5 c 128,-1,29
 562 543 562 543 501 578.5 c 128,-1,30
 440 614 440 614 366 614 c 256,31,16
 292 614 292 614 231 578 c 128,-1,17
419 439.5 m 128,-1,33
 396 451 396 451 373 451 c 0,34,35
 330 451 330 451 301 422 c 128,-1,36
 272 393 272 393 272 350 c 256,37,38
 272 307 272 307 301 277.5 c 128,-1,39
 330 248 330 248 373 248 c 0,40,41
 395 248 395 248 418.5 258.5 c 128,-1,42
 442 269 442 269 460 287 c 1,43,-1
 504 239 l 1,44,45
 478 212 478 212 441.5 196 c 128,-1,46
 405 180 405 180 369 180 c 0,47,48
 320 180 320 180 280.5 202 c 128,-1,49
 241 224 241 224 218 263 c 128,-1,50
 195 302 195 302 195 349 c 256,51,52
 195 396 195 396 218.5 434 c 128,-1,53
 242 472 242 472 282.5 494 c 128,-1,54
 323 516 323 516 372 516 c 0,55,56
 408 516 408 516 443 501.5 c 128,-1,57
 478 487 478 487 504 461 c 1,58,-1
 460 408 l 1,59,32
 442 428 442 428 419 439.5 c 128,-1,33
EndSplineSet
EndChar

StartChar: ordfeminine
Encoding: 170 170 109
Width: 390
Flags: W
LayerCount: 2
Fore
SplineSet
245 458 m 1,0,-1
 245 502 l 1,1,2
 210 453 210 453 137 453 c 0,3,4
 85 453 85 453 55 480.5 c 128,-1,5
 25 508 25 508 25 553 c 256,6,7
 25 598 25 598 58.5 622.5 c 128,-1,8
 92 647 92 647 154 647 c 2,9,-1
 244 647 l 1,10,-1
 244 654 l 2,11,12
 244 678 244 678 227 690.5 c 128,-1,13
 210 703 210 703 177 703 c 0,14,15
 130 703 130 703 71 678 c 1,16,-1
 46 749 l 1,17,18
 130 783 130 783 202 783 c 0,19,20
 271 783 271 783 310 752.5 c 128,-1,21
 349 722 349 722 348 667 c 2,22,-1
 349 458 l 1,23,-1
 245 458 l 1,0,-1
244 560 m 1,25,-1
 244 596 l 1,26,-1
 176 596 l 2,27,28
 125 596 125 596 125 561 c 0,29,30
 125 543 125 543 138 532.5 c 128,-1,31
 151 522 151 522 173 522 c 0,32,24
 221 522 221 522 244 560 c 1,25,-1
EndSplineSet
EndChar

StartChar: logicalnot
Encoding: 172 172 111
Width: 573
Flags: W
LayerCount: 2
Fore
SplineSet
505 421 m 1,0,-1
 505 139 l 1,1,-1
 394 139 l 1,2,-1
 394 319 l 1,3,-1
 33 319 l 1,4,-1
 33 421 l 1,5,-1
 505 421 l 1,0,-1
EndSplineSet
EndChar

StartChar: uni00AD
Encoding: 173 173 112
Width: 372
Flags: W
LayerCount: 2
Fore
SplineSet
57 357 m 1,0,-1
 315 357 l 1,1,-1
 315 255 l 1,2,-1
 57 255 l 1,3,-1
 57 357 l 1,0,-1
EndSplineSet
EndChar

StartChar: registered
Encoding: 174 174 113
Width: 732
Flags: W
LayerCount: 2
Fore
SplineSet
536.5 643.5 m 128,-1,1
 614 598 614 598 659 520 c 128,-1,2
 704 442 704 442 704 350 c 0,3,4
 704 259 704 259 659 180.5 c 128,-1,5
 614 102 614 102 536 55.5 c 128,-1,6
 458 9 458 9 364 9 c 0,7,8
 271 9 271 9 193.5 55 c 128,-1,9
 116 101 116 101 71.5 179 c 128,-1,10
 27 257 27 257 27 348 c 256,11,12
 27 439 27 439 72 517.5 c 128,-1,13
 117 596 117 596 194.5 642.5 c 128,-1,14
 272 689 272 689 366 689 c 0,15,0
 459 689 459 689 536.5 643.5 c 128,-1,1
499.5 120 m 128,-1,17
 561 156 561 156 596.5 217 c 128,-1,18
 632 278 632 278 632 350 c 256,19,20
 632 422 632 422 597 482.5 c 128,-1,21
 562 543 562 543 501 578.5 c 128,-1,22
 440 614 440 614 366 614 c 256,23,24
 292 614 292 614 231 578 c 128,-1,25
 170 542 170 542 134.5 481 c 128,-1,26
 99 420 99 420 99 348 c 256,27,28
 99 276 99 276 134 215.5 c 128,-1,29
 169 155 169 155 229.5 119.5 c 128,-1,30
 290 84 290 84 364 84 c 256,31,16
 438 84 438 84 499.5 120 c 128,-1,17
493 345.5 m 128,-1,33
 477 319 477 319 447 305 c 1,34,-1
 518 197 l 1,35,-1
 435 197 l 1,36,-1
 383 291 l 1,37,-1
 375 291 l 1,38,-1
 309 291 l 1,39,-1
 309 197 l 1,40,-1
 237 197 l 1,41,-1
 237 522 l 1,42,-1
 375 522 l 2,43,44
 439 522 439 522 474 492.5 c 128,-1,45
 509 463 509 463 509 410 c 0,46,32
 509 372 509 372 493 345.5 c 128,-1,33
309 349 m 1,47,-1
 375 349 l 2,48,49
 406 349 406 349 423 364 c 128,-1,50
 440 379 440 379 440 407 c 256,51,52
 440 435 440 435 423 449.5 c 128,-1,53
 406 464 406 464 375 464 c 2,54,-1
 309 464 l 1,55,-1
 309 349 l 1,47,-1
EndSplineSet
EndChar

StartChar: degree
Encoding: 176 176 115
Width: 365
Flags: W
LayerCount: 2
Fore
SplineSet
284 780.5 m 128,-1,1
 319 746 319 746 319 698 c 256,2,3
 319 650 319 650 284 615.5 c 128,-1,4
 249 581 249 581 200 581 c 0,5,6
 152 581 152 581 117.5 615.5 c 128,-1,7
 83 650 83 650 83 698 c 256,8,9
 83 746 83 746 117.5 780.5 c 128,-1,10
 152 815 152 815 200 815 c 0,11,0
 249 815 249 815 284 780.5 c 128,-1,1
160.5 736 m 128,-1,13
 144 720 144 720 144 698 c 256,14,15
 144 676 144 676 160.5 660 c 128,-1,16
 177 644 177 644 200 644 c 0,17,18
 224 644 224 644 241 660 c 128,-1,19
 258 676 258 676 258 698 c 256,20,21
 258 720 258 720 241 736 c 128,-1,22
 224 752 224 752 200 752 c 0,23,12
 177 752 177 752 160.5 736 c 128,-1,13
EndSplineSet
EndChar

StartChar: plusminus
Encoding: 177 177 116
Width: 506
Flags: W
LayerCount: 2
Fore
SplineSet
302 448 m 1,0,-1
 473 448 l 1,1,-1
 473 349 l 1,2,-1
 302 349 l 1,3,-1
 302 186 l 1,4,-1
 204 186 l 1,5,-1
 204 349 l 1,6,-1
 33 349 l 1,7,-1
 33 448 l 1,8,-1
 204 448 l 1,9,-1
 204 612 l 1,10,-1
 302 612 l 1,11,-1
 302 448 l 1,0,-1
33 6 m 1,12,-1
 33 108 l 1,13,-1
 473 108 l 1,14,-1
 473 6 l 1,15,-1
 33 6 l 1,12,-1
EndSplineSet
EndChar

StartChar: paragraph
Encoding: 182 182 121
Width: 639
Flags: W
LayerCount: 2
Fore
SplineSet
193 333 m 2,0,1
 120 333 120 333 76 364.5 c 128,-1,2
 32 396 32 396 14 441.5 c 128,-1,3
 -4 487 -4 487 -4 533 c 0,4,5
 -4 589 -4 589 20.5 636.5 c 128,-1,6
 45 684 45 684 98.5 713 c 128,-1,7
 152 742 152 742 233 742 c 2,8,-1
 561 742 l 1,9,-1
 561 -107 l 1,10,-1
 446 -107 l 1,11,-1
 446 651 l 1,12,-1
 336 651 l 1,13,-1
 336 -107 l 1,14,-1
 221 -107 l 1,15,-1
 221 333 l 1,16,-1
 193 333 l 2,0,1
EndSplineSet
EndChar

StartChar: ordmasculine
Encoding: 186 186 125
Width: 411
Flags: W
LayerCount: 2
Fore
SplineSet
337 738 m 128,-1,1
 387 693 387 693 387 619 c 256,2,3
 387 545 387 545 337 500 c 128,-1,4
 287 455 287 455 205 455 c 256,5,6
 123 455 123 455 73.5 500 c 128,-1,7
 24 545 24 545 24 619 c 256,8,9
 24 693 24 693 73.5 738 c 128,-1,10
 123 783 123 783 205 783 c 256,11,0
 287 783 287 783 337 738 c 128,-1,1
151 675.5 m 128,-1,13
 130 653 130 653 130 617 c 256,14,15
 130 581 130 581 151 559 c 128,-1,16
 172 537 172 537 205 537 c 0,17,18
 239 537 239 537 259.5 559 c 128,-1,19
 280 581 280 581 280 617 c 0,20,21
 280 654 280 654 259.5 676 c 128,-1,22
 239 698 239 698 205 698 c 0,23,12
 172 698 172 698 151 675.5 c 128,-1,13
EndSplineSet
EndChar

StartChar: questiondown
Encoding: 191 191 130
Width: 462
Flags: W
LayerCount: 2
Fore
SplineSet
186.5 409 m 128,-1,1
 165 431 165 431 165 466 c 256,2,3
 165 501 165 501 186.5 523.5 c 128,-1,4
 208 546 208 546 242 546 c 0,5,6
 275 546 275 546 297 523 c 128,-1,7
 319 500 319 500 319 466 c 0,8,9
 319 431 319 431 297 409 c 128,-1,10
 275 387 275 387 242 387 c 0,11,0
 208 387 208 387 186.5 409 c 128,-1,1
380 -106 m 128,-1,13
 321 -164 321 -164 219 -164 c 0,14,15
 121 -164 121 -164 64.5 -119 c 128,-1,16
 8 -74 8 -74 8 9 c 0,17,18
 8 47 8 47 21 76 c 128,-1,19
 34 105 34 105 52.5 125 c 128,-1,20
 71 145 71 145 102 172 c 0,21,22
 143 208 143 208 162.5 235 c 128,-1,23
 182 262 182 262 182 301 c 1,24,-1
 297 301 l 1,25,26
 297 261 297 261 285.5 231.5 c 128,-1,27
 274 202 274 202 257.5 182.5 c 128,-1,28
 241 163 241 163 214 137 c 0,29,30
 182 108 182 108 167 86.5 c 128,-1,31
 152 65 152 65 152 33 c 0,32,33
 152 -2 152 -2 173 -19.5 c 128,-1,34
 194 -37 194 -37 232 -37 c 0,35,36
 318 -37 318 -37 321 57 c 1,37,-1
 440 56 l 1,38,12
 439 -48 439 -48 380 -106 c 128,-1,13
EndSplineSet
Substitution2: "<3,3> Small Caps in Latin lookup 11 subtable" questiondown.sc
EndChar

StartChar: AE
Encoding: 198 198 137
Width: 1085
Flags: W
LayerCount: 2
Fore
SplineSet
652 132 m 1,0,-1
 1038 132 l 1,1,-1
 1038 0 l 1,2,-1
 495 0 l 1,3,-1
 495 154 l 1,4,-1
 245 154 l 1,5,-1
 162 0 l 1,6,-1
 -3 0 l 1,7,-1
 398 700 l 1,8,-1
 1027 700 l 1,9,-1
 1027 569 l 1,10,-1
 652 569 l 1,11,-1
 652 417 l 1,12,-1
 990 417 l 1,13,-1
 990 286 l 1,14,-1
 652 286 l 1,15,-1
 652 132 l 1,0,-1
310 274 m 1,16,-1
 495 274 l 1,17,-1
 495 574 l 1,18,-1
 473 574 l 1,19,-1
 310 274 l 1,16,-1
EndSplineSet
EndChar

StartChar: Ccedilla
Encoding: 199 199 138
Width: 694
Flags: W
LayerCount: 2
Fore
SplineSet
563 31.5 m 128,-1,1
 498 -1 498 -1 430 -9 c 1,2,-1
 413 -54 l 1,3,4
 455 -63 455 -63 475 -84.5 c 128,-1,5
 495 -106 495 -106 495 -135 c 0,6,7
 495 -181 495 -181 460 -205 c 128,-1,8
 425 -229 425 -229 372 -229 c 0,9,10
 321 -229 321 -229 267 -208 c 1,11,-1
 293 -133 l 1,12,13
 320 -143 320 -143 347 -143 c 0,14,15
 365 -143 365 -143 376.5 -136.5 c 128,-1,16
 388 -130 388 -130 388 -121 c 0,17,18
 388 -109 388 -109 374 -102.5 c 128,-1,19
 360 -96 360 -96 336 -96 c 2,20,-1
 309 -96 l 1,21,-1
 338 -7 l 1,22,23
 248 5 248 5 177.5 55 c 128,-1,24
 107 105 107 105 67 182.5 c 128,-1,25
 27 260 27 260 27 352 c 0,26,27
 27 453 27 453 76 535 c 128,-1,28
 125 617 125 617 210.5 664 c 128,-1,29
 296 711 296 711 400 711 c 0,30,31
 476 711 476 711 550 679.5 c 128,-1,32
 624 648 624 648 676 594 c 1,33,-1
 584 481 l 1,34,35
 548 524 548 524 499.5 548.5 c 128,-1,36
 451 573 451 573 402 573 c 0,37,38
 343 573 343 573 294 544 c 128,-1,39
 245 515 245 515 217 465 c 128,-1,40
 189 415 189 415 189 354 c 256,41,42
 189 293 189 293 217 242.5 c 128,-1,43
 245 192 245 192 294 162.5 c 128,-1,44
 343 133 343 133 402 133 c 0,45,46
 449 133 449 133 497.5 155.5 c 128,-1,47
 546 178 546 178 584 216 c 1,48,-1
 677 115 l 1,49,0
 628 64 628 64 563 31.5 c 128,-1,1
EndSplineSet
EndChar

StartChar: multiply
Encoding: 215 215 154
Width: 506
Flags: W
LayerCount: 2
Fore
SplineSet
443 446 m 1,0,-1
 324 326 l 1,1,-1
 443 206 l 1,2,-1
 373 134 l 1,3,-1
 253 255 l 1,4,-1
 133 134 l 1,5,-1
 63 206 l 1,6,-1
 182 326 l 1,7,-1
 63 446 l 1,8,-1
 133 518 l 1,9,-1
 253 397 l 1,10,-1
 373 518 l 1,11,-1
 443 446 l 1,0,-1
EndSplineSet
EndChar

StartChar: Oslash
Encoding: 216 216 155
Width: 806
Flags: W
LayerCount: 2
Fore
SplineSet
741 508.5 m 128,-1,1
 779 435 779 435 779 349 c 0,2,3
 779 249 779 249 729.5 167 c 128,-1,4
 680 85 680 85 594 38 c 128,-1,5
 508 -9 508 -9 403 -9 c 0,6,7
 321 -9 321 -9 248 21 c 1,8,-1
 199 -55 l 1,9,-1
 90 -55 l 1,10,-1
 167 66 l 1,11,12
 101 116 101 116 64 189.5 c 128,-1,13
 27 263 27 263 27 349 c 0,14,15
 27 449 27 449 76 530 c 128,-1,16
 125 611 125 611 211 657 c 128,-1,17
 297 703 297 703 403 703 c 0,18,19
 483 703 483 703 556 675 c 1,20,-1
 607 755 l 1,21,-1
 716 755 l 1,22,-1
 637 630 l 1,23,0
 703 582 703 582 741 508.5 c 128,-1,1
205 265 m 128,-1,25
 221 226 221 226 250 196 c 1,26,-1
 478 552 l 1,27,28
 445 565 445 565 405 565 c 0,29,30
 347 565 347 565 297 536.5 c 128,-1,31
 247 508 247 508 218 458.5 c 128,-1,32
 189 409 189 409 189 348 c 0,33,24
 189 304 189 304 205 265 c 128,-1,25
511.5 158 m 128,-1,35
 560 187 560 187 588.5 237.5 c 128,-1,36
 617 288 617 288 617 348 c 0,37,38
 617 393 617 393 600.5 433 c 128,-1,39
 584 473 584 473 555 503 c 1,40,-1
 326 144 l 1,41,42
 363 129 363 129 405 129 c 0,43,34
 463 129 463 129 511.5 158 c 128,-1,35
EndSplineSet
EndChar

StartChar: Thorn
Encoding: 222 222 161
Width: 685
Flags: W
LayerCount: 2
Fore
SplineSet
583.5 543 m 128,-1,1
 662 480 662 480 662 367 c 0,2,3
 662 248 662 248 583.5 181.5 c 128,-1,4
 505 115 505 115 366 115 c 2,5,-1
 235 115 l 1,6,-1
 235 0 l 1,7,-1
 77 0 l 1,8,-1
 77 700 l 1,9,-1
 235 700 l 1,10,-1
 235 606 l 1,11,-1
 366 606 l 2,12,0
 505 606 505 606 583.5 543 c 128,-1,1
464 272 m 128,-1,14
 500 303 500 303 500 362 c 0,15,16
 500 419 500 419 464 449.5 c 128,-1,17
 428 480 428 480 359 480 c 2,18,-1
 235 480 l 1,19,-1
 235 241 l 1,20,-1
 359 241 l 2,21,13
 428 241 428 241 464 272 c 128,-1,14
EndSplineSet
EndChar

StartChar: germandbls
Encoding: 223 223 162
Width: 660
Flags: W
LayerCount: 2
Fore
SplineSet
97 627.5 m 128,-1,1
 129 686 129 686 189 717.5 c 128,-1,2
 249 749 249 749 330 749 c 0,3,4
 404 749 404 749 460.5 724.5 c 128,-1,5
 517 700 517 700 548.5 655 c 128,-1,6
 580 610 580 610 580 551 c 0,7,8
 580 497 580 497 552 451 c 128,-1,9
 524 405 524 405 477 383 c 1,10,11
 543 366 543 366 582.5 321.5 c 128,-1,12
 622 277 622 277 622 213 c 0,13,14
 622 150 622 150 588.5 102 c 128,-1,15
 555 54 555 54 493 27 c 128,-1,16
 431 0 431 0 349 0 c 2,17,-1
 299 0 l 1,18,-1
 299 114 l 1,19,-1
 346 114 l 2,20,21
 405 114 405 114 438.5 141 c 128,-1,22
 472 168 472 168 472 213 c 0,23,24
 472 260 472 260 434.5 285 c 128,-1,25
 397 310 397 310 330 310 c 2,26,-1
 313 310 l 1,27,-1
 313 423 l 1,28,29
 369 423 369 423 400 450.5 c 128,-1,30
 431 478 431 478 431 528 c 0,31,32
 431 576 431 576 404 602.5 c 128,-1,33
 377 629 377 629 330 629 c 0,34,35
 277 629 277 629 247.5 595.5 c 128,-1,36
 218 562 218 562 218 502 c 2,37,-1
 218 0 l 1,38,-1
 65 0 l 1,39,-1
 65 491 l 2,40,0
 65 569 65 569 97 627.5 c 128,-1,1
EndSplineSet
Substitution2: "<3,3> Small Caps in Latin lookup 11 subtable" germandbls.sc
EndChar

StartChar: ae
Encoding: 230 230 169
Width: 969
Flags: W
LayerCount: 2
Fore
SplineSet
589 145.5 m 128,-1,1
 630 114 630 114 684 114 c 0,2,3
 723 114 723 114 758 129 c 128,-1,4
 793 144 793 144 821 172 c 1,5,-1
 902 88 l 1,6,7
 860 42 860 42 801.5 18 c 128,-1,8
 743 -6 743 -6 672 -6 c 0,9,10
 595 -6 595 -6 537.5 24.5 c 128,-1,11
 480 55 480 55 448 111 c 1,12,13
 416 53 416 53 359.5 23 c 128,-1,14
 303 -7 303 -7 225 -7 c 0,15,16
 137 -7 137 -7 84.5 38 c 128,-1,17
 32 83 32 83 32 158 c 256,18,19
 32 233 32 233 85 273 c 128,-1,20
 138 313 138 313 238 314 c 2,21,-1
 387 314 l 1,22,-1
 387 337 l 2,23,24
 385 378 385 378 356 400.5 c 128,-1,25
 327 423 327 423 274 423 c 0,26,27
 236 423 236 423 191 411 c 128,-1,28
 146 399 146 399 101 376 c 1,29,-1
 65 484 l 1,30,31
 194 544 194 544 308 544 c 0,32,33
 369 544 369 544 415.5 527 c 128,-1,34
 462 510 462 510 491 478 c 1,35,36
 558 543 558 543 667 543 c 0,37,38
 753 543 753 543 816.5 505 c 128,-1,39
 880 467 880 467 912.5 397 c 128,-1,40
 945 327 945 327 941 234 c 1,41,-1
 544 234 l 1,42,-1
 544 223 l 1,43,0
 548 177 548 177 589 145.5 c 128,-1,1
754 400.5 m 128,-1,45
 721 435 721 435 669 435 c 0,46,47
 618 435 618 435 584 401 c 128,-1,48
 550 367 550 367 542 312 c 1,49,-1
 788 312 l 1,50,44
 787 366 787 366 754 400.5 c 128,-1,45
200 220 m 128,-1,52
 176 203 176 203 176 171 c 0,53,54
 176 137 176 137 199 117 c 128,-1,55
 222 97 222 97 261 97 c 0,56,57
 347 97 347 97 388 171 c 1,58,-1
 387 237 l 1,59,-1
 269 237 l 2,60,51
 224 237 224 237 200 220 c 128,-1,52
EndSplineSet
Substitution2: "<3,3> Small Caps in Latin lookup 11 subtable" ae.sc
EndChar

StartChar: ccedilla
Encoding: 231 231 170
Width: 563
Flags: W
LayerCount: 2
Fore
SplineSet
461 33.5 m 128,-1,1
 410 3 410 3 344 -4 c 1,2,-1
 325 -54 l 1,3,4
 367 -63 367 -63 387 -84.5 c 128,-1,5
 407 -106 407 -106 407 -135 c 0,6,7
 407 -181 407 -181 372 -205 c 128,-1,8
 337 -229 337 -229 284 -229 c 0,9,10
 233 -229 233 -229 179 -208 c 1,11,-1
 205 -133 l 1,12,13
 232 -143 232 -143 259 -143 c 0,14,15
 277 -143 277 -143 288.5 -136.5 c 128,-1,16
 300 -130 300 -130 300 -121 c 0,17,18
 300 -109 300 -109 286 -102.5 c 128,-1,19
 272 -96 272 -96 248 -96 c 2,20,-1
 221 -96 l 1,21,-1
 251 -2 l 1,22,23
 149 13 149 13 88.5 86 c 128,-1,24
 28 159 28 159 28 267 c 0,25,26
 28 349 28 349 62.5 411.5 c 128,-1,27
 97 474 97 474 159.5 508.5 c 128,-1,28
 222 543 222 543 304 543 c 0,29,30
 381 543 381 543 441 513.5 c 128,-1,31
 501 484 501 484 537 430 c 1,32,-1
 433 355 l 1,33,34
 387 412 387 412 313 412 c 0,35,36
 255 412 255 412 218.5 372.5 c 128,-1,37
 182 333 182 333 182 268 c 256,38,39
 182 203 182 203 218 162.5 c 128,-1,40
 254 122 254 122 310 122 c 0,41,42
 394 122 394 122 435 185 c 1,43,-1
 541 113 l 1,44,0
 512 64 512 64 461 33.5 c 128,-1,1
EndSplineSet
Substitution2: "<3,3> Small Caps in Latin lookup 11 subtable" ccedilla.sc
EndChar

StartChar: eth
Encoding: 240 240 179
Width: 600
Flags: W
LayerCount: 2
Fore
SplineSet
531.5 457.5 m 128,-1,1
 572 370 572 370 572 279 c 0,2,3
 572 193 572 193 536.5 128 c 128,-1,4
 501 63 501 63 435.5 28 c 128,-1,5
 370 -7 370 -7 283 -7 c 0,6,7
 206 -7 206 -7 147.5 21.5 c 128,-1,8
 89 50 89 50 57.5 102.5 c 128,-1,9
 26 155 26 155 26 225 c 0,10,11
 26 325 26 325 87.5 385 c 128,-1,12
 149 445 149 445 253 445 c 0,13,14
 305 445 305 445 350.5 427 c 128,-1,15
 396 409 396 409 420 379 c 1,16,17
 414 427 414 427 384 474 c 128,-1,18
 354 521 354 521 305 563 c 1,19,-1
 128 482 l 1,20,-1
 96 548 l 1,21,-1
 239 614 l 1,22,23
 179 653 179 653 109 682 c 1,24,-1
 212 749 l 1,25,26
 292 716 292 716 356 668 c 1,27,-1
 496 732 l 1,28,-1
 528 666 l 1,29,-1
 418 616 l 1,30,0
 491 545 491 545 531.5 457.5 c 128,-1,1
376 154 m 128,-1,32
 408 183 408 183 408 231 c 256,33,34
 408 279 408 279 376 308.5 c 128,-1,35
 344 338 344 338 290 338 c 0,36,37
 237 338 237 338 205 309.5 c 128,-1,38
 173 281 173 281 173 233 c 0,39,40
 173 184 173 184 205 154.5 c 128,-1,41
 237 125 237 125 290 125 c 0,42,31
 344 125 344 125 376 154 c 128,-1,32
EndSplineSet
Substitution2: "<3,3> Small Caps in Latin lookup 11 subtable" eth.sc
EndChar

StartChar: divide
Encoding: 247 247 186
Width: 506
Flags: W
LayerCount: 2
Fore
SplineSet
304.5 563.5 m 128,-1,1
 325 543 325 543 325 510 c 256,2,3
 325 477 325 477 304.5 456 c 128,-1,4
 284 435 284 435 252 435 c 0,5,6
 221 435 221 435 200.5 456 c 128,-1,7
 180 477 180 477 180 510 c 256,8,9
 180 543 180 543 200.5 563.5 c 128,-1,10
 221 584 221 584 252 584 c 0,11,0
 284 584 284 584 304.5 563.5 c 128,-1,1
33 377 m 1,12,-1
 473 377 l 1,13,-1
 473 275 l 1,14,-1
 33 275 l 1,15,-1
 33 377 l 1,12,-1
304.5 206.5 m 128,-1,17
 325 186 325 186 325 153 c 256,18,19
 325 120 325 120 304.5 99 c 128,-1,20
 284 78 284 78 252 78 c 0,21,22
 221 78 221 78 200.5 99 c 128,-1,23
 180 120 180 120 180 153 c 256,24,25
 180 186 180 186 200.5 206.5 c 128,-1,26
 221 227 221 227 252 227 c 0,27,16
 284 227 284 227 304.5 206.5 c 128,-1,17
EndSplineSet
EndChar

StartChar: oslash
Encoding: 248 248 187
Width: 633
Flags: W
LayerCount: 2
Fore
SplineSet
579.5 392.5 m 128,-1,1
 605 337 605 337 605 269 c 0,2,3
 605 188 605 188 569 125.5 c 128,-1,4
 533 63 533 63 467.5 28.5 c 128,-1,5
 402 -6 402 -6 317 -6 c 0,6,7
 245 -6 245 -6 189 18 c 1,8,-1
 116 -89 l 1,9,-1
 32 -89 l 1,10,-1
 128 52 l 1,11,12
 80 89 80 89 54 144.5 c 128,-1,13
 28 200 28 200 28 269 c 0,14,15
 28 351 28 351 64 413 c 128,-1,16
 100 475 100 475 165.5 509 c 128,-1,17
 231 543 231 543 317 543 c 0,18,19
 389 543 389 543 446 519 c 1,20,-1
 520 627 l 1,21,-1
 604 627 l 1,22,-1
 507 484 l 1,23,0
 554 448 554 448 579.5 392.5 c 128,-1,1
203 162 m 1,25,-1
 376 416 l 1,26,27
 351 428 351 428 317 428 c 0,28,29
 252 428 252 428 212.5 384 c 128,-1,30
 173 340 173 340 173 267 c 0,31,24
 173 206 173 206 203 162 c 1,25,-1
421 150.5 m 128,-1,33
 461 195 461 195 461 267 c 0,34,35
 461 330 461 330 430 372 c 1,36,-1
 257 118 l 1,37,38
 284 106 284 106 317 106 c 0,39,32
 381 106 381 106 421 150.5 c 128,-1,33
EndSplineSet
Substitution2: "<3,3> Small Caps in Latin lookup 11 subtable" oslash.sc
EndChar

StartChar: thorn
Encoding: 254 254 193
Width: 684
Flags: W
LayerCount: 2
Fore
SplineSet
305 522 m 128,-1,1
 348 543 348 543 403 543 c 0,2,3
 478 543 478 543 535.5 508.5 c 128,-1,4
 593 474 593 474 624.5 411 c 128,-1,5
 656 348 656 348 656 266 c 0,6,7
 656 185 656 185 625 123.5 c 128,-1,8
 594 62 594 62 537.5 28 c 128,-1,9
 481 -6 481 -6 406 -6 c 0,10,11
 350 -6 350 -6 306 15.5 c 128,-1,12
 262 37 262 37 233 77 c 1,13,-1
 233 -194 l 1,14,-1
 79 -194 l 1,15,-1
 79 742 l 1,16,-1
 233 742 l 1,17,-1
 233 461 l 1,18,0
 262 501 262 501 305 522 c 128,-1,1
270.5 377.5 m 128,-1,20
 233 336 233 336 233 271 c 0,21,22
 233 204 233 204 270.5 163 c 128,-1,23
 308 122 308 122 367 122 c 256,24,25
 426 122 426 122 463 163.5 c 128,-1,26
 500 205 500 205 500 271 c 0,27,28
 500 336 500 336 463 377.5 c 128,-1,29
 426 419 426 419 367 419 c 256,30,19
 308 419 308 419 270.5 377.5 c 128,-1,20
EndSplineSet
Substitution2: "<3,3> Small Caps in Latin lookup 11 subtable" thorn.sc
EndChar

StartChar: Aogonek
Encoding: 260 260 199
Width: 759
Flags: W
LayerCount: 2
Fore
SplineSet
706 -119 m 1,1,-1
 735 -207 l 1,2,3
 687 -228 687 -228 642 -228 c 0,4,5
 591 -228 591 -228 561.5 -201 c 128,-1,6
 532 -174 532 -174 532 -127 c 0,7,8
 532 -59 532 -59 594 0 c 1,9,-1
 539 136 l 1,10,-1
 215 136 l 1,11,-1
 160 0 l 1,12,-1
 -3 0 l 1,13,-1
 301 700 l 1,14,-1
 464 700 l 1,15,-1
 763 0 l 1,16,-1
 733 0 l 1,17,18
 691 -30 691 -30 671.5 -53.5 c 128,-1,19
 652 -77 652 -77 652 -100 c 0,20,21
 652 -127 652 -127 676 -127 c 0,22,0
 693 -127 693 -127 706 -119 c 1,1,-1
267 263 m 1,23,-1
 488 263 l 1,24,-1
 378 535 l 1,25,-1
 267 263 l 1,23,-1
EndSplineSet
EndChar

StartChar: aogonek
Encoding: 261 261 200
Width: 596
Flags: W
LayerCount: 2
Fore
SplineSet
490 -119 m 1,1,-1
 519 -207 l 1,2,3
 471 -228 471 -228 426 -228 c 0,4,5
 375 -228 375 -228 345.5 -201 c 128,-1,6
 316 -174 316 -174 316 -127 c 0,7,8
 316 -55 316 -55 386 8 c 1,9,-1
 386 63 l 1,10,11
 359 29 359 29 316 11 c 128,-1,12
 273 -7 273 -7 217 -7 c 0,13,14
 132 -7 132 -7 82 39.5 c 128,-1,15
 32 86 32 86 32 161 c 0,16,17
 32 237 32 237 85.5 279.5 c 128,-1,18
 139 322 139 322 237 323 c 2,19,-1
 385 323 l 1,20,-1
 385 333 l 2,21,22
 385 376 385 376 356.5 399.5 c 128,-1,23
 328 423 328 423 273 423 c 0,24,25
 198 423 198 423 113 376 c 1,26,-1
 65 482 l 1,27,28
 129 514 129 514 185 529 c 128,-1,29
 241 544 241 544 308 544 c 0,30,31
 416 544 416 544 475.5 493 c 128,-1,32
 535 442 535 442 536 351 c 2,33,-1
 537 0 l 1,34,-1
 517 0 l 1,35,36
 475 -30 475 -30 455.5 -53.5 c 128,-1,37
 436 -77 436 -77 436 -100 c 0,38,39
 436 -127 436 -127 460 -127 c 0,40,0
 477 -127 477 -127 490 -119 c 1,1,-1
343 126 m 128,-1,42
 378 149 378 149 385 184 c 1,43,-1
 385 232 l 1,44,-1
 264 232 l 2,45,46
 219 232 219 232 197.5 217.5 c 128,-1,47
 176 203 176 203 176 171 c 0,48,49
 176 140 176 140 198.5 121.5 c 128,-1,50
 221 103 221 103 260 103 c 0,51,41
 308 103 308 103 343 126 c 128,-1,42
EndSplineSet
Substitution2: "<3,3> Small Caps in Latin lookup 11 subtable" aogonek.sc
EndChar

StartChar: Dcroat
Encoding: 272 272 211
Width: 769
Flags: W
LayerCount: 2
Fore
SplineSet
565 655.5 m 128,-1,1
 649 611 649 611 695.5 531.5 c 128,-1,2
 742 452 742 452 742 350 c 256,3,4
 742 248 742 248 694.5 168.5 c 128,-1,5
 647 89 647 89 562 44.5 c 128,-1,6
 477 0 477 0 368 0 c 2,7,-1
 77 0 l 1,8,-1
 77 311 l 1,9,-1
 9 311 l 1,10,-1
 9 390 l 1,11,-1
 77 390 l 1,12,-1
 77 700 l 1,13,-1
 373 700 l 2,14,0
 481 700 481 700 565 655.5 c 128,-1,1
481.5 160.5 m 128,-1,16
 528 188 528 188 554.5 237 c 128,-1,17
 581 286 581 286 581 349 c 256,18,19
 581 412 581 412 553.5 462 c 128,-1,20
 526 512 526 512 478 539.5 c 128,-1,21
 430 567 430 567 370 567 c 2,22,-1
 235 567 l 1,23,-1
 235 390 l 1,24,-1
 410 390 l 1,25,-1
 410 311 l 1,26,-1
 235 311 l 1,27,-1
 235 133 l 1,28,-1
 377 133 l 2,29,15
 435 133 435 133 481.5 160.5 c 128,-1,16
EndSplineSet
EndChar

StartChar: dcroat
Encoding: 273 273 212
Width: 684
Flags: W
LayerCount: 2
Fore
SplineSet
672 581 m 1,0,-1
 605 581 l 1,1,-1
 605 0 l 1,2,-1
 452 0 l 1,3,-1
 452 80 l 1,4,5
 422 39 422 39 378 16.5 c 128,-1,6
 334 -6 334 -6 280 -6 c 0,7,8
 206 -6 206 -6 148.5 27 c 128,-1,9
 91 60 91 60 59.5 119.5 c 128,-1,10
 28 179 28 179 28 257 c 0,11,12
 28 333 28 333 59 391.5 c 128,-1,13
 90 450 90 450 146.5 482 c 128,-1,14
 203 514 203 514 276 514 c 0,15,16
 331 514 331 514 376.5 491.5 c 128,-1,17
 422 469 422 469 452 427 c 1,18,-1
 452 581 l 1,19,-1
 267 581 l 1,20,-1
 267 661 l 1,21,-1
 452 661 l 1,22,-1
 452 742 l 1,23,-1
 605 742 l 1,24,-1
 605 661 l 1,25,-1
 672 661 l 1,26,-1
 672 581 l 1,0,-1
414.5 155.5 m 128,-1,28
 452 193 452 193 452 252 c 0,29,30
 452 312 452 312 414.5 349.5 c 128,-1,31
 377 387 377 387 318 387 c 0,32,33
 258 387 258 387 220 349.5 c 128,-1,34
 182 312 182 312 182 252 c 0,35,36
 182 193 182 193 220 155.5 c 128,-1,37
 258 118 258 118 318 118 c 0,38,27
 377 118 377 118 414.5 155.5 c 128,-1,28
EndSplineSet
Substitution2: "<3,3> Small Caps in Latin lookup 11 subtable" dcroat.sc
EndChar

StartChar: Eogonek
Encoding: 280 280 219
Width: 668
Flags: W
LayerCount: 2
Fore
SplineSet
623 -207 m 1,0,1
 575 -228 575 -228 530 -228 c 0,2,3
 479 -228 479 -228 449.5 -201 c 128,-1,4
 420 -174 420 -174 420 -127 c 0,5,6
 420 -59 420 -59 482 0 c 1,7,-1
 77 0 l 1,8,-1
 77 700 l 1,9,-1
 610 700 l 1,10,-1
 610 569 l 1,11,-1
 235 569 l 1,12,-1
 235 417 l 1,13,-1
 572 417 l 1,14,-1
 572 286 l 1,15,-1
 235 286 l 1,16,-1
 235 131 l 1,17,-1
 621 131 l 1,18,-1
 621 0 l 1,19,20
 579 -30 579 -30 559.5 -53.5 c 128,-1,21
 540 -77 540 -77 540 -100 c 0,22,23
 540 -127 540 -127 564 -127 c 0,24,25
 581 -127 581 -127 594 -119 c 1,26,-1
 623 -207 l 1,0,1
EndSplineSet
EndChar

StartChar: eogonek
Encoding: 281 281 220
Width: 597
Flags: W
LayerCount: 2
Fore
SplineSet
502.5 468 m 128,-1,1
 570 393 570 393 570 259 c 0,2,3
 570 235 570 235 569 222 c 1,4,-1
 183 222 l 1,5,6
 196 171 196 171 233 142.5 c 128,-1,7
 270 114 270 114 322 114 c 0,8,9
 360 114 360 114 395 128.5 c 128,-1,10
 430 143 430 143 458 171 c 1,11,-1
 539 89 l 1,12,13
 520 67 520 67 495 50 c 1,14,15
 459 16 459 16 436.5 -25 c 128,-1,16
 414 -66 414 -66 414 -96 c 0,17,18
 414 -127 414 -127 438 -127 c 0,19,20
 454 -127 454 -127 468 -119 c 1,21,-1
 496 -207 l 1,22,23
 448 -228 448 -228 405 -228 c 0,24,25
 355 -228 355 -228 324.5 -200.5 c 128,-1,26
 294 -173 294 -173 294 -121 c 0,27,28
 294 -61 294 -61 343 -5 c 1,29,-1
 309 -6 l 2,30,31
 224 -6 224 -6 160.5 28 c 128,-1,32
 97 62 97 62 62.5 124 c 128,-1,33
 28 186 28 186 28 267 c 0,34,35
 28 349 28 349 63 411.5 c 128,-1,36
 98 474 98 474 161 508.5 c 128,-1,37
 224 543 224 543 305 543 c 0,38,0
 435 543 435 543 502.5 468 c 128,-1,1
425 313 m 1,39,40
 423 366 423 366 391 398 c 128,-1,41
 359 430 359 430 306 430 c 0,42,43
 256 430 256 430 222.5 398.5 c 128,-1,44
 189 367 189 367 180 313 c 1,45,-1
 425 313 l 1,39,40
EndSplineSet
Substitution2: "<3,3> Small Caps in Latin lookup 11 subtable" eogonek.sc
EndChar

StartChar: Hbar
Encoding: 294 294 233
Width: 823
Flags: W
LayerCount: 2
Fore
SplineSet
819 599 m 1,0,-1
 819 519 l 1,1,-1
 728 519 l 1,2,-1
 728 0 l 1,3,-1
 569 0 l 1,4,-1
 569 277 l 1,5,-1
 253 277 l 1,6,-1
 253 0 l 1,7,-1
 94 0 l 1,8,-1
 94 519 l 1,9,-1
 3 519 l 1,10,-1
 3 599 l 1,11,-1
 94 599 l 1,12,-1
 94 700 l 1,13,-1
 253 700 l 1,14,-1
 253 599 l 1,15,-1
 569 599 l 1,16,-1
 569 700 l 1,17,-1
 728 700 l 1,18,-1
 728 599 l 1,19,-1
 819 599 l 1,0,-1
569 408 m 1,20,-1
 569 519 l 1,21,-1
 253 519 l 1,22,-1
 253 408 l 1,23,-1
 569 408 l 1,20,-1
EndSplineSet
EndChar

StartChar: hbar
Encoding: 295 295 234
Width: 675
Flags: W
LayerCount: 2
Fore
SplineSet
563.5 458.5 m 128,-1,1
 617 403 617 403 617 308 c 2,2,-1
 617 0 l 1,3,-1
 463 0 l 1,4,-1
 463 264 l 2,5,6
 463 315 463 315 435 344 c 128,-1,7
 407 373 407 373 357 373 c 0,8,9
 300 373 300 373 266.5 334 c 128,-1,10
 233 295 233 295 233 235 c 2,11,-1
 233 0 l 1,12,-1
 79 0 l 1,13,-1
 79 581 l 1,14,-1
 13 581 l 1,15,-1
 13 661 l 1,16,-1
 79 661 l 1,17,-1
 79 742 l 1,18,-1
 233 742 l 1,19,-1
 233 661 l 1,20,-1
 418 661 l 1,21,-1
 418 581 l 1,22,-1
 233 581 l 1,23,-1
 233 413 l 1,24,25
 289 514 289 514 419 514 c 0,26,0
 510 514 510 514 563.5 458.5 c 128,-1,1
EndSplineSet
Substitution2: "<3,3> Small Caps in Latin lookup 11 subtable" hbar.sc
EndChar

StartChar: Iogonek
Encoding: 302 302 241
Width: 313
Flags: W
LayerCount: 2
Fore
SplineSet
149.5 -53.5 m 128,-1,1
 130 -77 130 -77 130 -100 c 0,2,3
 130 -127 130 -127 154 -127 c 0,4,5
 171 -127 171 -127 184 -119 c 1,6,-1
 213 -207 l 1,7,8
 165 -228 165 -228 120 -228 c 0,9,10
 69 -228 69 -228 39.5 -201 c 128,-1,11
 10 -174 10 -174 10 -127 c 0,12,13
 10 -56 10 -56 77 5 c 1,14,-1
 77 700 l 1,15,-1
 235 700 l 1,16,-1
 235 0 l 1,17,-1
 211 0 l 1,18,0
 169 -30 169 -30 149.5 -53.5 c 128,-1,1
EndSplineSet
EndChar

StartChar: iogonek
Encoding: 303 303 242
Width: 302
Flags: W
LayerCount: 2
Fore
SplineSet
90.5 629.5 m 128,-1,1
 67 654 67 654 67 691 c 0,2,3
 67 729 67 729 90.5 753 c 128,-1,4
 114 777 114 777 150 777 c 0,5,6
 187 777 187 777 210.5 753 c 128,-1,7
 234 729 234 729 234 691 c 256,8,9
 234 653 234 653 210.5 629 c 128,-1,10
 187 605 187 605 150 605 c 0,11,0
 114 605 114 605 90.5 629.5 c 128,-1,1
74 538 m 1,12,-1
 228 538 l 1,13,-1
 228 0 l 1,14,-1
 206 0 l 1,15,16
 164 -30 164 -30 144.5 -53.5 c 128,-1,17
 125 -77 125 -77 125 -100 c 0,18,19
 125 -127 125 -127 149 -127 c 0,20,21
 166 -127 166 -127 179 -119 c 1,22,-1
 208 -207 l 1,23,24
 160 -228 160 -228 115 -228 c 0,25,26
 64 -228 64 -228 34.5 -201 c 128,-1,27
 5 -174 5 -174 5 -127 c 0,28,29
 5 -55 5 -55 74 7 c 1,30,-1
 74 538 l 1,12,-1
EndSplineSet
Substitution2: "<3,3> Small Caps in Latin lookup 11 subtable" iogonek.sc
EndChar

StartChar: dotlessi
Encoding: 305 305 244
Width: 302
Flags: W
LayerCount: 2
Fore
SplineSet
74 538 m 1,0,-1
 228 538 l 1,1,-1
 228 0 l 1,2,-1
 74 0 l 1,3,-1
 74 538 l 1,0,-1
EndSplineSet
Substitution2: "<3,3> Small Caps in Latin lookup 11 subtable" dotlessi.sc
EndChar

StartChar: kgreenlandic
Encoding: 312 312 251
Width: 613
Flags: W
LayerCount: 2
Fore
SplineSet
426 0 m 1,0,-1
 296 220 l 1,1,-1
 228 148 l 1,2,-1
 228 0 l 1,3,-1
 74 0 l 1,4,-1
 74 538 l 1,5,-1
 228 538 l 1,6,-1
 228 330 l 1,7,-1
 424 538 l 1,8,-1
 599 538 l 1,9,-1
 401 331 l 1,10,-1
 608 0 l 1,11,-1
 426 0 l 1,0,-1
EndSplineSet
Substitution2: "<3,3> Small Caps in Latin lookup 11 subtable" kgreenlandic.sc
EndChar

StartChar: Lslash
Encoding: 321 321 260
Width: 592
Flags: W
LayerCount: 2
Fore
SplineSet
275 138 m 1,0,-1
 575 138 l 1,1,-1
 575 0 l 1,2,-1
 117 0 l 1,3,-1
 117 310 l 1,4,-1
 20 259 l 1,5,-1
 20 347 l 1,6,-1
 117 398 l 1,7,-1
 117 700 l 1,8,-1
 275 700 l 1,9,-1
 275 481 l 1,10,-1
 388 540 l 1,11,-1
 388 452 l 1,12,-1
 275 393 l 1,13,-1
 275 138 l 1,0,-1
EndSplineSet
EndChar

StartChar: lslash
Encoding: 322 322 261
Width: 409
Flags: W
LayerCount: 2
Fore
SplineSet
390 533 m 1,0,-1
 390 440 l 1,1,-1
 284 384 l 1,2,-1
 284 0 l 1,3,-1
 130 0 l 1,4,-1
 130 303 l 1,5,-1
 23 247 l 1,6,-1
 23 341 l 1,7,-1
 130 397 l 1,8,-1
 130 742 l 1,9,-1
 284 742 l 1,10,-1
 284 478 l 1,11,-1
 390 533 l 1,0,-1
EndSplineSet
Substitution2: "<3,3> Small Caps in Latin lookup 11 subtable" lslash.sc
EndChar

StartChar: Eng
Encoding: 330 330 269
Width: 788
Flags: W
LayerCount: 2
Fore
SplineSet
711 0 m 1,0,-1
 710 0 l 1,1,2
 708 -98 708 -98 644.5 -155 c 128,-1,3
 581 -212 581 -212 476 -212 c 0,4,5
 366 -212 366 -212 290 -148 c 1,6,-1
 352 -26 l 1,7,8
 383 -47 383 -47 415 -58 c 128,-1,9
 447 -69 447 -69 475 -69 c 0,10,11
 511 -69 511 -69 533.5 -49 c 128,-1,12
 556 -29 556 -29 560 9 c 1,13,-1
 228 449 l 1,14,-1
 228 0 l 1,15,-1
 77 0 l 1,16,-1
 77 700 l 1,17,-1
 221 700 l 1,18,-1
 561 250 l 1,19,-1
 561 700 l 1,20,-1
 711 700 l 1,21,-1
 711 0 l 1,0,-1
EndSplineSet
EndChar

StartChar: eng
Encoding: 331 331 270
Width: 670
Flags: W
LayerCount: 2
Fore
SplineSet
557.5 488 m 128,-1,1
 611 432 611 432 611 338 c 2,2,-1
 611 -18 l 2,3,4
 611 -76 611 -76 585.5 -117.5 c 128,-1,5
 560 -159 560 -159 517 -180 c 128,-1,6
 474 -201 474 -201 422 -201 c 0,7,8
 350 -201 350 -201 295 -165 c 1,9,-1
 337 -52 l 1,10,11
 371 -73 371 -73 401 -73 c 0,12,13
 426 -73 426 -73 441.5 -57.5 c 128,-1,14
 457 -42 457 -42 457 -10 c 2,15,-1
 457 293 l 2,16,17
 457 344 457 344 428.5 373.5 c 128,-1,18
 400 403 400 403 351 403 c 0,19,20
 294 402 294 402 261 363.5 c 128,-1,21
 228 325 228 325 228 265 c 2,22,-1
 228 0 l 1,23,-1
 74 0 l 1,24,-1
 74 538 l 1,25,-1
 228 538 l 1,26,-1
 228 444 l 1,27,28
 284 542 284 542 414 544 c 0,29,0
 504 544 504 544 557.5 488 c 128,-1,1
EndSplineSet
Substitution2: "<3,3> Small Caps in Latin lookup 11 subtable" eng.sc
EndChar

StartChar: OE
Encoding: 338 338 277
Width: 1108
Flags: W
LayerCount: 2
Fore
SplineSet
1061 132 m 1,0,-1
 1061 0 l 1,1,-1
 402 0 l 2,2,3
 297 0 297 0 211.5 46 c 128,-1,4
 126 92 126 92 76.5 172 c 128,-1,5
 27 252 27 252 27 350 c 256,6,7
 27 448 27 448 76 528 c 128,-1,8
 125 608 125 608 211 654 c 128,-1,9
 297 700 297 700 402 700 c 2,10,-1
 1050 700 l 1,11,-1
 1050 569 l 1,12,-1
 675 569 l 1,13,-1
 675 417 l 1,14,-1
 1012 417 l 1,15,-1
 1012 286 l 1,16,-1
 675 286 l 1,17,-1
 675 132 l 1,18,-1
 1061 132 l 1,0,-1
517 135 m 1,19,-1
 517 564 l 1,20,-1
 403 564 l 2,21,22
 343 564 343 564 294 536 c 128,-1,23
 245 508 245 508 217 459 c 128,-1,24
 189 410 189 410 189 349 c 256,25,26
 189 288 189 288 217 239 c 128,-1,27
 245 190 245 190 294 162 c 128,-1,28
 343 134 343 134 403 134 c 2,29,-1
 517 135 l 1,19,-1
EndSplineSet
EndChar

StartChar: oe
Encoding: 339 339 278
Width: 1026
Flags: W
LayerCount: 2
Fore
SplineSet
873.5 504.5 m 128,-1,1
 937 466 937 466 969.5 396 c 128,-1,2
 1002 326 1002 326 998 234 c 1,3,-1
 597 234 l 1,4,5
 607 177 607 177 645.5 145.5 c 128,-1,6
 684 114 684 114 740 114 c 0,7,8
 819 114 819 114 878 171 c 1,9,-1
 959 89 l 1,10,11
 917 43 917 43 858 18.5 c 128,-1,12
 799 -6 799 -6 727 -6 c 0,13,14
 659 -6 659 -6 607 20 c 128,-1,15
 555 46 555 46 524 93 c 1,16,17
 490 46 490 46 437.5 20 c 128,-1,18
 385 -6 385 -6 317 -6 c 0,19,20
 231 -6 231 -6 165.5 28.5 c 128,-1,21
 100 63 100 63 64 125.5 c 128,-1,22
 28 188 28 188 28 269 c 0,23,24
 28 351 28 351 64 413 c 128,-1,25
 100 475 100 475 165.5 509 c 128,-1,26
 231 543 231 543 317 543 c 0,27,28
 386 543 386 543 438.5 517 c 128,-1,29
 491 491 491 491 525 444 c 1,30,31
 557 491 557 491 607.5 517 c 128,-1,32
 658 543 658 543 723 543 c 0,33,0
 810 543 810 543 873.5 504.5 c 128,-1,1
845 312 m 1,34,35
 844 365 844 365 810.5 399.5 c 128,-1,36
 777 434 777 434 725 434 c 0,37,38
 674 434 674 434 639.5 400.5 c 128,-1,39
 605 367 605 367 596 312 c 1,40,-1
 845 312 l 1,34,35
413.5 160 m 128,-1,42
 451 201 451 201 451 267 c 256,43,44
 451 333 451 333 413.5 374 c 128,-1,45
 376 415 376 415 317 415 c 0,46,47
 257 415 257 415 220 374 c 128,-1,48
 183 333 183 333 183 267 c 256,49,50
 183 201 183 201 220 160 c 128,-1,51
 257 119 257 119 317 119 c 0,52,41
 376 119 376 119 413.5 160 c 128,-1,42
EndSplineSet
Substitution2: "<3,3> Small Caps in Latin lookup 11 subtable" oe.sc
EndChar

StartChar: Scedilla
Encoding: 350 350 289
Width: 637
Flags: W
LayerCount: 2
Fore
SplineSet
265.5 461.5 m 128,-1,1
 300 442 300 442 372 421 c 256,2,3
 444 400 444 400 490.5 379 c 128,-1,4
 537 358 537 358 570 316 c 128,-1,5
 603 274 603 274 603 205 c 0,6,7
 603 115 603 115 541.5 60 c 128,-1,8
 480 5 480 5 379 -6 c 1,9,-1
 361 -54 l 1,10,11
 403 -63 403 -63 423 -84.5 c 128,-1,12
 443 -106 443 -106 443 -135 c 0,13,14
 443 -181 443 -181 408 -205 c 128,-1,15
 373 -229 373 -229 320 -229 c 0,16,17
 269 -229 269 -229 215 -208 c 1,18,-1
 241 -133 l 1,19,20
 268 -143 268 -143 295 -143 c 0,21,22
 313 -143 313 -143 324.5 -136.5 c 128,-1,23
 336 -130 336 -130 336 -121 c 0,24,25
 336 -109 336 -109 322 -102.5 c 128,-1,26
 308 -96 308 -96 284 -96 c 2,27,-1
 257 -96 l 1,28,-1
 286 -7 l 1,29,30
 212 0 212 0 142.5 29 c 128,-1,31
 73 58 73 58 20 103 c 1,32,-1
 83 232 l 1,33,34
 136 184 136 184 205 155 c 128,-1,35
 274 126 274 126 331 126 c 0,36,37
 380 126 380 126 407.5 144 c 128,-1,38
 435 162 435 162 435 196 c 0,39,40
 435 223 435 223 416.5 240.5 c 128,-1,41
 398 258 398 258 369.5 269 c 128,-1,42
 341 280 341 280 291 294 c 0,43,44
 219 314 219 314 173.5 334 c 128,-1,45
 128 354 128 354 95 395 c 128,-1,46
 62 436 62 436 62 504 c 0,47,48
 62 567 62 567 96 614.5 c 128,-1,49
 130 662 130 662 191 687.5 c 128,-1,50
 252 713 252 713 333 713 c 0,51,52
 405 713 405 713 475 692 c 128,-1,53
 545 671 545 671 599 636 c 1,54,-1
 538 505 l 1,55,56
 484 538 484 538 423.5 557.5 c 128,-1,57
 363 577 363 577 320 577 c 0,58,59
 279 577 279 577 255 562 c 128,-1,60
 231 547 231 547 231 518 c 0,61,0
 231 481 231 481 265.5 461.5 c 128,-1,1
EndSplineSet
EndChar

StartChar: scedilla
Encoding: 351 351 290
Width: 499
Flags: W
LayerCount: 2
Fore
SplineSet
210 358 m 128,-1,1
 233 346 233 346 285 331 c 0,2,3
 342 314 342 314 379 297.5 c 128,-1,4
 416 281 416 281 443 248.5 c 128,-1,5
 470 216 470 216 470 163 c 0,6,7
 470 95 470 95 424 52 c 128,-1,8
 378 9 378 9 302 -2 c 1,9,-1
 283 -54 l 1,10,11
 325 -63 325 -63 345 -84.5 c 128,-1,12
 365 -106 365 -106 365 -135 c 0,13,14
 365 -181 365 -181 330 -205 c 128,-1,15
 295 -229 295 -229 242 -229 c 0,16,17
 191 -229 191 -229 137 -208 c 1,18,-1
 163 -133 l 1,19,20
 190 -143 190 -143 217 -143 c 0,21,22
 235 -143 235 -143 246.5 -136.5 c 128,-1,23
 258 -130 258 -130 258 -121 c 0,24,25
 258 -109 258 -109 244 -102.5 c 128,-1,26
 230 -96 230 -96 206 -96 c 2,27,-1
 179 -96 l 1,28,-1
 209 -4 l 1,29,30
 154 1 154 1 105 20 c 128,-1,31
 56 39 56 39 18 69 c 1,32,-1
 68 173 l 1,33,34
 109 141 109 141 159.5 123.5 c 128,-1,35
 210 106 210 106 255 106 c 0,36,37
 286 106 286 106 304.5 116.5 c 128,-1,38
 323 127 323 127 323 148 c 0,39,40
 323 171 323 171 299.5 184 c 128,-1,41
 276 197 276 197 224 212 c 0,42,43
 169 228 169 228 132.5 244 c 128,-1,44
 96 260 96 260 70 292.5 c 128,-1,45
 44 325 44 325 44 377 c 0,46,47
 44 457 44 457 104 501 c 128,-1,48
 164 545 164 545 256 545 c 0,49,50
 311 545 311 545 366 529.5 c 128,-1,51
 421 514 421 514 466 485 c 1,52,-1
 413 380 l 1,53,54
 369 405 369 405 326 418.5 c 128,-1,55
 283 432 283 432 249 432 c 0,56,57
 221 432 221 432 204 422 c 128,-1,58
 187 412 187 412 187 392 c 0,59,0
 187 370 187 370 210 358 c 128,-1,1
EndSplineSet
Substitution2: "<3,3> Small Caps in Latin lookup 11 subtable" scedilla.sc
EndChar

StartChar: uni0162
Encoding: 354 354 293
Width: 601
Flags: W
LayerCount: 2
Fore
SplineSet
355 0 m 1,0,-1
 335 -54 l 1,1,2
 377 -63 377 -63 397 -84.5 c 128,-1,3
 417 -106 417 -106 417 -135 c 0,4,5
 417 -181 417 -181 382 -205 c 128,-1,6
 347 -229 347 -229 294 -229 c 0,7,8
 243 -229 243 -229 189 -208 c 1,9,-1
 215 -133 l 1,10,11
 242 -143 242 -143 269 -143 c 0,12,13
 287 -143 287 -143 298.5 -136.5 c 128,-1,14
 310 -130 310 -130 310 -121 c 0,15,16
 310 -109 310 -109 296 -102.5 c 128,-1,17
 282 -96 282 -96 258 -96 c 2,18,-1
 231 -96 l 1,19,-1
 262 0 l 1,20,-1
 221 0 l 1,21,-1
 221 566 l 1,22,-1
 8 566 l 1,23,-1
 8 700 l 1,24,-1
 593 700 l 1,25,-1
 593 566 l 1,26,-1
 379 566 l 1,27,-1
 379 0 l 1,28,-1
 355 0 l 1,0,-1
EndSplineSet
EndChar

StartChar: uni0163
Encoding: 355 355 294
Width: 426
Flags: W
LayerCount: 2
Fore
SplineSet
362 -84.5 m 128,-1,1
 382 -106 382 -106 382 -135 c 0,2,3
 382 -181 382 -181 347 -205 c 128,-1,4
 312 -229 312 -229 259 -229 c 0,5,6
 208 -229 208 -229 154 -208 c 1,7,-1
 180 -133 l 1,8,9
 207 -143 207 -143 234 -143 c 0,10,11
 252 -143 252 -143 263.5 -136.5 c 128,-1,12
 275 -130 275 -130 275 -121 c 0,13,14
 275 -109 275 -109 261 -102.5 c 128,-1,15
 247 -96 247 -96 223 -96 c 2,16,-1
 196 -96 l 1,17,-1
 226 -3 l 1,18,19
 167 8 167 8 132.5 49 c 128,-1,20
 98 90 98 90 98 159 c 2,21,-1
 98 408 l 1,22,-1
 23 408 l 1,23,-1
 23 514 l 1,24,-1
 98 514 l 1,25,-1
 98 662 l 1,26,-1
 251 662 l 1,27,-1
 251 514 l 1,28,-1
 397 514 l 1,29,-1
 397 407 l 1,30,-1
 251 407 l 1,31,-1
 251 185 l 2,32,33
 251 123 251 123 300 123 c 0,34,35
 334 123 334 123 375 143 c 1,36,-1
 407 30 l 1,37,38
 367 7 367 7 319 -2 c 1,39,-1
 300 -54 l 1,40,0
 342 -63 342 -63 362 -84.5 c 128,-1,1
EndSplineSet
Substitution2: "<3,3> Small Caps in Latin lookup 11 subtable" uni0163.sc
EndChar

StartChar: Tbar
Encoding: 358 358 297
Width: 601
Flags: W
LayerCount: 2
Fore
SplineSet
593 566 m 1,0,-1
 379 566 l 1,1,-1
 379 361 l 1,2,-1
 514 361 l 1,3,-1
 514 274 l 1,4,-1
 379 274 l 1,5,-1
 379 0 l 1,6,-1
 221 0 l 1,7,-1
 221 274 l 1,8,-1
 84 274 l 1,9,-1
 84 361 l 1,10,-1
 221 361 l 1,11,-1
 221 566 l 1,12,-1
 8 566 l 1,13,-1
 8 700 l 1,14,-1
 593 700 l 1,15,-1
 593 566 l 1,0,-1
EndSplineSet
EndChar

StartChar: tbar
Encoding: 359 359 298
Width: 426
Flags: W
LayerCount: 2
Fore
SplineSet
407 30 m 1,0,1
 377 12 377 12 340.5 2.5 c 128,-1,2
 304 -7 304 -7 267 -7 c 0,3,4
 192 -7 192 -7 145 36 c 128,-1,5
 98 79 98 79 98 159 c 2,6,-1
 98 243 l 1,7,-1
 23 243 l 1,8,-1
 23 339 l 1,9,-1
 98 339 l 1,10,-1
 98 418 l 1,11,-1
 23 418 l 1,12,-1
 23 514 l 1,13,-1
 98 514 l 1,14,-1
 98 662 l 1,15,-1
 251 662 l 1,16,-1
 251 514 l 1,17,-1
 397 514 l 1,18,-1
 397 418 l 1,19,-1
 251 418 l 1,20,-1
 251 339 l 1,21,-1
 397 339 l 1,22,-1
 397 243 l 1,23,-1
 251 243 l 1,24,-1
 251 185 l 2,25,26
 251 123 251 123 300 123 c 0,27,28
 334 123 334 123 375 143 c 1,29,-1
 407 30 l 1,0,1
EndSplineSet
Substitution2: "<3,3> Small Caps in Latin lookup 11 subtable" tbar.sc
EndChar

StartChar: Uogonek
Encoding: 370 370 309
Width: 753
Flags: W
LayerCount: 2
Fore
SplineSet
688 700 m 1,0,-1
 688 289 l 2,1,2
 688 209 688 209 659.5 147 c 128,-1,3
 631 85 631 85 577 46 c 1,4,5
 542 12 542 12 520.5 -27.5 c 128,-1,6
 499 -67 499 -67 499 -96 c 0,7,8
 499 -127 499 -127 523 -127 c 0,9,10
 539 -127 539 -127 553 -119 c 1,11,-1
 581 -207 l 1,12,13
 533 -228 533 -228 490 -228 c 0,14,15
 440 -228 440 -228 409.5 -200.5 c 128,-1,16
 379 -173 379 -173 379 -121 c 0,17,18
 379 -62 379 -62 425 -9 c 1,19,20
 395 -11 395 -11 378 -11 c 0,21,22
 283 -11 283 -11 212 25.5 c 128,-1,23
 141 62 141 62 103 129.5 c 128,-1,24
 65 197 65 197 65 289 c 2,25,-1
 65 700 l 1,26,-1
 223 700 l 1,27,-1
 223 289 l 2,28,29
 223 214 223 214 265.5 170.5 c 128,-1,30
 308 127 308 127 379 127 c 0,31,32
 448 127 448 127 489 170 c 128,-1,33
 530 213 530 213 530 289 c 2,34,-1
 530 700 l 1,35,-1
 688 700 l 1,0,-1
EndSplineSet
EndChar

StartChar: uogonek
Encoding: 371 371 310
Width: 660
Flags: W
LayerCount: 2
Fore
SplineSet
501.5 -53.5 m 128,-1,1
 482 -77 482 -77 482 -100 c 0,2,3
 482 -127 482 -127 506 -127 c 0,4,5
 523 -127 523 -127 536 -119 c 1,6,-1
 565 -207 l 1,7,8
 517 -228 517 -228 472 -228 c 0,9,10
 421 -228 421 -228 391.5 -201 c 128,-1,11
 362 -174 362 -174 362 -127 c 0,12,13
 362 -55 362 -55 432 8 c 1,14,-1
 432 95 l 1,15,16
 377 -6 377 -6 252 -6 c 0,17,18
 163 -6 163 -6 110.5 49.5 c 128,-1,19
 58 105 58 105 58 200 c 2,20,-1
 58 538 l 1,21,-1
 212 538 l 1,22,-1
 212 244 l 2,23,24
 212 193 212 193 239 164 c 128,-1,25
 266 135 266 135 313 135 c 0,26,27
 368 136 368 136 400 174 c 128,-1,28
 432 212 432 212 432 272 c 2,29,-1
 432 538 l 1,30,-1
 585 538 l 1,31,-1
 585 0 l 1,32,-1
 563 0 l 1,33,0
 521 -30 521 -30 501.5 -53.5 c 128,-1,1
EndSplineSet
Substitution2: "<3,3> Small Caps in Latin lookup 11 subtable" uogonek.sc
EndChar

StartChar: uni018F
Encoding: 399 399 322
Width: 787
Flags: W
LayerCount: 2
Fore
SplineSet
203 39 m 128,-1,1
 120 89 120 89 74 179.5 c 128,-1,2
 28 270 28 270 28 387 c 1,3,-1
 595 387 l 1,4,5
 588 440 588 440 560 482.5 c 128,-1,6
 532 525 532 525 489 549 c 128,-1,7
 446 573 446 573 396 573 c 0,8,9
 342 573 342 573 295.5 547.5 c 128,-1,10
 249 522 249 522 219 478 c 1,11,-1
 108 590 l 1,12,13
 219 711 219 711 394 711 c 0,14,15
 496 711 496 711 578.5 664 c 128,-1,16
 661 617 661 617 708.5 534.5 c 128,-1,17
 756 452 756 452 756 351 c 256,18,19
 756 250 756 250 708.5 167 c 128,-1,20
 661 84 661 84 578 36.5 c 128,-1,21
 495 -11 495 -11 394 -11 c 0,22,0
 286 -11 286 -11 203 39 c 128,-1,1
518 167.5 m 128,-1,24
 570 208 570 208 588 276 c 1,25,-1
 200 276 l 1,26,27
 219 208 219 208 271.5 167.5 c 128,-1,28
 324 127 324 127 396 127 c 0,29,23
 466 127 466 127 518 167.5 c 128,-1,24
EndSplineSet
EndChar

StartChar: florin
Encoding: 402 402 323
Width: 397
Flags: W
LayerCount: 2
Fore
SplineSet
300 607 m 128,-1,1
 279 587 279 587 274 554 c 2,2,-1
 263 465 l 1,3,-1
 391 465 l 1,4,-1
 379 362 l 1,5,-1
 250 362 l 1,6,-1
 203 -26 l 2,7,8
 193 -106 193 -106 140.5 -153.5 c 128,-1,9
 88 -201 88 -201 5 -201 c 0,10,11
 -25 -201 -25 -201 -58.5 -190.5 c 128,-1,12
 -92 -180 -92 -180 -115 -163 c 1,13,-1
 -75 -52 l 1,14,15
 -62 -63 -62 -63 -45 -69.5 c 128,-1,16
 -28 -76 -28 -76 -13 -76 c 0,17,18
 15 -76 15 -76 31.5 -56.5 c 128,-1,19
 48 -37 48 -37 53 -2 c 2,20,-1
 98 362 l 1,21,-1
 27 362 l 1,22,-1
 39 465 l 1,23,-1
 110 465 l 1,24,-1
 124 577 l 2,25,26
 134 657 134 657 189.5 704.5 c 128,-1,27
 245 752 245 752 329 752 c 0,28,29
 367 752 367 752 405.5 741.5 c 128,-1,30
 444 731 444 731 472 714 c 1,31,-1
 419 603 l 1,32,33
 405 614 405 614 386.5 620.5 c 128,-1,34
 368 627 368 627 352 627 c 0,35,0
 321 627 321 627 300 607 c 128,-1,1
EndSplineSet
EndChar

StartChar: Ohorn
Encoding: 416 416 324
Width: 833
Flags: W
LayerCount: 2
Fore
SplineSet
786 742 m 0,1,2
 786 691 786 691 759 652 c 128,-1,3
 732 613 732 613 684 595 c 1,4,5
 730 547 730 547 754.5 484.5 c 128,-1,6
 779 422 779 422 779 351 c 0,7,8
 779 250 779 250 729.5 167 c 128,-1,9
 680 84 680 84 594 36.5 c 128,-1,10
 508 -11 508 -11 403 -11 c 256,11,12
 298 -11 298 -11 212 36.5 c 128,-1,13
 126 84 126 84 76.5 166.5 c 128,-1,14
 27 249 27 249 27 351 c 0,15,16
 27 452 27 452 76.5 534.5 c 128,-1,17
 126 617 126 617 211.5 664 c 128,-1,18
 297 711 297 711 403 711 c 0,19,20
 498 711 498 711 576 673 c 0,21,22
 592 669 592 669 602 669 c 0,23,24
 631 669 631 669 647 688.5 c 128,-1,25
 663 708 663 708 663 737 c 0,26,27
 663 772 663 772 641 803 c 1,28,-1
 759 846 l 1,29,0
 786 795 786 795 786 742 c 0,1,2
511.5 156.5 m 128,-1,31
 560 186 560 186 588.5 237.5 c 128,-1,32
 617 289 617 289 617 351 c 0,33,34
 617 412 617 412 588.5 463 c 128,-1,35
 560 514 560 514 511.5 543.5 c 128,-1,36
 463 573 463 573 405 573 c 256,37,38
 347 573 347 573 297 543.5 c 128,-1,39
 247 514 247 514 218 463 c 128,-1,40
 189 412 189 412 189 351 c 0,41,42
 189 289 189 289 218.5 238 c 128,-1,43
 248 187 248 187 297.5 157 c 128,-1,44
 347 127 347 127 405 127 c 256,45,30
 463 127 463 127 511.5 156.5 c 128,-1,31
EndSplineSet
EndChar

StartChar: ohorn
Encoding: 417 417 325
Width: 671
Flags: W
LayerCount: 2
Fore
SplineSet
679 578 m 0,1,2
 679 522 679 522 647.5 481 c 128,-1,3
 616 440 616 440 561 426 c 1,4,5
 605 358 605 358 605 269 c 0,6,7
 605 188 605 188 569 125.5 c 128,-1,8
 533 63 533 63 467.5 28.5 c 128,-1,9
 402 -6 402 -6 317 -6 c 0,10,11
 231 -6 231 -6 165.5 28.5 c 128,-1,12
 100 63 100 63 64 125.5 c 128,-1,13
 28 188 28 188 28 269 c 0,14,15
 28 351 28 351 64 413 c 128,-1,16
 100 475 100 475 165.5 509 c 128,-1,17
 231 543 231 543 317 543 c 0,18,19
 399 543 399 543 463 511 c 0,20,21
 483 505 483 505 495 505 c 0,22,23
 524 505 524 505 540 524.5 c 128,-1,24
 556 544 556 544 556 573 c 0,25,26
 556 608 556 608 534 639 c 1,27,-1
 652 682 l 1,28,0
 679 631 679 631 679 578 c 0,1,2
413.5 160 m 128,-1,30
 451 201 451 201 451 267 c 256,31,32
 451 333 451 333 413.5 374 c 128,-1,33
 376 415 376 415 317 415 c 0,34,35
 257 415 257 415 219.5 374 c 128,-1,36
 182 333 182 333 182 267 c 256,37,38
 182 201 182 201 219.5 160 c 128,-1,39
 257 119 257 119 317 119 c 0,40,29
 376 119 376 119 413.5 160 c 128,-1,30
EndSplineSet
Substitution2: "<3,3> Small Caps in Latin lookup 11 subtable" ohorn.sc
EndChar

StartChar: Uhorn
Encoding: 431 431 326
Width: 794
Flags: W
LayerCount: 2
Fore
SplineSet
809 752 m 0,1,2
 809 700 809 700 778 666.5 c 128,-1,3
 747 633 747 633 688 621 c 1,4,-1
 688 289 l 2,5,6
 688 197 688 197 650.5 129.5 c 128,-1,7
 613 62 613 62 543 25.5 c 128,-1,8
 473 -11 473 -11 378 -11 c 256,9,10
 283 -11 283 -11 212 25.5 c 128,-1,11
 141 62 141 62 103 129.5 c 128,-1,12
 65 197 65 197 65 289 c 2,13,-1
 65 700 l 1,14,-1
 223 700 l 1,15,-1
 223 289 l 2,16,17
 223 214 223 214 265.5 170.5 c 128,-1,18
 308 127 308 127 379 127 c 0,19,20
 448 127 448 127 489 170 c 128,-1,21
 530 213 530 213 530 289 c 2,22,-1
 530 700 l 1,23,-1
 631 700 l 1,24,-1
 631 701 l 1,25,26
 662 701 662 701 677.5 715 c 128,-1,27
 693 729 693 729 693 752 c 0,28,29
 693 777 693 777 677 804 c 1,30,-1
 788 846 l 1,31,0
 809 794 809 794 809 752 c 0,1,2
EndSplineSet
EndChar

StartChar: uhorn
Encoding: 432 432 327
Width: 676
Flags: W
LayerCount: 2
Fore
SplineSet
693 589 m 0,1,2
 693 540 693 540 665.5 507.5 c 128,-1,3
 638 475 638 475 585 461 c 1,4,-1
 585 0 l 1,5,-1
 432 0 l 1,6,-1
 432 95 l 1,7,8
 377 -6 377 -6 252 -6 c 0,9,10
 163 -6 163 -6 110.5 49.5 c 128,-1,11
 58 105 58 105 58 200 c 2,12,-1
 58 538 l 1,13,-1
 212 538 l 1,14,-1
 212 244 l 2,15,16
 212 193 212 193 239 164 c 128,-1,17
 266 135 266 135 313 135 c 0,18,19
 368 136 368 136 400 174 c 128,-1,20
 432 212 432 212 432 272 c 2,21,-1
 432 538 l 1,22,-1
 515 538 l 2,23,24
 546 538 546 538 561.5 552 c 128,-1,25
 577 566 577 566 577 589 c 0,26,27
 577 614 577 614 561 641 c 1,28,-1
 672 683 l 1,29,0
 693 631 693 631 693 589 c 0,1,2
EndSplineSet
Substitution2: "<3,3> Small Caps in Latin lookup 11 subtable" uhorn.sc
EndChar

StartChar: uni01EA
Encoding: 490 490 339
Width: 806
Flags: W
LayerCount: 2
Fore
SplineSet
732.5 172 m 128,-1,1
 686 91 686 91 605 43 c 1,2,3
 572 9 572 9 551.5 -29.5 c 128,-1,4
 531 -68 531 -68 531 -96 c 0,5,6
 531 -127 531 -127 555 -127 c 0,7,8
 571 -127 571 -127 585 -119 c 1,9,-1
 613 -207 l 1,10,11
 565 -228 565 -228 522 -228 c 0,12,13
 472 -228 472 -228 441.5 -200.5 c 128,-1,14
 411 -173 411 -173 411 -121 c 0,15,16
 411 -64 411 -64 458 -8 c 1,17,18
 431 -11 431 -11 403 -11 c 0,19,20
 298 -11 298 -11 212 36.5 c 128,-1,21
 126 84 126 84 76.5 166.5 c 128,-1,22
 27 249 27 249 27 351 c 0,23,24
 27 452 27 452 76.5 534.5 c 128,-1,25
 126 617 126 617 211.5 664 c 128,-1,26
 297 711 297 711 403 711 c 0,27,28
 508 711 508 711 594 664 c 128,-1,29
 680 617 680 617 729.5 534.5 c 128,-1,30
 779 452 779 452 779 351 c 0,31,0
 779 253 779 253 732.5 172 c 128,-1,1
218.5 238 m 128,-1,33
 248 187 248 187 297.5 157 c 128,-1,34
 347 127 347 127 405 127 c 256,35,36
 463 127 463 127 511.5 156.5 c 128,-1,37
 560 186 560 186 588.5 237.5 c 128,-1,38
 617 289 617 289 617 351 c 0,39,40
 617 412 617 412 588.5 463 c 128,-1,41
 560 514 560 514 511.5 543.5 c 128,-1,42
 463 573 463 573 405 573 c 256,43,44
 347 573 347 573 297 543.5 c 128,-1,45
 247 514 247 514 218 463 c 128,-1,46
 189 412 189 412 189 351 c 0,47,32
 189 289 189 289 218.5 238 c 128,-1,33
EndSplineSet
EndChar

StartChar: uni01EB
Encoding: 491 491 340
Width: 633
Flags: W
LayerCount: 2
Fore
SplineSet
442.5 -26 m 128,-1,1
 420 -66 420 -66 420 -96 c 0,2,3
 420 -127 420 -127 444 -127 c 0,4,5
 460 -127 460 -127 474 -119 c 1,6,-1
 502 -207 l 1,7,8
 454 -228 454 -228 411 -228 c 0,9,10
 361 -228 361 -228 330.5 -200.5 c 128,-1,11
 300 -173 300 -173 300 -121 c 0,12,13
 300 -61 300 -61 349 -5 c 1,14,15
 339 -6 339 -6 317 -6 c 0,16,17
 231 -6 231 -6 165.5 28.5 c 128,-1,18
 100 63 100 63 64 125.5 c 128,-1,19
 28 188 28 188 28 269 c 0,20,21
 28 351 28 351 64 413 c 128,-1,22
 100 475 100 475 165.5 509 c 128,-1,23
 231 543 231 543 317 543 c 0,24,25
 402 543 402 543 467.5 509 c 128,-1,26
 533 475 533 475 569 413 c 128,-1,27
 605 351 605 351 605 269 c 0,28,29
 605 199 605 199 577.5 142.5 c 128,-1,30
 550 86 550 86 501 49 c 1,31,0
 465 14 465 14 442.5 -26 c 128,-1,1
219.5 160 m 128,-1,33
 257 119 257 119 317 119 c 0,34,35
 376 119 376 119 413.5 160 c 128,-1,36
 451 201 451 201 451 267 c 256,37,38
 451 333 451 333 413.5 374 c 128,-1,39
 376 415 376 415 317 415 c 0,40,41
 257 415 257 415 219.5 374 c 128,-1,42
 182 333 182 333 182 267 c 256,43,32
 182 201 182 201 219.5 160 c 128,-1,33
EndSplineSet
Substitution2: "<3,3> Small Caps in Latin lookup 11 subtable" uni01EB.sc
EndChar

StartChar: uni0237
Encoding: 567 567 383
Width: 298
Flags: W
LayerCount: 2
Fore
SplineSet
13 -75 m 0,1,2
 44 -76 44 -76 60 -56 c 128,-1,3
 76 -36 76 -36 76 2 c 2,4,-1
 76 538 l 1,5,-1
 229 538 l 1,6,-1
 229 -22 l 2,7,8
 229 -105 229 -105 181 -152.5 c 128,-1,9
 133 -200 133 -200 49 -200 c 0,10,11
 -13 -200 -13 -200 -62 -179 c 1,12,-1
 -30 -67 l 1,13,0
 -7 -74 -7 -74 13 -75 c 0,1,2
EndSplineSet
EndChar

StartChar: uni0259
Encoding: 601 601 384
Width: 597
Flags: W
LayerCount: 2
Fore
SplineSet
436.5 510 m 128,-1,1
 500 476 500 476 534.5 414 c 128,-1,2
 569 352 569 352 569 271 c 0,3,4
 569 189 569 189 534 126.5 c 128,-1,5
 499 64 499 64 436 29.5 c 128,-1,6
 373 -5 373 -5 292 -5 c 0,7,8
 162 -5 162 -5 94.5 70 c 128,-1,9
 27 145 27 145 27 279 c 0,10,11
 27 303 27 303 28 316 c 1,12,-1
 414 316 l 1,13,14
 401 367 401 367 364 395.5 c 128,-1,15
 327 424 327 424 275 424 c 0,16,17
 237 424 237 424 202 409.5 c 128,-1,18
 167 395 167 395 139 367 c 1,19,-1
 58 449 l 1,20,21
 99 495 99 495 157.5 519.5 c 128,-1,22
 216 544 216 544 288 544 c 0,23,0
 373 544 373 544 436.5 510 c 128,-1,1
374.5 139.5 m 128,-1,25
 408 171 408 171 417 225 c 1,26,-1
 172 225 l 1,27,28
 174 172 174 172 206 140 c 128,-1,29
 238 108 238 108 291 108 c 0,30,24
 341 108 341 108 374.5 139.5 c 128,-1,25
EndSplineSet
Substitution2: "<3,3> Small Caps in Latin lookup 11 subtable" uni0259.sc
EndChar

StartChar: uni02BB
Encoding: 699 699 385
Width: 226
Flags: W
LayerCount: 2
Fore
SplineSet
176 491 m 1,0,-1
 50 519 l 1,1,-1
 80 700 l 1,2,-1
 176 700 l 1,3,-1
 176 491 l 1,0,-1
EndSplineSet
EndChar

StartChar: uni02BC
Encoding: 700 700 386
Width: 187
Flags: W
LayerCount: 2
Fore
SplineSet
40 700 m 1,0,-1
 148 700 l 1,1,-1
 128 439 l 1,2,-1
 40 439 l 1,3,-1
 40 700 l 1,0,-1
EndSplineSet
EndChar

StartChar: uni02BE
Encoding: 702 702 387
Width: 232
Flags: W
LayerCount: 2
Fore
SplineSet
60 637 m 1,0,1
 84 637 84 637 101 653 c 128,-1,2
 118 669 118 669 118 692 c 256,3,4
 118 715 118 715 101 731 c 128,-1,5
 84 747 84 747 60 747 c 1,6,-1
 60 811 l 1,7,8
 110 811 110 811 145 776 c 128,-1,9
 180 741 180 741 180 692 c 0,10,11
 180 642 180 642 145 607.5 c 128,-1,12
 110 573 110 573 60 573 c 1,13,-1
 60 637 l 1,0,1
EndSplineSet
EndChar

StartChar: uni02BF
Encoding: 703 703 388
Width: 231
Flags: W
LayerCount: 2
Fore
SplineSet
171 637 m 1,0,1
 148 637 148 637 131 653.5 c 128,-1,2
 114 670 114 670 114 692 c 256,3,4
 114 714 114 714 131 730.5 c 128,-1,5
 148 747 148 747 171 747 c 1,6,-1
 171 811 l 1,7,8
 122 811 122 811 86.5 776 c 128,-1,9
 51 741 51 741 51 692 c 256,10,11
 51 643 51 643 86 608 c 128,-1,12
 121 573 121 573 171 573 c 1,13,-1
 171 637 l 1,0,1
EndSplineSet
EndChar

StartChar: uni02C8
Encoding: 712 712 391
Width: 144
Flags: W
LayerCount: 2
Fore
SplineSet
20 514 m 1,0,-1
 20 700 l 1,1,-1
 124 700 l 1,2,-1
 124 514 l 1,3,-1
 20 514 l 1,0,-1
EndSplineSet
EndChar

StartChar: uni02CC
Encoding: 716 716 395
Width: 145
Flags: W
LayerCount: 2
Fore
SplineSet
20 -217 m 1,0,-1
 20 -31 l 1,1,-1
 125 -31 l 1,2,-1
 125 -217 l 1,3,-1
 20 -217 l 1,0,-1
EndSplineSet
EndChar

StartChar: gravecomb
Encoding: 768 768 402
Width: 0
Flags: W
LayerCount: 2
Fore
SplineSet
-160 765 m 1,0,-1
 -56 612 l 1,1,-1
 -168 602 l 1,2,-1
 -296 712 l 1,3,-1
 -160 765 l 1,0,-1
EndSplineSet
Substitution2: "<3,3> Small Caps in Latin lookup 11 subtable" gravecomb.sc
EndChar

StartChar: acutecomb
Encoding: 769 769 403
Width: 0
Flags: W
LayerCount: 2
Fore
SplineSet
-153 765 m 1,0,-1
 -17 712 l 1,1,-1
 -153 602 l 1,2,-1
 -265 612 l 1,3,-1
 -153 765 l 1,0,-1
EndSplineSet
Substitution2: "<3,3> Small Caps in Latin lookup 11 subtable" acutecomb.sc
EndChar

StartChar: uni0302
Encoding: 770 770 404
Width: 0
Flags: W
LayerCount: 2
Fore
SplineSet
-13 612 m 1,0,-1
 -135 612 l 1,1,-1
 -192 677 l 1,2,-1
 -250 612 l 1,3,-1
 -371 612 l 1,4,-1
 -263 760 l 1,5,-1
 -122 760 l 1,6,-1
 -13 612 l 1,0,-1
EndSplineSet
Substitution2: "<3,3> Small Caps in Latin lookup 11 subtable" uni0302.sc
EndChar

StartChar: tildecomb
Encoding: 771 771 405
Width: 0
Flags: W
LayerCount: 2
Fore
SplineSet
-47.5 639 m 128,-1,1
 -69 600 -69 600 -118 600 c 0,2,3
 -140 600 -140 600 -160 607.5 c 128,-1,4
 -180 615 -180 615 -207 629 c 0,5,6
 -219 636 -219 636 -231 641 c 128,-1,7
 -243 646 -243 646 -251 646 c 0,8,9
 -266 646 -266 646 -272 635.5 c 128,-1,10
 -278 625 -278 625 -279 603 c 1,11,-1
 -370 603 l 1,12,13
 -370 675 -370 675 -348.5 714 c 128,-1,14
 -327 753 -327 753 -278 753 c 0,15,16
 -256 753 -256 753 -236 745.5 c 128,-1,17
 -216 738 -216 738 -189 724 c 0,18,19
 -158 706 -158 706 -145 706 c 0,20,21
 -130 706 -130 706 -124 717 c 128,-1,22
 -118 728 -118 728 -117 749 c 1,23,-1
 -26 749 l 1,24,0
 -26 678 -26 678 -47.5 639 c 128,-1,1
EndSplineSet
Substitution2: "<3,3> Small Caps in Latin lookup 11 subtable" tildecomb.sc
EndChar

StartChar: uni0304
Encoding: 772 772 406
Width: 0
Flags: W
LayerCount: 2
Fore
SplineSet
-307 735 m 1,0,-1
 -4 735 l 1,1,-1
 -4 641 l 1,2,-1
 -307 641 l 1,3,-1
 -307 735 l 1,0,-1
EndSplineSet
Substitution2: "<3,3> Small Caps in Latin lookup 11 subtable" uni0304.sc
EndChar

StartChar: uni0306
Encoding: 774 774 407
Width: 0
Flags: W
LayerCount: 2
Fore
SplineSet
-221.5 713.5 m 128,-1,1
 -205 697 -205 697 -181 697 c 256,2,3
 -157 697 -157 697 -141 713.5 c 128,-1,4
 -125 730 -125 730 -123 757 c 1,5,-1
 -25 757 l 1,6,7
 -28 687 -28 687 -71 645 c 128,-1,8
 -114 603 -114 603 -181 603 c 0,9,10
 -249 603 -249 603 -292 645 c 128,-1,11
 -335 687 -335 687 -337 757 c 1,12,-1
 -239 757 l 1,13,0
 -238 730 -238 730 -221.5 713.5 c 128,-1,1
EndSplineSet
Substitution2: "<3,3> Small Caps in Latin lookup 11 subtable" uni0306.sc
EndChar

StartChar: uni0307
Encoding: 775 775 408
Width: 0
Flags: W
LayerCount: 2
Fore
SplineSet
-66.5 753 m 128,-1,1
 -43 729 -43 729 -43 691 c 256,2,3
 -43 653 -43 653 -66.5 629 c 128,-1,4
 -90 605 -90 605 -127 605 c 0,5,6
 -163 605 -163 605 -186.5 629.5 c 128,-1,7
 -210 654 -210 654 -210 691 c 0,8,9
 -210 729 -210 729 -186.5 753 c 128,-1,10
 -163 777 -163 777 -127 777 c 0,11,0
 -90 777 -90 777 -66.5 753 c 128,-1,1
EndSplineSet
Substitution2: "<3,3> Small Caps in Latin lookup 11 subtable" uni0307.sc
EndChar

StartChar: uni0308
Encoding: 776 776 409
Width: 0
Flags: W
LayerCount: 2
Fore
SplineSet
-261 737.5 m 128,-1,1
 -241 717 -241 717 -241 686 c 256,2,3
 -241 655 -241 655 -261 635 c 128,-1,4
 -281 615 -281 615 -311 615 c 0,5,6
 -342 615 -342 615 -361.5 635 c 128,-1,7
 -381 655 -381 655 -381 686 c 0,8,9
 -381 718 -381 718 -361.5 738 c 128,-1,10
 -342 758 -342 758 -311 758 c 0,11,0
 -281 758 -281 758 -261 737.5 c 128,-1,1
-74.5 738 m 128,-1,13
 -55 718 -55 718 -55 686 c 0,14,15
 -55 655 -55 655 -74.5 635 c 128,-1,16
 -94 615 -94 615 -125 615 c 0,17,18
 -155 615 -155 615 -175 635 c 128,-1,19
 -195 655 -195 655 -195 686 c 256,20,21
 -195 717 -195 717 -175 737.5 c 128,-1,22
 -155 758 -155 758 -125 758 c 0,23,12
 -94 758 -94 758 -74.5 738 c 128,-1,13
EndSplineSet
Substitution2: "<3,3> Small Caps in Latin lookup 11 subtable" uni0308.sc
EndChar

StartChar: hookabovecomb
Encoding: 777 777 410
Width: 0
Flags: W
LayerCount: 2
Fore
SplineSet
-56.5 782 m 128,-1,1
 -27 758 -27 758 -27 716 c 0,2,3
 -27 683 -27 683 -49.5 647.5 c 128,-1,4
 -72 612 -72 612 -110 581 c 1,5,-1
 -182 612 l 1,6,7
 -162 631 -162 631 -150.5 652 c 128,-1,8
 -139 673 -139 673 -139 690 c 0,9,10
 -139 702 -139 702 -147 709 c 128,-1,11
 -155 716 -155 716 -167 716 c 0,12,13
 -185 716 -185 716 -204 703 c 1,14,-1
 -246 771 l 1,15,16
 -194 806 -194 806 -135 806 c 0,17,0
 -86 806 -86 806 -56.5 782 c 128,-1,1
EndSplineSet
Substitution2: "<3,3> Small Caps in Latin lookup 11 subtable" hookabovecomb.sc
EndChar

StartChar: uni030A
Encoding: 778 778 411
Width: 0
Flags: W
LayerCount: 2
Fore
SplineSet
-86 776 m 128,-1,1
 -52 742 -52 742 -52 695 c 0,2,3
 -52 647 -52 647 -86 613 c 128,-1,4
 -120 579 -120 579 -168 579 c 256,5,6
 -216 579 -216 579 -250 613 c 128,-1,7
 -284 647 -284 647 -284 695 c 0,8,9
 -284 742 -284 742 -250 776 c 128,-1,10
 -216 810 -216 810 -168 810 c 256,11,0
 -120 810 -120 810 -86 776 c 128,-1,1
-201.5 727 m 128,-1,13
 -215 714 -215 714 -215 695 c 256,14,15
 -215 676 -215 676 -201.5 662.5 c 128,-1,16
 -188 649 -188 649 -168 649 c 256,17,18
 -148 649 -148 649 -134.5 662.5 c 128,-1,19
 -121 676 -121 676 -121 695 c 256,20,21
 -121 714 -121 714 -134.5 727 c 128,-1,22
 -148 740 -148 740 -168 740 c 256,23,12
 -188 740 -188 740 -201.5 727 c 128,-1,13
EndSplineSet
EndChar

StartChar: uni030B
Encoding: 779 779 412
Width: 0
Flags: W
LayerCount: 2
Fore
SplineSet
-343 769 m 1,0,-1
 -222 722 l 1,1,-1
 -313 602 l 1,2,-1
 -423 612 l 1,3,-1
 -343 769 l 1,0,-1
-158 769 m 1,4,-1
 -38 722 l 1,5,-1
 -129 602 l 1,6,-1
 -238 612 l 1,7,-1
 -158 769 l 1,4,-1
EndSplineSet
Substitution2: "<3,3> Small Caps in Latin lookup 11 subtable" uni030B.sc
EndChar

StartChar: uni030C
Encoding: 780 780 413
Width: 0
Flags: W
LayerCount: 2
Fore
SplineSet
-145 759 m 1,0,-1
 -24 759 l 1,1,-1
 -132 611 l 1,2,-1
 -273 611 l 1,3,-1
 -382 759 l 1,4,-1
 -260 759 l 1,5,-1
 -202 694 l 1,6,-1
 -145 759 l 1,0,-1
EndSplineSet
Substitution2: "<3,3> Small Caps in Latin lookup 11 subtable" uni030C.sc
EndChar

StartChar: uni030F
Encoding: 783 783 414
Width: 0
Flags: W
LayerCount: 2
Fore
SplineSet
-319 769 m 1,0,-1
 -240 612 l 1,1,-1
 -349 602 l 1,2,-1
 -440 722 l 1,3,-1
 -319 769 l 1,0,-1
-135 769 m 1,4,-1
 -55 612 l 1,5,-1
 -164 602 l 1,6,-1
 -255 722 l 1,7,-1
 -135 769 l 1,4,-1
EndSplineSet
Substitution2: "<3,3> Small Caps in Latin lookup 11 subtable" uni030F.sc
EndChar

StartChar: uni0311
Encoding: 785 785 415
Width: 0
Flags: W
LayerCount: 2
Fore
SplineSet
-337 603 m 1,0,1
 -335 673 -335 673 -292 715 c 128,-1,2
 -249 757 -249 757 -181 757 c 0,3,4
 -114 757 -114 757 -71 715 c 128,-1,5
 -28 673 -28 673 -25 603 c 1,6,-1
 -123 603 l 1,7,8
 -125 629 -125 629 -141 646 c 128,-1,9
 -157 663 -157 663 -181 663 c 256,10,11
 -205 663 -205 663 -221 646 c 128,-1,12
 -237 629 -237 629 -239 603 c 1,13,-1
 -337 603 l 1,0,1
EndSplineSet
Substitution2: "<3,3> Small Caps in Latin lookup 11 subtable" uni0311.sc
EndChar

StartChar: uni0312
Encoding: 786 786 416
Width: 0
Flags: W
LayerCount: 2
Fore
SplineSet
-71 611 m 1,0,-1
 -201 611 l 1,1,-1
 -133 781 l 1,2,-1
 -38 781 l 1,3,-1
 -71 611 l 1,0,-1
EndSplineSet
EndChar

StartChar: uni031B
Encoding: 795 795 417
Width: 0
Flags: W
LayerCount: 2
Fore
SplineSet
-44 589 m 0,1,2
 -44 524 -44 524 -92 488 c 128,-1,3
 -140 452 -140 452 -229 452 c 1,4,-1
 -222 538 l 1,5,6
 -191 538 -191 538 -175.5 552 c 128,-1,7
 -160 566 -160 566 -160 589 c 0,8,9
 -160 614 -160 614 -176 641 c 1,10,-1
 -65 683 l 1,11,0
 -44 631 -44 631 -44 589 c 0,1,2
EndSplineSet
EndChar

StartChar: dotbelowcomb
Encoding: 803 803 418
Width: 0
Flags: W
LayerCount: 2
Fore
SplineSet
-66.5 -94 m 128,-1,1
 -43 -118 -43 -118 -43 -156 c 256,2,3
 -43 -194 -43 -194 -66.5 -218 c 128,-1,4
 -90 -242 -90 -242 -127 -242 c 0,5,6
 -163 -242 -163 -242 -186.5 -217.5 c 128,-1,7
 -210 -193 -210 -193 -210 -156 c 0,8,9
 -210 -118 -210 -118 -186.5 -94 c 128,-1,10
 -163 -70 -163 -70 -127 -70 c 0,11,0
 -90 -70 -90 -70 -66.5 -94 c 128,-1,1
EndSplineSet
Substitution2: "<3,3> Small Caps in Latin lookup 11 subtable" dotbelowcomb.sc
EndChar

StartChar: uni0324
Encoding: 804 804 419
Width: 0
Flags: W
LayerCount: 2
Fore
SplineSet
-248 -88.5 m 128,-1,1
 -228 -109 -228 -109 -228 -140 c 256,2,3
 -228 -171 -228 -171 -248 -191 c 128,-1,4
 -268 -211 -268 -211 -298 -211 c 0,5,6
 -329 -211 -329 -211 -348.5 -191 c 128,-1,7
 -368 -171 -368 -171 -368 -140 c 0,8,9
 -368 -108 -368 -108 -348.5 -88 c 128,-1,10
 -329 -68 -329 -68 -298 -68 c 0,11,0
 -268 -68 -268 -68 -248 -88.5 c 128,-1,1
-61.5 -88 m 128,-1,13
 -42 -108 -42 -108 -42 -140 c 0,14,15
 -42 -171 -42 -171 -61.5 -191 c 128,-1,16
 -81 -211 -81 -211 -112 -211 c 0,17,18
 -142 -211 -142 -211 -162 -191 c 128,-1,19
 -182 -171 -182 -171 -182 -140 c 256,20,21
 -182 -109 -182 -109 -162 -88.5 c 128,-1,22
 -142 -68 -142 -68 -112 -68 c 0,23,12
 -81 -68 -81 -68 -61.5 -88 c 128,-1,13
EndSplineSet
Substitution2: "<3,3> Small Caps in Latin lookup 11 subtable" uni0324.sc
EndChar

StartChar: uni0326
Encoding: 806 806 420
Width: 0
Flags: W
LayerCount: 2
Fore
SplineSet
-173 -59 m 1,0,-1
 -43 -59 l 1,1,-1
 -111 -229 l 1,2,-1
 -206 -229 l 1,3,-1
 -173 -59 l 1,0,-1
EndSplineSet
EndChar

StartChar: uni0327
Encoding: 807 807 421
Width: 0
Flags: W
LayerCount: 2
Fore
SplineSet
-96 0 m 1,0,-1
 -116 -54 l 1,1,2
 -74 -63 -74 -63 -54 -84.5 c 128,-1,3
 -34 -106 -34 -106 -34 -135 c 0,4,5
 -34 -181 -34 -181 -69 -205 c 128,-1,6
 -104 -229 -104 -229 -157 -229 c 0,7,8
 -208 -229 -208 -229 -262 -208 c 1,9,-1
 -236 -133 l 1,10,11
 -209 -143 -209 -143 -182 -143 c 0,12,13
 -164 -143 -164 -143 -152.5 -136.5 c 128,-1,14
 -141 -130 -141 -130 -141 -121 c 0,15,16
 -141 -109 -141 -109 -155 -102.5 c 128,-1,17
 -169 -96 -169 -96 -193 -96 c 2,18,-1
 -220 -96 l 1,19,-1
 -186 9 l 1,20,-1
 -96 0 l 1,0,-1
EndSplineSet
Substitution2: "<3,3> Small Caps in Latin lookup 11 subtable" uni0327.sc
EndChar

StartChar: uni0328
Encoding: 808 808 422
Width: 0
Flags: W
LayerCount: 2
Fore
SplineSet
-41 0 m 1,0,1
 -83 -30 -83 -30 -102.5 -53.5 c 128,-1,2
 -122 -77 -122 -77 -122 -100 c 0,3,4
 -122 -127 -122 -127 -98 -127 c 0,5,6
 -81 -127 -81 -127 -68 -119 c 1,7,-1
 -39 -207 l 1,8,9
 -87 -228 -87 -228 -132 -228 c 0,10,11
 -183 -228 -183 -228 -212.5 -201 c 128,-1,12
 -242 -174 -242 -174 -242 -127 c 0,13,14
 -242 -84 -242 -84 -215 -41.5 c 128,-1,15
 -188 1 -188 1 -131 39 c 1,16,-1
 -41 0 l 1,0,1
EndSplineSet
EndChar

StartChar: uni032E
Encoding: 814 814 423
Width: 0
Flags: W
LayerCount: 2
Fore
SplineSet
-221.5 -99.5 m 128,-1,1
 -205 -116 -205 -116 -181 -116 c 256,2,3
 -157 -116 -157 -116 -141 -99.5 c 128,-1,4
 -125 -83 -125 -83 -123 -56 c 1,5,-1
 -25 -56 l 1,6,7
 -28 -126 -28 -126 -71 -168 c 128,-1,8
 -114 -210 -114 -210 -181 -210 c 0,9,10
 -249 -210 -249 -210 -292 -168 c 128,-1,11
 -335 -126 -335 -126 -337 -56 c 1,12,-1
 -239 -56 l 1,13,0
 -238 -83 -238 -83 -221.5 -99.5 c 128,-1,1
EndSplineSet
EndChar

StartChar: uni0331
Encoding: 817 817 424
Width: 0
Flags: W
LayerCount: 2
Fore
SplineSet
-337 -78 m 1,0,-1
 -34 -78 l 1,1,-1
 -34 -172 l 1,2,-1
 -337 -172 l 1,3,-1
 -337 -78 l 1,0,-1
EndSplineSet
EndChar

StartChar: uni0335
Encoding: 821 821 425
Width: 0
Flags: W
LayerCount: 2
Fore
SplineSet
-383 481 m 1,0,-1
 -8 481 l 1,1,-1
 -8 394 l 1,2,-1
 -383 394 l 1,3,-1
 -383 481 l 1,0,-1
EndSplineSet
EndChar

StartChar: uni0336
Encoding: 822 822 426
Width: 0
Flags: W
LayerCount: 2
Fore
SplineSet
-517 481 m 1,0,-1
 -87 481 l 1,1,-1
 -87 394 l 1,2,-1
 -517 394 l 1,3,-1
 -517 481 l 1,0,-1
EndSplineSet
EndChar

StartChar: uni0337
Encoding: 823 823 427
Width: 0
Flags: W
LayerCount: 2
Fore
SplineSet
-13 563 m 1,0,-1
 -177 90 l 1,1,-1
 -307 90 l 1,2,-1
 -143 563 l 1,3,-1
 -13 563 l 1,0,-1
EndSplineSet
EndChar

StartChar: uni0338
Encoding: 824 824 428
Width: 0
Flags: W
LayerCount: 2
Fore
SplineSet
-338 0 m 1,0,-1
 -80 742 l 1,1,-1
 49 742 l 1,2,-1
 -208 0 l 1,3,-1
 -338 0 l 1,0,-1
EndSplineSet
EndChar

StartChar: uni0394
Encoding: 916 916 429
Width: 759
Flags: W
LayerCount: 2
Fore
SplineSet
464 700 m 1,0,-1
 763 0 l 1,1,-1
 -3 0 l 1,2,-1
 301 700 l 1,3,-1
 464 700 l 1,0,-1
209 120 m 1,4,-1
 546 120 l 1,5,-1
 378 535 l 1,6,-1
 209 120 l 1,4,-1
EndSplineSet
EndChar

StartChar: uni03A9
Encoding: 937 937 430
Width: 865
Flags: W
LayerCount: 2
Fore
SplineSet
616.5 239.5 m 128,-1,1
 653 299 653 299 653 364 c 0,2,3
 653 421 653 421 626 469 c 128,-1,4
 599 517 599 517 549 545 c 128,-1,5
 499 573 499 573 432 573 c 0,6,7
 366 573 366 573 316 545 c 128,-1,8
 266 517 266 517 239.5 469 c 128,-1,9
 213 421 213 421 213 364 c 0,10,11
 213 298 213 298 249 239 c 128,-1,12
 285 180 285 180 354 143 c 1,13,-1
 354 0 l 1,14,-1
 8 0 l 1,15,-1
 8 129 l 1,16,-1
 202 129 l 1,17,18
 142 176 142 176 107 244.5 c 128,-1,19
 72 313 72 313 72 385 c 0,20,21
 72 475 72 475 119 549 c 128,-1,22
 166 623 166 623 248.5 665 c 128,-1,23
 331 707 331 707 432 707 c 0,24,25
 534 707 534 707 616.5 664.5 c 128,-1,26
 699 622 699 622 746 548.5 c 128,-1,27
 793 475 793 475 793 384 c 0,28,29
 793 314 793 314 758 244.5 c 128,-1,30
 723 175 723 175 664 129 c 1,31,-1
 857 129 l 1,32,-1
 857 0 l 1,33,-1
 512 0 l 1,34,-1
 512 143 l 1,35,0
 580 180 580 180 616.5 239.5 c 128,-1,1
EndSplineSet
EndChar

StartChar: uni03BC
Encoding: 956 956 431
Width: 681
Flags: W
LayerCount: 2
Fore
SplineSet
606 538 m 1,0,-1
 606 0 l 1,1,-1
 453 0 l 1,2,-1
 453 95 l 1,3,4
 398 -6 398 -6 273 -6 c 0,5,6
 253 -6 253 -6 233 -3 c 1,7,-1
 233 -194 l 1,8,-1
 79 -194 l 1,9,-1
 79 538 l 1,10,-1
 233 538 l 1,11,-1
 233 244 l 2,12,13
 233 193 233 193 260 164 c 128,-1,14
 287 135 287 135 334 135 c 0,15,16
 389 136 389 136 421 174 c 128,-1,17
 453 212 453 212 453 272 c 2,18,-1
 453 538 l 1,19,-1
 606 538 l 1,0,-1
EndSplineSet
EndChar

StartChar: pi
Encoding: 960 960 432
Width: 728
Flags: W
LayerCount: 2
Fore
SplineSet
584 425 m 1,0,-1
 584 0 l 1,1,-1
 457 0 l 1,2,-1
 457 425 l 1,3,-1
 349 425 l 1,4,-1
 302 0 l 1,5,-1
 175 0 l 1,6,-1
 221 425 l 1,7,-1
 183 425 l 2,8,9
 149 425 149 425 127 405.5 c 128,-1,10
 105 386 105 386 106 356 c 0,11,12
 106 341 106 341 112.5 321.5 c 128,-1,13
 119 302 119 302 129 286 c 1,14,-1
 23 247 l 1,15,16
 6 278 6 278 -4 315.5 c 128,-1,17
 -14 353 -14 353 -14 385 c 0,18,19
 -14 428 -14 428 9 463 c 128,-1,20
 32 498 32 498 72.5 518 c 128,-1,21
 113 538 113 538 163 538 c 2,22,-1
 716 538 l 1,23,-1
 717 425 l 1,24,-1
 584 425 l 1,0,-1
EndSplineSet
EndChar

StartChar: uni1E08
Encoding: 7688 7688 433
Width: 694
Flags: W
LayerCount: 2
Fore
SplineSet
532 863 m 1,0,-1
 396 753 l 1,1,-1
 284 763 l 1,2,-1
 396 916 l 1,3,-1
 532 863 l 1,0,-1
563 31.5 m 128,-1,5
 498 -1 498 -1 430 -9 c 1,6,-1
 413 -54 l 1,7,8
 455 -63 455 -63 475 -84.5 c 128,-1,9
 495 -106 495 -106 495 -135 c 0,10,11
 495 -181 495 -181 460 -205 c 128,-1,12
 425 -229 425 -229 372 -229 c 0,13,14
 321 -229 321 -229 267 -208 c 1,15,-1
 293 -133 l 1,16,17
 320 -143 320 -143 347 -143 c 0,18,19
 365 -143 365 -143 376.5 -136.5 c 128,-1,20
 388 -130 388 -130 388 -121 c 0,21,22
 388 -109 388 -109 374 -102.5 c 128,-1,23
 360 -96 360 -96 336 -96 c 2,24,-1
 309 -96 l 1,25,-1
 338 -7 l 1,26,27
 248 5 248 5 177.5 55 c 128,-1,28
 107 105 107 105 67 182.5 c 128,-1,29
 27 260 27 260 27 352 c 0,30,31
 27 453 27 453 76 535 c 128,-1,32
 125 617 125 617 210.5 664 c 128,-1,33
 296 711 296 711 400 711 c 0,34,35
 476 711 476 711 550 679.5 c 128,-1,36
 624 648 624 648 676 594 c 1,37,-1
 584 481 l 1,38,39
 548 524 548 524 499.5 548.5 c 128,-1,40
 451 573 451 573 402 573 c 0,41,42
 343 573 343 573 294 544 c 128,-1,43
 245 515 245 515 217 465 c 128,-1,44
 189 415 189 415 189 354 c 256,45,46
 189 293 189 293 217 242.5 c 128,-1,47
 245 192 245 192 294 162.5 c 128,-1,48
 343 133 343 133 402 133 c 0,49,50
 449 133 449 133 497.5 155.5 c 128,-1,51
 546 178 546 178 584 216 c 1,52,-1
 677 115 l 1,53,4
 628 64 628 64 563 31.5 c 128,-1,5
EndSplineSet
EndChar

StartChar: uni1E09
Encoding: 7689 7689 434
Width: 563
Flags: W
LayerCount: 2
Fore
SplineSet
450 712 m 1,0,-1
 314 602 l 1,1,-1
 202 612 l 1,2,-1
 314 765 l 1,3,-1
 450 712 l 1,0,-1
461 33.5 m 128,-1,5
 410 3 410 3 344 -4 c 1,6,-1
 325 -54 l 1,7,8
 367 -63 367 -63 387 -84.5 c 128,-1,9
 407 -106 407 -106 407 -135 c 0,10,11
 407 -181 407 -181 372 -205 c 128,-1,12
 337 -229 337 -229 284 -229 c 0,13,14
 233 -229 233 -229 179 -208 c 1,15,-1
 205 -133 l 1,16,17
 232 -143 232 -143 259 -143 c 0,18,19
 277 -143 277 -143 288.5 -136.5 c 128,-1,20
 300 -130 300 -130 300 -121 c 0,21,22
 300 -109 300 -109 286 -102.5 c 128,-1,23
 272 -96 272 -96 248 -96 c 2,24,-1
 221 -96 l 1,25,-1
 251 -2 l 1,26,27
 149 13 149 13 88.5 86 c 128,-1,28
 28 159 28 159 28 267 c 0,29,30
 28 349 28 349 62.5 411.5 c 128,-1,31
 97 474 97 474 159.5 508.5 c 128,-1,32
 222 543 222 543 304 543 c 0,33,34
 381 543 381 543 441 513.5 c 128,-1,35
 501 484 501 484 537 430 c 1,36,-1
 433 355 l 1,37,38
 387 412 387 412 313 412 c 0,39,40
 255 412 255 412 218.5 372.5 c 128,-1,41
 182 333 182 333 182 268 c 256,42,43
 182 203 182 203 218 162.5 c 128,-1,44
 254 122 254 122 310 122 c 0,45,46
 394 122 394 122 435 185 c 1,47,-1
 541 113 l 1,48,4
 512 64 512 64 461 33.5 c 128,-1,5
EndSplineSet
Substitution2: "<3,3> Small Caps in Latin lookup 11 subtable" uni1E09.sc
EndChar

StartChar: uni1E1C
Encoding: 7708 7708 443
Width: 668
Flags: W
LayerCount: 2
Fore
SplineSet
221 798 m 128,-1,1
 178 840 178 840 176 910 c 1,2,-1
 274 910 l 1,3,4
 275 883 275 883 291.5 866.5 c 128,-1,5
 308 850 308 850 332 850 c 256,6,7
 356 850 356 850 372 866.5 c 128,-1,8
 388 883 388 883 390 910 c 1,9,-1
 488 910 l 1,10,11
 485 840 485 840 442 798 c 128,-1,12
 399 756 399 756 332 756 c 0,13,0
 264 756 264 756 221 798 c 128,-1,1
404 0 m 1,14,-1
 384 -54 l 1,15,16
 426 -63 426 -63 446 -84.5 c 128,-1,17
 466 -106 466 -106 466 -135 c 0,18,19
 466 -181 466 -181 431 -205 c 128,-1,20
 396 -229 396 -229 343 -229 c 0,21,22
 292 -229 292 -229 238 -208 c 1,23,-1
 264 -133 l 1,24,25
 291 -143 291 -143 318 -143 c 0,26,27
 336 -143 336 -143 347.5 -136.5 c 128,-1,28
 359 -130 359 -130 359 -121 c 0,29,30
 359 -109 359 -109 345 -102.5 c 128,-1,31
 331 -96 331 -96 307 -96 c 2,32,-1
 280 -96 l 1,33,-1
 311 0 l 1,34,-1
 77 0 l 1,35,-1
 77 700 l 1,36,-1
 610 700 l 1,37,-1
 610 569 l 1,38,-1
 235 569 l 1,39,-1
 235 417 l 1,40,-1
 572 417 l 1,41,-1
 572 286 l 1,42,-1
 235 286 l 1,43,-1
 235 131 l 1,44,-1
 621 131 l 1,45,-1
 621 0 l 1,46,-1
 404 0 l 1,14,-1
EndSplineSet
EndChar

StartChar: uni1E1D
Encoding: 7709 7709 444
Width: 597
Flags: W
LayerCount: 2
Fore
SplineSet
182 645 m 128,-1,1
 139 687 139 687 137 757 c 1,2,-1
 235 757 l 1,3,4
 236 730 236 730 252.5 713.5 c 128,-1,5
 269 697 269 697 293 697 c 256,6,7
 317 697 317 697 333 713.5 c 128,-1,8
 349 730 349 730 351 757 c 1,9,-1
 449 757 l 1,10,11
 446 687 446 687 403 645 c 128,-1,12
 360 603 360 603 293 603 c 0,13,0
 225 603 225 603 182 645 c 128,-1,1
502.5 468 m 128,-1,15
 570 393 570 393 570 259 c 0,16,17
 570 235 570 235 569 222 c 1,18,-1
 183 222 l 1,19,20
 196 171 196 171 233 142.5 c 128,-1,21
 270 114 270 114 322 114 c 0,22,23
 360 114 360 114 395 128.5 c 128,-1,24
 430 143 430 143 458 171 c 1,25,-1
 539 89 l 1,26,27
 470 12 470 12 357 -3 c 1,28,-1
 338 -54 l 1,29,30
 380 -63 380 -63 400 -84.5 c 128,-1,31
 420 -106 420 -106 420 -135 c 0,32,33
 420 -181 420 -181 385 -205 c 128,-1,34
 350 -229 350 -229 297 -229 c 0,35,36
 246 -229 246 -229 192 -208 c 1,37,-1
 218 -133 l 1,38,39
 245 -143 245 -143 272 -143 c 0,40,41
 290 -143 290 -143 301.5 -136.5 c 128,-1,42
 313 -130 313 -130 313 -121 c 0,43,44
 313 -109 313 -109 299 -102.5 c 128,-1,45
 285 -96 285 -96 261 -96 c 2,46,-1
 234 -96 l 1,47,-1
 264 -3 l 1,48,49
 155 10 155 10 91.5 83 c 128,-1,50
 28 156 28 156 28 267 c 0,51,52
 28 349 28 349 63 411.5 c 128,-1,53
 98 474 98 474 161 508.5 c 128,-1,54
 224 543 224 543 305 543 c 0,55,14
 435 543 435 543 502.5 468 c 128,-1,15
425 313 m 1,56,57
 423 366 423 366 391 398 c 128,-1,58
 359 430 359 430 306 430 c 0,59,60
 256 430 256 430 222.5 398.5 c 128,-1,61
 189 367 189 367 180 313 c 1,62,-1
 425 313 l 1,56,57
EndSplineSet
Substitution2: "<3,3> Small Caps in Latin lookup 11 subtable" uni1E1D.sc
EndChar

StartChar: uni1E9E
Encoding: 7838 7838 506
Width: 698
Flags: W
LayerCount: 2
Fore
SplineSet
633 328 m 128,-1,1
 672 278 672 278 672 206 c 0,2,3
 672 111 672 111 604.5 55.5 c 128,-1,4
 537 0 537 0 414 0 c 2,5,-1
 333 0 l 1,6,-1
 333 129 l 1,7,-1
 400 129 l 2,8,9
 451 129 451 129 480.5 152 c 128,-1,10
 510 175 510 175 510 215 c 0,11,12
 510 256 510 256 481 279 c 128,-1,13
 452 302 452 302 400 302 c 2,14,-1
 365 302 l 1,15,-1
 365 410 l 1,16,-1
 486 553 l 1,17,18
 444 573 444 573 386 573 c 0,19,20
 307 573 307 573 263.5 528 c 128,-1,21
 220 483 220 483 220 403 c 2,22,-1
 220 0 l 1,23,-1
 62 0 l 1,24,-1
 62 395 l 2,25,26
 62 543 62 543 145 625 c 128,-1,27
 228 707 228 707 376 707 c 0,28,29
 515 707 515 707 618 633 c 1,30,-1
 618 512 l 1,31,-1
 522 398 l 1,32,0
 594 378 594 378 633 328 c 128,-1,1
EndSplineSet
EndChar

StartChar: figuredash
Encoding: 8210 8210 603
Width: 617
Flags: W
LayerCount: 2
Fore
SplineSet
0 357 m 1,0,-1
 617 357 l 1,1,-1
 617 255 l 1,2,-1
 0 255 l 1,3,-1
 0 357 l 1,0,-1
EndSplineSet
EndChar

StartChar: endash
Encoding: 8211 8211 604
Width: 407
Flags: W
LayerCount: 2
Fore
SplineSet
0 357 m 1,0,-1
 407 357 l 1,1,-1
 407 255 l 1,2,-1
 0 255 l 1,3,-1
 0 357 l 1,0,-1
EndSplineSet
EndChar

StartChar: emdash
Encoding: 8212 8212 605
Width: 662
Flags: W
LayerCount: 2
Fore
SplineSet
0 357 m 1,0,-1
 662 357 l 1,1,-1
 662 255 l 1,2,-1
 0 255 l 1,3,-1
 0 357 l 1,0,-1
EndSplineSet
EndChar

StartChar: quoteleft
Encoding: 8216 8216 607
Width: 232
Flags: W
LayerCount: 2
Fore
SplineSet
179 553 m 0,1,2
 179 519 179 519 157 497 c 128,-1,3
 135 475 135 475 102 475 c 0,4,5
 71 475 71 475 49 496 c 128,-1,6
 27 517 27 517 27 553 c 0,7,8
 27 569 27 569 32 582.5 c 128,-1,9
 37 596 37 596 47 615 c 2,10,-1
 118 742 l 1,11,-1
 193 742 l 1,12,-1
 146 616 l 1,13,0
 179 595 179 595 179 553 c 0,1,2
EndSplineSet
Substitution2: "<3,3> Small Caps in Latin lookup 11 subtable" quoteleft.sc
EndChar

StartChar: quoteright
Encoding: 8217 8217 608
Width: 232
Flags: W
LayerCount: 2
Fore
SplineSet
171 721 m 128,-1,1
 193 700 193 700 193 664 c 0,2,3
 193 648 193 648 188 634.5 c 128,-1,4
 183 621 183 621 173 602 c 2,5,-1
 102 475 l 1,6,-1
 27 475 l 1,7,-1
 74 601 l 1,8,9
 41 622 41 622 41 664 c 0,10,11
 41 698 41 698 63 720 c 128,-1,12
 85 742 85 742 118 742 c 0,13,0
 149 742 149 742 171 721 c 128,-1,1
EndSplineSet
Substitution2: "<3,3> Small Caps in Latin lookup 11 subtable" quoteright.sc
EndChar

StartChar: quotesinglbase
Encoding: 8218 8218 609
Width: 232
Flags: W
LayerCount: 2
Fore
SplineSet
171 128 m 128,-1,1
 193 107 193 107 193 71 c 0,2,3
 193 55 193 55 188 41.5 c 128,-1,4
 183 28 183 28 173 9 c 2,5,-1
 102 -118 l 1,6,-1
 27 -118 l 1,7,-1
 74 8 l 1,8,9
 41 29 41 29 41 71 c 0,10,11
 41 105 41 105 63 127 c 128,-1,12
 85 149 85 149 118 149 c 0,13,0
 149 149 149 149 171 128 c 128,-1,1
EndSplineSet
EndChar

StartChar: dagger
Encoding: 8224 8224 613
Width: 561
Flags: W
LayerCount: 2
Fore
SplineSet
204 699 m 1,0,-1
 353 699 l 1,1,-1
 353 492 l 1,2,-1
 545 492 l 1,3,-1
 545 361 l 1,4,-1
 353 361 l 1,5,-1
 353 -188 l 1,6,-1
 204 -188 l 1,7,-1
 204 361 l 1,8,-1
 17 361 l 1,9,-1
 17 492 l 1,10,-1
 204 492 l 1,11,-1
 204 699 l 1,0,-1
EndSplineSet
EndChar

StartChar: daggerdbl
Encoding: 8225 8225 614
Width: 561
Flags: W
LayerCount: 2
Fore
SplineSet
545 361 m 1,0,-1
 353 361 l 1,1,-1
 353 165 l 1,2,-1
 545 165 l 1,3,-1
 545 34 l 1,4,-1
 353 34 l 1,5,-1
 353 -188 l 1,6,-1
 204 -188 l 1,7,-1
 204 34 l 1,8,-1
 17 34 l 1,9,-1
 17 165 l 1,10,-1
 204 165 l 1,11,-1
 204 361 l 1,12,-1
 17 361 l 1,13,-1
 17 492 l 1,14,-1
 204 492 l 1,15,-1
 204 699 l 1,16,-1
 353 699 l 1,17,-1
 353 492 l 1,18,-1
 545 492 l 1,19,-1
 545 361 l 1,0,-1
EndSplineSet
EndChar

StartChar: bullet
Encoding: 8226 8226 615
Width: 312
Flags: W
LayerCount: 2
Fore
SplineSet
238.5 359 m 128,-1,1
 271 326 271 326 271 274 c 0,2,3
 271 221 271 221 238.5 187.5 c 128,-1,4
 206 154 206 154 155 154 c 0,5,6
 105 154 105 154 72.5 188 c 128,-1,7
 40 222 40 222 40 274 c 256,8,9
 40 326 40 326 72.5 359 c 128,-1,10
 105 392 105 392 155 392 c 0,11,0
 206 392 206 392 238.5 359 c 128,-1,1
EndSplineSet
EndChar

StartChar: ellipsis
Encoding: 8230 8230 616
Width: 656
Flags: W
LayerCount: 2
Fore
SplineSet
168 124.5 m 128,-1,1
 189 103 189 103 189 69 c 256,2,3
 189 35 189 35 168 13 c 128,-1,4
 147 -9 147 -9 115 -9 c 256,5,6
 83 -9 83 -9 61.5 13 c 128,-1,7
 40 35 40 35 40 69 c 256,8,9
 40 103 40 103 61.5 124.5 c 128,-1,10
 83 146 83 146 115 146 c 256,11,0
 147 146 147 146 168 124.5 c 128,-1,1
381 124.5 m 128,-1,13
 402 103 402 103 402 69 c 256,14,15
 402 35 402 35 381 13 c 128,-1,16
 360 -9 360 -9 328 -9 c 256,17,18
 296 -9 296 -9 274.5 13 c 128,-1,19
 253 35 253 35 253 69 c 256,20,21
 253 103 253 103 274.5 124.5 c 128,-1,22
 296 146 296 146 328 146 c 256,23,12
 360 146 360 146 381 124.5 c 128,-1,13
594 124.5 m 128,-1,25
 615 103 615 103 615 69 c 256,26,27
 615 35 615 35 594 13 c 128,-1,28
 573 -9 573 -9 541 -9 c 256,29,30
 509 -9 509 -9 487.5 13 c 128,-1,31
 466 35 466 35 466 69 c 256,32,33
 466 103 466 103 487.5 124.5 c 128,-1,34
 509 146 509 146 541 146 c 256,35,24
 573 146 573 146 594 124.5 c 128,-1,25
EndSplineSet
EndChar

StartChar: minute
Encoding: 8242 8242 618
Width: 224
Flags: W
LayerCount: 2
Fore
SplineSet
57 700 m 1,0,-1
 181 700 l 1,1,-1
 134 458 l 1,2,-1
 40 458 l 1,3,-1
 57 700 l 1,0,-1
EndSplineSet
EndChar

StartChar: guilsinglleft
Encoding: 8249 8249 620
Width: 279
Flags: W
LayerCount: 2
Fore
SplineSet
128 446 m 1,0,-1
 254 446 l 1,1,-1
 147 265 l 1,2,-1
 254 83 l 1,3,-1
 128 83 l 1,4,-1
 9 265 l 1,5,-1
 128 446 l 1,0,-1
EndSplineSet
Substitution2: "<3,3> Small Caps in Latin lookup 11 subtable" guilsinglleft.sc
Substitution2: "'rtla' Right to Left Alternates in Latin lookup 0 subtable" guilsinglright
EndChar

StartChar: guilsinglright
Encoding: 8250 8250 621
Width: 279
Flags: W
LayerCount: 2
Fore
SplineSet
151 83 m 1,0,-1
 25 83 l 1,1,-1
 132 264 l 1,2,-1
 25 446 l 1,3,-1
 151 446 l 1,4,-1
 270 264 l 1,5,-1
 151 83 l 1,0,-1
EndSplineSet
Substitution2: "<3,3> Small Caps in Latin lookup 11 subtable" guilsinglright.sc
Substitution2: "'rtla' Right to Left Alternates in Latin lookup 0 subtable" guilsinglleft
EndChar

StartChar: fraction
Encoding: 8260 8260 622
Width: 105
Flags: W
LayerCount: 2
Fore
SplineSet
247 700 m 1,0,-1
 357 700 l 1,1,-1
 -147 0 l 1,2,-1
 -259 0 l 1,3,-1
 247 700 l 1,0,-1
EndSplineSet
EndChar

StartChar: colonmonetary
Encoding: 8353 8353 640
Width: 694
Flags: W
LayerCount: 2
Fore
SplineSet
510 9 m 1,1,-1
 482 -150 l 1,2,-1
 377 -150 l 1,3,-1
 401 -11 l 1,4,-1
 394 -11 l 2,5,6
 368 -11 368 -11 341 -8 c 1,7,-1
 316 -150 l 1,8,-1
 211 -150 l 1,9,-1
 241 20 l 1,10,11
 144 62 144 62 85.5 151 c 128,-1,12
 27 240 27 240 27 352 c 0,13,14
 27 468 27 468 92 558.5 c 128,-1,15
 157 649 157 649 264 688 c 1,16,-1
 292 845 l 1,17,-1
 397 845 l 1,18,-1
 373 710 l 1,19,20
 382 711 382 711 400 711 c 0,21,22
 411 711 411 711 433 709 c 1,23,-1
 458 845 l 1,24,-1
 563 845 l 1,25,-1
 534 686 l 1,26,27
 618 655 618 655 676 594 c 1,28,-1
 584 481 l 1,29,30
 548 524 548 524 499.5 548.5 c 128,-1,31
 451 573 451 573 402 573 c 0,32,33
 343 573 343 573 294 544 c 128,-1,34
 245 515 245 515 217 465 c 128,-1,35
 189 415 189 415 189 354 c 256,36,37
 189 293 189 293 217 242.5 c 128,-1,38
 245 192 245 192 294 162.5 c 128,-1,39
 343 133 343 133 402 133 c 0,40,41
 449 133 449 133 497.5 155.5 c 128,-1,42
 546 178 546 178 584 216 c 1,43,-1
 677 115 l 1,44,0
 607 42 607 42 510 9 c 1,1,-1
EndSplineSet
EndChar

StartChar: franc
Encoding: 8355 8355 641
Width: 609
Flags: W
LayerCount: 2
Fore
SplineSet
594 569 m 1,0,-1
 250 569 l 1,1,-1
 250 396 l 1,2,-1
 565 396 l 1,3,-1
 565 269 l 1,4,-1
 250 269 l 1,5,-1
 250 171 l 1,6,-1
 469 171 l 1,7,-1
 469 107 l 1,8,-1
 250 107 l 1,9,-1
 250 0 l 1,10,-1
 92 0 l 1,11,-1
 92 107 l 1,12,-1
 15 107 l 1,13,-1
 15 171 l 1,14,-1
 92 171 l 1,15,-1
 92 700 l 1,16,-1
 595 700 l 1,17,-1
 594 569 l 1,0,-1
EndSplineSet
EndChar

StartChar: lira
Encoding: 8356 8356 642
Width: 557
Flags: W
LayerCount: 2
Fore
SplineSet
268 125 m 1,0,-1
 533 125 l 1,1,-1
 533 0 l 1,2,-1
 31 0 l 1,3,-1
 31 125 l 1,4,-1
 109 125 l 1,5,-1
 109 244 l 1,6,-1
 31 244 l 1,7,-1
 31 308 l 1,8,-1
 109 308 l 1,9,-1
 109 362 l 1,10,-1
 31 362 l 1,11,-1
 31 426 l 1,12,-1
 109 426 l 1,13,-1
 109 476 l 2,14,15
 109 586 109 586 169 646.5 c 128,-1,16
 229 707 229 707 339 707 c 0,17,18
 399 707 399 707 452.5 684.5 c 128,-1,19
 506 662 506 662 547 620 c 1,20,-1
 487 500 l 1,21,22
 421 569 421 569 356 569 c 0,23,24
 313 569 313 569 290.5 545 c 128,-1,25
 268 521 268 521 268 473 c 2,26,-1
 268 426 l 1,27,-1
 438 426 l 1,28,-1
 438 362 l 1,29,-1
 268 362 l 1,30,-1
 268 308 l 1,31,-1
 438 308 l 1,32,-1
 438 244 l 1,33,-1
 268 244 l 1,34,-1
 268 125 l 1,0,-1
EndSplineSet
EndChar

StartChar: uni20A6
Encoding: 8358 8358 643
Width: 780
Flags: W
LayerCount: 2
Fore
SplineSet
766 374 m 1,0,-1
 683 374 l 1,1,-1
 683 320 l 1,2,-1
 766 320 l 1,3,-1
 766 256 l 1,4,-1
 683 256 l 1,5,-1
 683 0 l 1,6,-1
 543 0 l 1,7,-1
 244 444 l 1,8,-1
 244 0 l 1,9,-1
 97 0 l 1,10,-1
 97 256 l 1,11,-1
 14 256 l 1,12,-1
 14 320 l 1,13,-1
 97 320 l 1,14,-1
 97 374 l 1,15,-1
 14 374 l 1,16,-1
 14 438 l 1,17,-1
 97 438 l 1,18,-1
 97 700 l 1,19,-1
 237 700 l 1,20,-1
 537 254 l 1,21,-1
 537 700 l 1,22,-1
 683 700 l 1,23,-1
 683 438 l 1,24,-1
 766 438 l 1,25,-1
 766 374 l 1,0,-1
EndSplineSet
EndChar

StartChar: peseta
Encoding: 8359 8359 644
Width: 1542
Flags: W
LayerCount: 2
Fore
SplineSet
543.5 636 m 128,-1,1
 616 572 616 572 616 454 c 0,2,3
 616 333 616 333 543.5 266.5 c 128,-1,4
 471 200 471 200 340 200 c 2,5,-1
 225 200 l 1,6,-1
 225 0 l 1,7,-1
 77 0 l 1,8,-1
 77 700 l 1,9,-1
 340 700 l 2,10,0
 471 700 471 700 543.5 636 c 128,-1,1
1012 143 m 1,12,-1
 1044 30 l 1,13,14
 1014 13 1014 13 978.5 3 c 128,-1,15
 943 -7 943 -7 907 -7 c 0,16,17
 835 -7 835 -7 790 36 c 128,-1,18
 745 79 745 79 745 159 c 2,19,-1
 745 410 l 1,20,-1
 670 410 l 1,21,-1
 670 514 l 1,22,-1
 745 514 l 1,23,-1
 745 662 l 1,24,-1
 888 662 l 1,25,-1
 888 514 l 1,26,-1
 1028 514 l 1,27,-1
 1028 410 l 1,28,-1
 888 410 l 1,29,-1
 888 187 l 2,30,31
 888 153 888 153 901.5 138 c 128,-1,32
 915 123 915 123 941 123 c 0,33,11
 973 123 973 123 1012 143 c 1,12,-1
438 353.5 m 128,-1,35
 476 387 476 387 476 452 c 0,36,37
 476 516 476 516 438 548.5 c 128,-1,38
 400 581 400 581 328 581 c 2,39,-1
 225 581 l 1,40,-1
 225 320 l 1,41,-1
 328 320 l 2,42,34
 400 320 400 320 438 353.5 c 128,-1,35
1264 355 m 128,-1,44
 1287 342 1287 342 1338 326 c 0,45,46
 1392 309 1392 309 1427 292 c 128,-1,47
 1462 275 1462 275 1487.5 242 c 128,-1,48
 1513 209 1513 209 1513 157 c 0,49,50
 1513 80 1513 80 1454 37 c 128,-1,51
 1395 -6 1395 -6 1304 -6 c 0,52,53
 1242 -6 1242 -6 1183.5 11.5 c 128,-1,54
 1125 29 1125 29 1082 62 c 1,55,-1
 1128 158 l 1,56,57
 1168 131 1168 131 1215.5 115.5 c 128,-1,58
 1263 100 1263 100 1306 100 c 0,59,60
 1338 100 1338 100 1357.5 111.5 c 128,-1,61
 1377 123 1377 123 1377 147 c 0,62,63
 1377 173 1377 173 1352.5 187.5 c 128,-1,64
 1328 202 1328 202 1277 218 c 0,65,66
 1223 236 1223 236 1190 252.5 c 128,-1,67
 1157 269 1157 269 1133 301 c 128,-1,68
 1109 333 1109 333 1109 384 c 0,69,70
 1109 461 1109 461 1165.5 503 c 128,-1,71
 1222 545 1222 545 1310 545 c 0,72,73
 1420 545 1420 545 1509 491 c 1,74,-1
 1460 391 l 1,75,76
 1377 438 1377 438 1308 438 c 0,77,78
 1277 438 1277 438 1259 426.5 c 128,-1,79
 1241 415 1241 415 1241 392 c 0,80,43
 1241 368 1241 368 1264 355 c 128,-1,44
EndSplineSet
EndChar

StartChar: uni20A9
Encoding: 8361 8361 645
Width: 1048
Flags: W
LayerCount: 2
Fore
SplineSet
1034 374 m 1,0,-1
 931 374 l 1,1,-1
 915 320 l 1,2,-1
 1024 320 l 1,3,-1
 1024 256 l 1,4,-1
 895 256 l 1,5,-1
 819 0 l 1,6,-1
 656 0 l 1,7,-1
 529 497 l 1,8,-1
 400 0 l 1,9,-1
 238 0 l 1,10,-1
 162 256 l 1,11,-1
 31 256 l 1,12,-1
 31 320 l 1,13,-1
 143 320 l 1,14,-1
 127 374 l 1,15,-1
 21 374 l 1,16,-1
 21 438 l 1,17,-1
 108 438 l 1,18,-1
 30 700 l 1,19,-1
 197 700 l 1,20,-1
 325 179 l 1,21,-1
 456 700 l 1,22,-1
 610 700 l 1,23,-1
 742 177 l 1,24,-1
 869 700 l 1,25,-1
 1028 700 l 1,26,-1
 950 438 l 1,27,-1
 1034 438 l 1,28,-1
 1034 374 l 1,0,-1
EndSplineSet
EndChar

StartChar: dong
Encoding: 8363 8363 646
Width: 685
Flags: W
LayerCount: 2
Fore
SplineSet
672 586 m 1,0,-1
 605 586 l 1,1,-1
 605 0 l 1,2,-1
 452 0 l 1,3,-1
 452 79 l 1,4,5
 423 37 423 37 380 15.5 c 128,-1,6
 337 -6 337 -6 282 -6 c 0,7,8
 206 -6 206 -6 148.5 28.5 c 128,-1,9
 91 63 91 63 59.5 126 c 128,-1,10
 28 189 28 189 28 271 c 0,11,12
 28 352 28 352 59 414 c 128,-1,13
 90 476 90 476 147 510 c 128,-1,14
 204 544 204 544 278 544 c 0,15,16
 392 544 392 544 452 459 c 1,17,-1
 452 586 l 1,18,-1
 335 586 l 1,19,-1
 335 655 l 1,20,-1
 452 655 l 1,21,-1
 452 742 l 1,22,-1
 605 742 l 1,23,-1
 605 655 l 1,24,-1
 672 655 l 1,25,-1
 672 586 l 1,0,-1
414.5 159.5 m 128,-1,27
 452 201 452 201 452 267 c 256,28,29
 452 333 452 333 414.5 374.5 c 128,-1,30
 377 416 377 416 318 416 c 0,31,32
 258 416 258 416 220.5 374.5 c 128,-1,33
 183 333 183 333 182 267 c 0,34,35
 183 201 183 201 220.5 159.5 c 128,-1,36
 258 118 258 118 318 118 c 0,37,26
 377 118 377 118 414.5 159.5 c 128,-1,27
107 -130 m 1,38,-1
 107 -62 l 1,39,-1
 547 -62 l 1,40,-1
 547 -130 l 1,41,-1
 107 -130 l 1,38,-1
EndSplineSet
EndChar

StartChar: Euro
Encoding: 8364 8364 647
Width: 780
Flags: W
LayerCount: 2
Fore
SplineSet
584 159 m 128,-1,1
 633 181 633 181 672 219 c 1,2,-1
 763 118 l 1,3,4
 709 61 709 61 633 27 c 128,-1,5
 557 -7 557 -7 480 -7 c 0,6,7
 394 -7 394 -7 321 26.5 c 128,-1,8
 248 60 248 60 197 119.5 c 128,-1,9
 146 179 146 179 126 256 c 1,10,-1
 31 256 l 1,11,-1
 31 320 l 1,12,-1
 115 320 l 1,13,14
 114 330 114 330 114 351 c 0,15,16
 114 366 114 366 115 374 c 1,17,-1
 31 374 l 1,18,-1
 31 438 l 1,19,-1
 124 438 l 1,20,21
 143 516 143 516 195 576.5 c 128,-1,22
 247 637 247 637 322.5 671 c 128,-1,23
 398 705 398 705 487 705 c 0,24,25
 563 705 563 705 637 674 c 128,-1,26
 711 643 711 643 763 589 c 1,27,-1
 672 477 l 1,28,29
 635 519 635 519 586 543.5 c 128,-1,30
 537 568 537 568 489 568 c 0,31,32
 422 568 422 568 369 532.5 c 128,-1,33
 316 497 316 497 292 438 c 1,34,-1
 532 438 l 1,35,-1
 532 374 l 1,36,-1
 277 374 l 1,37,38
 276 367 276 367 276 353 c 0,39,40
 276 342 276 342 278 320 c 1,41,-1
 532 320 l 1,42,-1
 532 256 l 1,43,-1
 298 256 l 1,44,45
 324 202 324 202 375 169.5 c 128,-1,46
 426 137 426 137 489 137 c 0,47,0
 535 137 535 137 584 159 c 128,-1,1
EndSplineSet
EndChar

StartChar: uni20AD
Encoding: 8365 8365 648
Width: 702
Flags: W
LayerCount: 2
Fore
SplineSet
691 0 m 1,0,-1
 503 0 l 1,1,-1
 232 315 l 1,2,-1
 232 0 l 1,3,-1
 74 0 l 1,4,-1
 74 326 l 1,5,-1
 -2 326 l 1,6,-1
 -2 390 l 1,7,-1
 74 390 l 1,8,-1
 74 700 l 1,9,-1
 232 700 l 1,10,-1
 232 397 l 1,11,-1
 492 700 l 1,12,-1
 674 700 l 1,13,-1
 403 390 l 1,14,-1
 618 390 l 1,15,-1
 618 326 l 1,16,-1
 404 326 l 1,17,-1
 691 0 l 1,0,-1
EndSplineSet
EndChar

StartChar: uni20B1
Encoding: 8369 8369 649
Width: 766
Flags: W
LayerCount: 2
Fore
SplineSet
750 477 m 1,0,-1
 673 477 l 1,1,2
 674 470 674 470 674 457 c 0,3,4
 674 445 674 445 672 423 c 1,5,-1
 750 423 l 1,6,-1
 750 359 l 1,7,-1
 659 359 l 1,8,9
 633 282 633 282 565 241 c 128,-1,10
 497 200 497 200 393 200 c 2,11,-1
 255 200 l 1,12,-1
 255 0 l 1,13,-1
 97 0 l 1,14,-1
 97 359 l 1,15,-1
 20 359 l 1,16,-1
 20 423 l 1,17,-1
 97 423 l 1,18,-1
 97 477 l 1,19,-1
 20 477 l 1,20,-1
 20 541 l 1,21,-1
 97 541 l 1,22,-1
 97 700 l 1,23,-1
 393 700 l 2,24,25
 500 700 500 700 569 659 c 128,-1,26
 638 618 638 618 662 541 c 1,27,-1
 750 541 l 1,28,-1
 750 477 l 1,0,-1
487.5 362.5 m 128,-1,30
 523 393 523 393 523 452 c 0,31,32
 523 510 523 510 487.5 539.5 c 128,-1,33
 452 569 452 569 386 569 c 2,34,-1
 255 569 l 1,35,-1
 255 332 l 1,36,-1
 386 332 l 2,37,29
 452 332 452 332 487.5 362.5 c 128,-1,30
EndSplineSet
EndChar

StartChar: uni20B2
Encoding: 8370 8370 650
Width: 728
Flags: W
LayerCount: 2
Fore
SplineSet
547 353 m 1,0,-1
 684 353 l 1,1,-1
 684 81 l 1,2,3
 638 48 638 48 578 24.5 c 128,-1,4
 518 1 518 1 458 -7 c 1,5,-1
 458 -150 l 1,6,-1
 342 -150 l 1,7,-1
 342 -7 l 1,8,9
 251 6 251 6 179.5 55.5 c 128,-1,10
 108 105 108 105 67.5 182 c 128,-1,11
 27 259 27 259 27 351 c 0,12,13
 27 441 27 441 67 517 c 128,-1,14
 107 593 107 593 179 642.5 c 128,-1,15
 251 692 251 692 342 706 c 1,16,-1
 342 845 l 1,17,-1
 458 845 l 1,18,-1
 458 708 l 1,19,20
 523 700 523 700 584 673.5 c 128,-1,21
 645 647 645 647 690 607 c 1,22,-1
 601 494 l 1,23,24
 562 531 562 531 511 552 c 128,-1,25
 460 573 460 573 409 573 c 0,26,27
 348 573 348 573 297.5 543.5 c 128,-1,28
 247 514 247 514 218 463.5 c 128,-1,29
 189 413 189 413 189 351 c 256,30,31
 189 289 189 289 218.5 237.5 c 128,-1,32
 248 186 248 186 298.5 156.5 c 128,-1,33
 349 127 349 127 410 127 c 0,34,35
 441 127 441 127 477 137.5 c 128,-1,36
 513 148 513 148 547 166 c 1,37,-1
 547 353 l 1,0,-1
EndSplineSet
EndChar

StartChar: uni20B5
Encoding: 8373 8373 651
Width: 694
Flags: W
LayerCount: 2
Fore
SplineSet
571 35 m 128,-1,1
 511 3 511 3 448 -7 c 1,2,-1
 448 -150 l 1,3,-1
 332 -150 l 1,4,-1
 332 -6 l 1,5,6
 244 7 244 7 174.5 57 c 128,-1,7
 105 107 105 107 66 184 c 128,-1,8
 27 261 27 261 27 352 c 0,9,10
 27 442 27 442 66 517 c 128,-1,11
 105 592 105 592 174.5 641.5 c 128,-1,12
 244 691 244 691 332 706 c 1,13,-1
 332 845 l 1,14,-1
 448 845 l 1,15,-1
 448 708 l 1,16,17
 513 699 513 699 573 669 c 128,-1,18
 633 639 633 639 676 594 c 1,19,-1
 584 481 l 1,20,21
 548 524 548 524 499.5 548.5 c 128,-1,22
 451 573 451 573 402 573 c 0,23,24
 343 573 343 573 294 544 c 128,-1,25
 245 515 245 515 217 465 c 128,-1,26
 189 415 189 415 189 354 c 256,27,28
 189 293 189 293 217 242.5 c 128,-1,29
 245 192 245 192 294 162.5 c 128,-1,30
 343 133 343 133 402 133 c 0,31,32
 449 133 449 133 497.5 155.5 c 128,-1,33
 546 178 546 178 584 216 c 1,34,-1
 677 115 l 1,35,0
 631 67 631 67 571 35 c 128,-1,1
EndSplineSet
EndChar

StartChar: uni20B9
Encoding: 8377 8377 652
Width: 605
Flags: W
LayerCount: 2
Fore
SplineSet
461 577 m 1,0,1
 491 537 491 537 500 483 c 1,2,-1
 581 483 l 1,3,-1
 581 419 l 1,4,-1
 504 419 l 1,5,6
 500 359 500 359 473.5 314 c 128,-1,7
 447 269 447 269 399 241 c 1,8,-1
 581 0 l 1,9,-1
 402 0 l 1,10,-1
 251 201 l 1,11,12
 241 200 241 200 219 200 c 2,13,-1
 34 200 l 1,14,-1
 34 324 l 1,15,-1
 210 324 l 2,16,17
 271 324 271 324 308.5 348 c 128,-1,18
 346 372 346 372 355 419 c 1,19,-1
 34 419 l 1,20,-1
 34 483 l 1,21,-1
 355 483 l 1,22,23
 346 530 346 530 309 553.5 c 128,-1,24
 272 577 272 577 210 577 c 2,25,-1
 34 577 l 1,26,-1
 34 700 l 1,27,-1
 581 700 l 1,28,-1
 581 577 l 1,29,-1
 461 577 l 1,0,1
EndSplineSet
EndChar

StartChar: uni20BA
Encoding: 8378 8378 653
Width: 711
Flags: W
LayerCount: 2
Fore
SplineSet
685 355 m 1,0,1
 685 252 685 252 637.5 171 c 128,-1,2
 590 90 590 90 505 45 c 128,-1,3
 420 0 420 0 311 0 c 2,4,-1
 101 0 l 1,5,-1
 101 312 l 1,6,-1
 28 291 l 1,7,-1
 28 362 l 1,8,-1
 101 383 l 1,9,-1
 101 459 l 1,10,-1
 28 438 l 1,11,-1
 28 510 l 1,12,-1
 101 531 l 1,13,-1
 101 700 l 1,14,-1
 259 700 l 1,15,-1
 259 576 l 1,16,-1
 529 653 l 1,17,-1
 529 582 l 1,18,-1
 259 504 l 1,19,-1
 259 428 l 1,20,-1
 529 506 l 1,21,-1
 529 434 l 1,22,-1
 259 357 l 1,23,-1
 259 133 l 1,24,-1
 321 133 l 2,25,26
 380 133 380 133 426.5 161 c 128,-1,27
 473 189 473 189 499 239 c 128,-1,28
 525 289 525 289 525 353 c 1,29,-1
 685 355 l 1,0,1
EndSplineSet
EndChar

StartChar: uni20BC
Encoding: 8380 8380 654
Width: 762
Flags: W
LayerCount: 2
Fore
SplineSet
595.5 544.5 m 128,-1,1
 661 498 661 498 697.5 426 c 128,-1,2
 734 354 734 354 734 267 c 2,3,-1
 734 0 l 1,4,-1
 579 0 l 1,5,-1
 579 266 l 2,6,7
 579 337 579 337 542.5 390 c 128,-1,8
 506 443 506 443 446 462 c 1,9,-1
 446 0 l 1,10,-1
 317 0 l 1,11,-1
 317 462 l 1,12,13
 256 442 256 442 219.5 389.5 c 128,-1,14
 183 337 183 337 183 266 c 2,15,-1
 183 0 l 1,16,-1
 28 0 l 1,17,-1
 28 267 l 2,18,19
 28 354 28 354 64.5 426 c 128,-1,20
 101 498 101 498 167 545 c 128,-1,21
 233 592 233 592 317 605 c 1,22,-1
 317 700 l 1,23,-1
 446 700 l 1,24,-1
 446 605 l 1,25,0
 530 591 530 591 595.5 544.5 c 128,-1,1
EndSplineSet
EndChar

StartChar: uni20BD
Encoding: 8381 8381 655
Width: 693
Flags: W
LayerCount: 2
Fore
SplineSet
253 222 m 1,0,-1
 253 158 l 1,1,-1
 485 158 l 1,2,-1
 485 94 l 1,3,-1
 253 94 l 1,4,-1
 253 0 l 1,5,-1
 95 0 l 1,6,-1
 95 94 l 1,7,-1
 15 94 l 1,8,-1
 15 158 l 1,9,-1
 95 158 l 1,10,-1
 95 700 l 1,11,-1
 391 700 l 2,12,13
 525 700 525 700 598.5 638.5 c 128,-1,14
 672 577 672 577 672 465 c 0,15,16
 672 349 672 349 598.5 285.5 c 128,-1,17
 525 222 525 222 391 222 c 2,18,-1
 253 222 l 1,0,-1
486 547 m 128,-1,20
 451 575 451 575 384 575 c 2,21,-1
 253 575 l 1,22,-1
 253 347 l 1,23,-1
 384 347 l 2,24,25
 451 347 451 347 486 376.5 c 128,-1,26
 521 406 521 406 521 463 c 0,27,19
 521 519 521 519 486 547 c 128,-1,20
EndSplineSet
EndChar

StartChar: uni2113
Encoding: 8467 8467 656
Width: 471
Flags: W
LayerCount: 2
Fore
SplineSet
205.5 653.5 m 128,-1,1
 255 708 255 708 323 708 c 0,2,3
 378 708 378 708 409 673 c 128,-1,4
 440 638 440 638 440 575 c 0,5,6
 440 478 440 478 373 391.5 c 128,-1,7
 306 305 306 305 202 219 c 1,8,9
 198 196 198 196 198 175 c 0,10,11
 198 102 198 102 258 102 c 0,12,13
 293 102 293 102 322.5 123.5 c 128,-1,14
 352 145 352 145 383 183 c 1,15,-1
 431 125 l 1,16,17
 347 -5 347 -5 224 -5 c 0,18,19
 92 -5 92 -5 86 149 c 1,20,-1
 38 118 l 1,21,-1
 14 185 l 1,22,-1
 97 244 l 1,23,-1
 137 489 l 2,24,0
 156 599 156 599 205.5 653.5 c 128,-1,1
315 453 m 128,-1,26
 353 517 353 517 353 573 c 0,27,28
 353 596 353 596 344 609.5 c 128,-1,29
 335 623 335 623 319 623 c 0,30,31
 296 623 296 623 278 594 c 128,-1,32
 260 565 260 565 249 503 c 2,33,-1
 221 337 l 1,34,25
 277 389 277 389 315 453 c 128,-1,26
EndSplineSet
EndChar

StartChar: trademark
Encoding: 8482 8482 658
Width: 898
Flags: W
LayerCount: 2
Fore
SplineSet
-7 700 m 1,0,-1
 335 700 l 1,1,-1
 335 607 l 1,2,-1
 219 607 l 1,3,-1
 219 280 l 1,4,-1
 107 280 l 1,5,-1
 107 607 l 1,6,-1
 -7 607 l 1,7,-1
 -7 700 l 1,0,-1
382 700 m 1,8,-1
 507 700 l 1,9,-1
 618 461 l 1,10,-1
 729 700 l 1,11,-1
 854 700 l 1,12,-1
 854 280 l 1,13,-1
 753 280 l 1,14,-1
 753 538 l 1,15,-1
 656 322 l 1,16,-1
 580 322 l 1,17,-1
 484 538 l 1,18,-1
 484 280 l 1,19,-1
 382 280 l 1,20,-1
 382 700 l 1,8,-1
EndSplineSet
EndChar

StartChar: estimated
Encoding: 8494 8494 660
Width: 809
Flags: W
LayerCount: 2
Fore
SplineSet
192 308 m 2,1,-1
 192 144 l 2,2,3
 192 135 192 135 200 125 c 0,4,5
 239 83 239 83 292.5 59.5 c 128,-1,6
 346 36 346 36 406 36 c 0,7,8
 469 36 469 36 525.5 62.5 c 128,-1,9
 582 89 582 89 621 135 c 1,10,-1
 670 135 l 1,11,12
 624 81 624 81 554 49.5 c 128,-1,13
 484 18 484 18 405 18 c 0,14,15
 314 18 314 18 237 58.5 c 128,-1,16
 160 99 160 99 115 168 c 128,-1,17
 70 237 70 237 70 319 c 256,18,19
 70 401 70 401 115 470.5 c 128,-1,20
 160 540 160 540 237 580.5 c 128,-1,21
 314 621 314 621 405 621 c 256,22,23
 496 621 496 621 573 580.5 c 128,-1,24
 650 540 650 540 695 470.5 c 128,-1,25
 740 401 740 401 740 319 c 2,26,-1
 740 312 l 1,27,-1
 197 312 l 2,28,0
 192 312 192 312 192 308 c 2,1,-1
609 518 m 0,30,31
 569 558 569 558 516.5 580.5 c 128,-1,32
 464 603 464 603 406 603 c 0,33,34
 347 603 347 603 294 579.5 c 128,-1,35
 241 556 241 556 201 515 c 0,36,37
 192 506 192 506 192 495 c 2,38,-1
 192 333 l 2,39,40
 192 328 192 328 197 328 c 2,41,-1
 613 328 l 2,42,43
 618 328 618 328 618 333 c 2,44,-1
 618 498 l 2,45,29
 618 509 618 509 609 518 c 0,30,31
EndSplineSet
EndChar

StartChar: arrowleft
Encoding: 8592 8592 667
Width: 600
Flags: W
LayerCount: 2
Fore
SplineSet
541 331 m 1,0,-1
 541 222 l 1,1,-1
 263 222 l 1,2,-1
 364 54 l 1,3,-1
 231 54 l 1,4,-1
 85 277 l 1,5,-1
 231 500 l 1,6,-1
 364 500 l 1,7,-1
 262 331 l 1,8,-1
 541 331 l 1,0,-1
EndSplineSet
EndChar

StartChar: arrowup
Encoding: 8593 8593 668
Width: 600
Flags: W
LayerCount: 2
Fore
SplineSet
520 364 m 1,0,-1
 520 240 l 1,1,-1
 360 337 l 1,2,-1
 360 50 l 1,3,-1
 241 50 l 1,4,-1
 241 339 l 1,5,-1
 80 240 l 1,6,-1
 80 364 l 1,7,-1
 299 511 l 1,8,-1
 520 364 l 1,0,-1
EndSplineSet
EndChar

StartChar: arrowright
Encoding: 8594 8594 669
Width: 600
Flags: W
LayerCount: 2
Fore
SplineSet
369 499 m 1,0,-1
 515 276 l 1,1,-1
 369 53 l 1,2,-1
 236 53 l 1,3,-1
 338 222 l 1,4,-1
 59 222 l 1,5,-1
 59 331 l 1,6,-1
 337 331 l 1,7,-1
 236 499 l 1,8,-1
 369 499 l 1,0,-1
EndSplineSet
EndChar

StartChar: arrowdown
Encoding: 8595 8595 670
Width: 600
Flags: W
LayerCount: 2
Fore
SplineSet
378 214 m 1,0,-1
 539 313 l 1,1,-1
 539 189 l 1,2,-1
 320 42 l 1,3,-1
 99 189 l 1,4,-1
 99 313 l 1,5,-1
 259 216 l 1,6,-1
 259 503 l 1,7,-1
 378 503 l 1,8,-1
 378 214 l 1,0,-1
EndSplineSet
EndChar

StartChar: arrowboth
Encoding: 8596 8596 671
Width: 801
Flags: W
LayerCount: 2
Fore
SplineSet
605 500 m 1,0,-1
 751 277 l 1,1,-1
 605 54 l 1,2,-1
 472 54 l 1,3,-1
 573 222 l 1,4,-1
 228 222 l 1,5,-1
 329 54 l 1,6,-1
 196 54 l 1,7,-1
 50 277 l 1,8,-1
 196 500 l 1,9,-1
 329 500 l 1,10,-1
 227 331 l 1,11,-1
 574 331 l 1,12,-1
 472 500 l 1,13,-1
 605 500 l 1,0,-1
EndSplineSet
EndChar

StartChar: arrowupdn
Encoding: 8597 8597 672
Width: 600
Flags: W
LayerCount: 2
Fore
SplineSet
360 205 m 1,0,-1
 521 304 l 1,1,-1
 521 180 l 1,2,-1
 301 32 l 1,3,-1
 80 180 l 1,4,-1
 80 304 l 1,5,-1
 241 206 l 1,6,-1
 241 513 l 1,7,-1
 80 414 l 1,8,-1
 80 538 l 1,9,-1
 299 686 l 1,10,-1
 520 538 l 1,11,-1
 520 414 l 1,12,-1
 360 511 l 1,13,-1
 360 205 l 1,0,-1
EndSplineSet
EndChar

StartChar: uni2196
Encoding: 8598 8598 673
Width: 600
Flags: W
LayerCount: 2
Fore
SplineSet
514 164 m 1,0,-1
 430 80 l 1,1,-1
 226 283 l 1,2,-1
 182 100 l 1,3,-1
 94 188 l 1,4,-1
 145 447 l 1,5,-1
 405 499 l 1,6,-1
 493 411 l 1,7,-1
 312 367 l 1,8,-1
 514 164 l 1,0,-1
EndSplineSet
EndChar

StartChar: uni2197
Encoding: 8599 8599 674
Width: 600
Flags: W
LayerCount: 2
Fore
SplineSet
520 182 m 1,0,-1
 432 94 l 1,1,-1
 388 275 l 1,2,-1
 185 73 l 1,3,-1
 101 157 l 1,4,-1
 304 361 l 1,5,-1
 121 405 l 1,6,-1
 209 493 l 1,7,-1
 468 442 l 1,8,-1
 520 182 l 1,0,-1
EndSplineSet
EndChar

StartChar: uni2198
Encoding: 8600 8600 675
Width: 600
Flags: W
LayerCount: 2
Fore
SplineSet
432 464 m 1,0,-1
 520 376 l 1,1,-1
 469 117 l 1,2,-1
 209 65 l 1,3,-1
 121 153 l 1,4,-1
 302 197 l 1,5,-1
 100 400 l 1,6,-1
 184 484 l 1,7,-1
 388 281 l 1,8,-1
 432 464 l 1,0,-1
EndSplineSet
EndChar

StartChar: uni2199
Encoding: 8601 8601 676
Width: 600
Flags: W
LayerCount: 2
Fore
SplineSet
513 407 m 1,0,-1
 310 203 l 1,1,-1
 493 159 l 1,2,-1
 405 71 l 1,3,-1
 146 122 l 1,4,-1
 94 382 l 1,5,-1
 182 470 l 1,6,-1
 226 289 l 1,7,-1
 429 491 l 1,8,-1
 513 407 l 1,0,-1
EndSplineSet
EndChar

StartChar: partialdiff
Encoding: 8706 8706 677
Width: 621
Flags: W
LayerCount: 2
Fore
SplineSet
154 689 m 128,-1,1
 215 707 215 707 273 707 c 0,2,3
 367 707 367 707 437 662.5 c 128,-1,4
 507 618 507 618 545 536 c 128,-1,5
 583 454 583 454 583 346 c 0,6,7
 583 237 583 237 547.5 157.5 c 128,-1,8
 512 78 512 78 445 35.5 c 128,-1,9
 378 -7 378 -7 287 -7 c 0,10,11
 210 -7 210 -7 152 22 c 128,-1,12
 94 51 94 51 62 105 c 128,-1,13
 30 159 30 159 30 232 c 0,14,15
 30 300 30 300 58.5 351 c 128,-1,16
 87 402 87 402 139 430 c 128,-1,17
 191 458 191 458 260 458 c 0,18,19
 323 458 323 458 367 432.5 c 128,-1,20
 411 407 411 407 431 363 c 1,21,-1
 432 387 l 2,22,23
 432 479 432 479 388 529 c 128,-1,24
 344 579 344 579 264 579 c 0,25,26
 173 579 173 579 107 525 c 1,27,-1
 46 641 l 1,28,0
 93 671 93 671 154 689 c 128,-1,1
207 310.5 m 128,-1,30
 177 283 177 283 177 234 c 0,31,32
 177 182 177 182 208 153.5 c 128,-1,33
 239 125 239 125 294 125 c 0,34,35
 351 125 351 125 381.5 156 c 128,-1,36
 412 187 412 187 412 230 c 0,37,38
 412 278 412 278 379.5 308 c 128,-1,39
 347 338 347 338 290 338 c 0,40,29
 237 338 237 338 207 310.5 c 128,-1,30
EndSplineSet
EndChar

StartChar: emptyset
Encoding: 8709 8709 678
Width: 517
Flags: W
LayerCount: 2
Fore
SplineSet
446 459 m 1,0,1
 489 398 489 398 489 327 c 0,2,3
 489 265 489 265 458 212 c 128,-1,4
 427 159 427 159 375 128 c 128,-1,5
 323 97 323 97 262 97 c 0,6,7
 181 97 181 97 118 150 c 1,8,-1
 43 79 l 1,9,-1
 0 127 l 1,10,-1
 76 198 l 1,11,12
 37 254 37 254 37 327 c 0,13,14
 37 388 37 388 67.5 440.5 c 128,-1,15
 98 493 98 493 149.5 523.5 c 128,-1,16
 201 554 201 554 262 554 c 0,17,18
 302 554 302 554 338.5 540.5 c 128,-1,19
 375 527 375 527 405 503 c 1,20,-1
 478 571 l 1,21,-1
 517 525 l 1,22,-1
 446 459 l 1,0,1
152 268 m 1,24,-1
 328 431 l 1,25,26
 295 449 295 449 262 449 c 0,27,28
 210 449 210 449 174 413 c 128,-1,29
 138 377 138 377 138 327 c 0,30,23
 138 296 138 296 152 268 c 1,24,-1
371 388 m 1,32,-1
 195 222 l 1,33,34
 224 202 224 202 262 202 c 0,35,36
 314 202 314 202 351 238.5 c 128,-1,37
 388 275 388 275 388 327 c 0,38,31
 388 360 388 360 371 388 c 1,32,-1
EndSplineSet
EndChar

StartChar: uni2206
Encoding: 8710 8710 679
Width: 704
Flags: W
LayerCount: 2
Fore
SplineSet
0 0 m 1,0,-1
 0 98 l 1,1,-1
 274 700 l 1,2,-1
 436 700 l 1,3,-1
 704 98 l 1,4,-1
 704 0 l 1,5,-1
 0 0 l 1,0,-1
169 129 m 1,6,-1
 530 129 l 1,7,-1
 350 537 l 1,8,-1
 169 129 l 1,6,-1
EndSplineSet
EndChar

StartChar: product
Encoding: 8719 8719 680
Width: 744
Flags: W
LayerCount: 2
Fore
SplineSet
77 742 m 1,0,-1
 667 742 l 1,1,-1
 667 -194 l 1,2,-1
 513 -194 l 1,3,-1
 513 616 l 1,4,-1
 231 616 l 1,5,-1
 231 -194 l 1,6,-1
 77 -194 l 1,7,-1
 77 742 l 1,0,-1
EndSplineSet
EndChar

StartChar: summation
Encoding: 8721 8721 681
Width: 615
Flags: W
LayerCount: 2
Fore
SplineSet
38 744 m 1,0,-1
 600 744 l 1,1,-1
 600 606 l 1,2,-1
 221 606 l 1,3,-1
 471 304 l 1,4,-1
 220 0 l 1,5,-1
 610 0 l 1,6,-1
 610 -138 l 1,7,-1
 29 -138 l 1,8,-1
 29 -23 l 1,9,-1
 303 303 l 1,10,-1
 38 626 l 1,11,-1
 38 744 l 1,0,-1
EndSplineSet
EndChar

StartChar: minus
Encoding: 8722 8722 682
Width: 506
Flags: W
LayerCount: 2
Fore
SplineSet
33 377 m 1,0,-1
 473 377 l 1,1,-1
 473 275 l 1,2,-1
 33 275 l 1,3,-1
 33 377 l 1,0,-1
EndSplineSet
EndChar

StartChar: uni2219
Encoding: 8729 8729 684
Width: 312
Flags: W
LayerCount: 2
Fore
SplineSet
238.5 359 m 128,-1,1
 271 326 271 326 271 274 c 0,2,3
 271 221 271 221 238.5 187.5 c 128,-1,4
 206 154 206 154 155 154 c 0,5,6
 105 154 105 154 72.5 188 c 128,-1,7
 40 222 40 222 40 274 c 256,8,9
 40 326 40 326 72.5 359 c 128,-1,10
 105 392 105 392 155 392 c 0,11,0
 206 392 206 392 238.5 359 c 128,-1,1
EndSplineSet
EndChar

StartChar: radical
Encoding: 8730 8730 685
Width: 702
Flags: W
LayerCount: 2
Fore
SplineSet
562 747 m 1,0,-1
 709 747 l 1,1,-1
 436 -156 l 1,2,-1
 272 -156 l 1,3,-1
 130 280 l 1,4,-1
 5 280 l 1,5,-1
 5 406 l 1,6,-1
 236 406 l 1,7,-1
 354 4 l 1,8,-1
 562 747 l 1,0,-1
EndSplineSet
EndChar

StartChar: infinity
Encoding: 8734 8734 686
Width: 861
Flags: W
LayerCount: 2
Fore
SplineSet
735.5 483.5 m 128,-1,1
 781 456 781 456 807 408 c 128,-1,2
 833 360 833 360 833 300 c 256,3,4
 833 240 833 240 807 191.5 c 128,-1,5
 781 143 781 143 735.5 115.5 c 128,-1,6
 690 88 690 88 633 88 c 0,7,8
 562 88 562 88 516 122.5 c 128,-1,9
 470 157 470 157 432 218 c 1,10,11
 394 156 394 156 347.5 122 c 128,-1,12
 301 88 301 88 228 88 c 0,13,14
 171 88 171 88 125.5 115.5 c 128,-1,15
 80 143 80 143 54 191 c 128,-1,16
 28 239 28 239 28 299 c 256,17,18
 28 359 28 359 54 407 c 128,-1,19
 80 455 80 455 125.5 482.5 c 128,-1,20
 171 510 171 510 228 510 c 0,21,22
 299 510 299 510 345 476 c 128,-1,23
 391 442 391 442 429 381 c 1,24,25
 467 443 467 443 513.5 477 c 128,-1,26
 560 511 560 511 633 511 c 0,27,0
 690 511 690 511 735.5 483.5 c 128,-1,1
700 226.5 m 128,-1,29
 728 256 728 256 728 300 c 0,30,31
 728 345 728 345 700 374 c 128,-1,32
 672 403 672 403 629 403 c 0,33,34
 579 403 579 403 545.5 376 c 128,-1,35
 512 349 512 349 480 298 c 1,36,37
 511 249 511 249 545 223 c 128,-1,38
 579 197 579 197 629 197 c 0,39,28
 672 197 672 197 700 226.5 c 128,-1,29
315.5 224 m 128,-1,41
 349 251 349 251 381 301 c 1,42,43
 350 350 350 350 316 376 c 128,-1,44
 282 402 282 402 232 402 c 0,45,46
 189 402 189 402 161 373 c 128,-1,47
 133 344 133 344 133 299 c 0,48,49
 133 255 133 255 161 226 c 128,-1,50
 189 197 189 197 232 197 c 0,51,40
 282 197 282 197 315.5 224 c 128,-1,41
EndSplineSet
EndChar

StartChar: integral
Encoding: 8747 8747 687
Width: 374
Flags: W
LayerCount: 2
Fore
SplineSet
314 736 m 0,1,2
 271 736 271 736 253.5 711 c 128,-1,3
 236 686 236 686 236 625 c 0,4,5
 236 580 236 580 248 376 c 0,6,7
 260 164 260 164 260 103 c 0,8,9
 260 16 260 16 242.5 -36 c 128,-1,10
 225 -88 225 -88 186.5 -112 c 128,-1,11
 148 -136 148 -136 84 -136 c 0,12,13
 52 -136 52 -136 29 -130.5 c 128,-1,14
 6 -125 6 -125 -16 -111 c 1,15,-1
 3 -8 l 1,16,17
 23 -18 23 -18 37 -22 c 128,-1,18
 51 -26 51 -26 65 -26 c 0,19,20
 109 -26 109 -26 128 1 c 128,-1,21
 147 28 147 28 147 92 c 0,22,23
 147 138 147 138 141.5 234.5 c 128,-1,24
 136 331 136 331 134 360 c 0,25,26
 121 548 121 548 121 611 c 0,27,28
 121 698 121 698 138.5 750 c 128,-1,29
 156 802 156 802 194 825.5 c 128,-1,30
 232 849 232 849 296 849 c 0,31,32
 318 849 318 849 338.5 844 c 128,-1,33
 359 839 359 839 384 827 c 1,34,-1
 368 725 l 1,35,0
 339 736 339 736 314 736 c 0,1,2
EndSplineSet
EndChar

StartChar: approxequal
Encoding: 8776 8776 688
Width: 506
Flags: W
LayerCount: 2
Fore
SplineSet
420.5 396.5 m 128,-1,1
 394 356 394 356 340 356 c 0,2,3
 314 356 314 356 293.5 364.5 c 128,-1,4
 273 373 273 373 246 389 c 0,5,6
 229 399 229 399 218.5 404 c 128,-1,7
 208 409 208 409 198 409 c 0,8,9
 164 409 164 409 164 362 c 1,10,-1
 60 362 l 1,11,12
 60 444 60 444 86.5 484 c 128,-1,13
 113 524 113 524 167 524 c 0,14,15
 192 524 192 524 213.5 515.5 c 128,-1,16
 235 507 235 507 260 492 c 0,17,18
 276 482 276 482 287.5 477 c 128,-1,19
 299 472 299 472 309 472 c 0,20,21
 343 472 343 472 343 519 c 1,22,-1
 447 519 l 1,23,0
 447 437 447 437 420.5 396.5 c 128,-1,1
420.5 169 m 128,-1,25
 394 129 394 129 340 129 c 0,26,27
 314 129 314 129 294.5 137 c 128,-1,28
 275 145 275 145 246 161 c 0,29,30
 229 171 229 171 218.5 176 c 128,-1,31
 208 181 208 181 198 181 c 0,32,33
 164 181 164 181 164 134 c 1,34,-1
 60 134 l 1,35,36
 60 216 60 216 86.5 256 c 128,-1,37
 113 296 113 296 167 296 c 0,38,39
 192 296 192 296 213.5 287.5 c 128,-1,40
 235 279 235 279 260 264 c 0,41,42
 276 254 276 254 287.5 249 c 128,-1,43
 299 244 299 244 309 244 c 0,44,45
 343 244 343 244 343 291 c 1,46,-1
 447 291 l 1,47,24
 447 209 447 209 420.5 169 c 128,-1,25
EndSplineSet
EndChar

StartChar: notequal
Encoding: 8800 8800 689
Width: 506
Flags: W
LayerCount: 2
Fore
SplineSet
473 382 m 1,0,-1
 324 382 l 1,1,-1
 289 270 l 1,2,-1
 473 270 l 1,3,-1
 473 168 l 1,4,-1
 256 168 l 1,5,-1
 211 24 l 1,6,-1
 95 24 l 1,7,-1
 140 168 l 1,8,-1
 33 168 l 1,9,-1
 33 270 l 1,10,-1
 173 270 l 1,11,-1
 208 382 l 1,12,-1
 33 382 l 1,13,-1
 33 484 l 1,14,-1
 240 484 l 1,15,-1
 284 623 l 1,16,-1
 400 623 l 1,17,-1
 356 484 l 1,18,-1
 473 484 l 1,19,-1
 473 382 l 1,0,-1
EndSplineSet
EndChar

StartChar: lessequal
Encoding: 8804 8804 690
Width: 506
Flags: W
LayerCount: 2
Fore
SplineSet
473 639 m 1,0,-1
 473 529 l 1,1,-1
 134 397 l 1,2,-1
 473 265 l 1,3,-1
 473 155 l 1,4,-1
 33 335 l 1,5,-1
 33 459 l 1,6,-1
 473 639 l 1,0,-1
33 108 m 1,7,-1
 473 108 l 1,8,-1
 473 6 l 1,9,-1
 33 6 l 1,10,-1
 33 108 l 1,7,-1
EndSplineSet
EndChar

StartChar: greaterequal
Encoding: 8805 8805 691
Width: 506
Flags: W
LayerCount: 2
Fore
SplineSet
33 161 m 1,0,-1
 33 272 l 1,1,-1
 372 403 l 1,2,-1
 33 536 l 1,3,-1
 33 646 l 1,4,-1
 473 466 l 1,5,-1
 473 341 l 1,6,-1
 33 161 l 1,0,-1
33 108 m 1,7,-1
 473 108 l 1,8,-1
 473 6 l 1,9,-1
 33 6 l 1,10,-1
 33 108 l 1,7,-1
EndSplineSet
EndChar

StartChar: filledbox
Encoding: 9632 9632 692
Width: 600
Flags: W
LayerCount: 2
Fore
SplineSet
106 459 m 1,0,-1
 494 459 l 1,1,-1
 494 71 l 1,2,-1
 106 71 l 1,3,-1
 106 459 l 1,0,-1
EndSplineSet
EndChar

StartChar: uni25A1
Encoding: 9633 9633 693
Width: 600
Flags: W
LayerCount: 2
Fore
SplineSet
106 459 m 1,0,-1
 494 459 l 1,1,-1
 494 71 l 1,2,-1
 106 71 l 1,3,-1
 106 459 l 1,0,-1
193 369 m 1,4,-1
 193 161 l 1,5,-1
 407 161 l 1,6,-1
 407 369 l 1,7,-1
 193 369 l 1,4,-1
EndSplineSet
EndChar

StartChar: triagup
Encoding: 9650 9650 694
Width: 600
Flags: W
LayerCount: 2
Fore
SplineSet
300 478 m 1,0,-1
 513 52 l 1,1,-1
 87 52 l 1,2,-1
 300 478 l 1,0,-1
EndSplineSet
EndChar

StartChar: uni25B3
Encoding: 9651 9651 695
Width: 600
Flags: W
LayerCount: 2
Fore
SplineSet
300 478 m 1,0,-1
 513 52 l 1,1,-1
 87 52 l 1,2,-1
 300 478 l 1,0,-1
300 305 m 1,3,-1
 211 129 l 1,4,-1
 389 129 l 1,5,-1
 300 305 l 1,3,-1
EndSplineSet
EndChar

StartChar: uni25B6
Encoding: 9654 9654 696
Width: 600
Flags: W
LayerCount: 2
Fore
SplineSet
541 266 m 1,0,-1
 115 53 l 1,1,-1
 115 479 l 1,2,-1
 541 266 l 1,0,-1
EndSplineSet
EndChar

StartChar: uni25B7
Encoding: 9655 9655 697
Width: 600
Flags: W
LayerCount: 2
Fore
SplineSet
541 266 m 1,0,-1
 115 53 l 1,1,-1
 115 479 l 1,2,-1
 541 266 l 1,0,-1
368 266 m 1,3,-1
 192 355 l 1,4,-1
 192 177 l 1,5,-1
 368 266 l 1,3,-1
EndSplineSet
EndChar

StartChar: triagdn
Encoding: 9660 9660 698
Width: 600
Flags: W
LayerCount: 2
Fore
SplineSet
300 52 m 1,0,-1
 87 478 l 1,1,-1
 513 478 l 1,2,-1
 300 52 l 1,0,-1
EndSplineSet
EndChar

StartChar: uni25BD
Encoding: 9661 9661 699
Width: 600
Flags: W
LayerCount: 2
Fore
SplineSet
300 52 m 1,0,-1
 87 478 l 1,1,-1
 513 478 l 1,2,-1
 300 52 l 1,0,-1
300 225 m 1,3,-1
 389 401 l 1,4,-1
 211 401 l 1,5,-1
 300 225 l 1,3,-1
EndSplineSet
EndChar

StartChar: uni25C0
Encoding: 9664 9664 700
Width: 600
Flags: W
LayerCount: 2
Fore
SplineSet
58 265 m 1,0,-1
 484 478 l 1,1,-1
 484 52 l 1,2,-1
 58 265 l 1,0,-1
EndSplineSet
EndChar

StartChar: uni25C1
Encoding: 9665 9665 701
Width: 600
Flags: W
LayerCount: 2
Fore
SplineSet
58 265 m 1,0,-1
 484 478 l 1,1,-1
 484 52 l 1,2,-1
 58 265 l 1,0,-1
231 265 m 1,3,-1
 407 176 l 1,4,-1
 407 354 l 1,5,-1
 231 265 l 1,3,-1
EndSplineSet
EndChar

StartChar: uni25C6
Encoding: 9670 9670 702
Width: 600
Flags: W
LayerCount: 2
Fore
SplineSet
300 540 m 1,0,-1
 574 265 l 1,1,-1
 300 -9 l 1,2,-1
 25 265 l 1,3,-1
 300 540 l 1,0,-1
EndSplineSet
EndChar

StartChar: uni25C7
Encoding: 9671 9671 703
Width: 600
Flags: W
LayerCount: 2
Fore
SplineSet
300 540 m 1,0,-1
 574 265 l 1,1,-1
 300 -9 l 1,2,-1
 25 265 l 1,3,-1
 300 540 l 1,0,-1
297 414 m 1,4,-1
 150 267 l 1,5,-1
 302 116 l 1,6,-1
 449 263 l 1,7,-1
 297 414 l 1,4,-1
EndSplineSet
EndChar

StartChar: lozenge
Encoding: 9674 9674 704
Width: 517
Flags: W
LayerCount: 2
Fore
SplineSet
259 672 m 1,0,-1
 489 330 l 1,1,-1
 257 -15 l 1,2,-1
 28 330 l 1,3,-1
 259 672 l 1,0,-1
258 492 m 1,4,-1
 147 330 l 1,5,-1
 258 167 l 1,6,-1
 370 330 l 1,7,-1
 258 492 l 1,4,-1
EndSplineSet
EndChar

StartChar: uniA78B
Encoding: 42891 42891 705
Width: 294
Flags: W
LayerCount: 2
Fore
SplineSet
68 700 m 1,0,-1
 226 700 l 1,1,-1
 207 300 l 1,2,-1
 68 300 l 1,3,-1
 68 700 l 1,0,-1
EndSplineSet
EndChar

StartChar: uniA78C
Encoding: 42892 42892 706
Width: 289
Flags: W
LayerCount: 2
Fore
SplineSet
69 679 m 1,0,-1
 221 679 l 1,1,-1
 201 300 l 1,2,-1
 68 300 l 1,3,-1
 69 679 l 1,0,-1
EndSplineSet
Substitution2: "<3,3> Small Caps in Latin lookup 11 subtable" uniA78C.sc
EndChar

StartChar: A.ss01
Encoding: 65538 -1 709
Width: 757
Flags: W
LayerCount: 2
Fore
SplineSet
103 569 m 128,-1,1
 141 637 141 637 211.5 674 c 128,-1,2
 282 711 282 711 377 711 c 0,3,4
 473 711 473 711 544 674 c 128,-1,5
 615 637 615 637 653.5 569 c 128,-1,6
 692 501 692 501 692 410 c 2,7,-1
 692 0 l 1,8,-1
 534 0 l 1,9,-1
 534 173 l 1,10,-1
 223 173 l 1,11,-1
 223 0 l 1,12,-1
 65 0 l 1,13,-1
 65 410 l 2,14,0
 65 501 65 501 103 569 c 128,-1,1
492 529 m 128,-1,16
 450 573 450 573 378 573 c 256,17,18
 306 573 306 573 264.5 529 c 128,-1,19
 223 485 223 485 223 410 c 2,20,-1
 223 300 l 1,21,-1
 534 300 l 1,22,-1
 534 410 l 2,23,15
 534 485 534 485 492 529 c 128,-1,16
EndSplineSet
EndChar

StartChar: Adieresis.alt
Encoding: 65553 -1 724
Width: 759
Flags: W
LayerCount: 2
Fore
SplineSet
110.5 597 m 128,-1,1
 93 615 93 615 93 642 c 256,2,3
 93 669 93 669 110.5 687 c 128,-1,4
 128 705 128 705 156 705 c 0,5,6
 182 705 182 705 200 687 c 128,-1,7
 218 669 218 669 218 642 c 256,8,9
 218 615 218 615 200.5 597 c 128,-1,10
 183 579 183 579 156 579 c 0,11,0
 128 579 128 579 110.5 597 c 128,-1,1
567 597 m 128,-1,13
 549 615 549 615 549 642 c 256,14,15
 549 669 549 669 567 687 c 128,-1,16
 585 705 585 705 612 705 c 256,17,18
 639 705 639 705 656.5 687 c 128,-1,19
 674 669 674 669 674 642 c 256,20,21
 674 615 674 615 656.5 597 c 128,-1,22
 639 579 639 579 612 579 c 256,23,12
 585 579 585 579 567 597 c 128,-1,13
594 0 m 1,24,-1
 539 136 l 1,25,-1
 215 136 l 1,26,-1
 160 0 l 1,27,-1
 -3 0 l 1,28,-1
 301 700 l 1,29,-1
 464 700 l 1,30,-1
 763 0 l 1,31,-1
 594 0 l 1,24,-1
267 263 m 1,32,-1
 488 263 l 1,33,-1
 378 535 l 1,34,-1
 267 263 l 1,32,-1
EndSplineSet
EndChar

StartChar: Aogonek.ss01
Encoding: 65560 -1 731
Width: 757
Flags: W
LayerCount: 2
Fore
SplineSet
606.5 -53.5 m 128,-1,1
 587 -77 587 -77 587 -100 c 0,2,3
 587 -127 587 -127 611 -127 c 0,4,5
 628 -127 628 -127 641 -119 c 1,6,-1
 670 -207 l 1,7,8
 622 -228 622 -228 577 -228 c 0,9,10
 526 -228 526 -228 496.5 -201 c 128,-1,11
 467 -174 467 -174 467 -127 c 0,12,13
 467 -56 467 -56 534 5 c 1,14,-1
 534 173 l 1,15,-1
 223 173 l 1,16,-1
 223 0 l 1,17,-1
 65 0 l 1,18,-1
 65 410 l 2,19,20
 65 501 65 501 103 569 c 128,-1,21
 141 637 141 637 211.5 674 c 128,-1,22
 282 711 282 711 377 711 c 0,23,24
 473 711 473 711 544 674 c 128,-1,25
 615 637 615 637 653.5 569 c 128,-1,26
 692 501 692 501 692 410 c 2,27,-1
 692 0 l 1,28,-1
 668 0 l 1,29,0
 626 -30 626 -30 606.5 -53.5 c 128,-1,1
534 300 m 1,30,-1
 534 410 l 2,31,32
 534 485 534 485 492 529 c 128,-1,33
 450 573 450 573 378 573 c 256,34,35
 306 573 306 573 264.5 529 c 128,-1,36
 223 485 223 485 223 410 c 2,37,-1
 223 300 l 1,38,-1
 534 300 l 1,30,-1
EndSplineSet
EndChar

StartChar: E.ss01
Encoding: 65566 -1 737
Width: 624
Flags: W
LayerCount: 2
Fore
SplineSet
235.5 275.5 m 128,-1,1
 197 253 197 253 197 214 c 0,2,3
 197 174 197 174 239 148 c 128,-1,4
 281 122 281 122 346 122 c 0,5,6
 394 122 394 122 454.5 138.5 c 128,-1,7
 515 155 515 155 555 177 c 1,8,-1
 615 57 l 1,9,10
 563 26 563 26 486 7.5 c 128,-1,11
 409 -11 409 -11 332 -11 c 0,12,13
 243 -11 243 -11 175.5 14 c 128,-1,14
 108 39 108 39 71 84.5 c 128,-1,15
 34 130 34 130 34 190 c 0,16,17
 34 255 34 255 76.5 303 c 128,-1,18
 119 351 119 351 193 371 c 1,19,20
 138 389 138 389 105 431.5 c 128,-1,21
 72 474 72 474 72 528 c 0,22,23
 72 584 72 584 105.5 626 c 128,-1,24
 139 668 139 668 201 690.5 c 128,-1,25
 263 713 263 713 346 713 c 0,26,27
 412 713 412 713 478 699 c 128,-1,28
 544 685 544 685 586 664 c 1,29,-1
 535 543 l 1,30,31
 497 560 497 560 449.5 570 c 128,-1,32
 402 580 402 580 359 580 c 0,33,34
 296 580 296 580 259 557.5 c 128,-1,35
 222 535 222 535 222 498 c 0,36,37
 222 463 222 463 255 444 c 128,-1,38
 288 425 288 425 338 425 c 2,39,-1
 501 425 l 1,40,-1
 501 298 l 1,41,-1
 338 298 l 2,42,0
 274 298 274 298 235.5 275.5 c 128,-1,1
EndSplineSet
EndChar

StartChar: uni1E1C.ss01
Encoding: 65570 -1 741
Width: 624
Flags: W
LayerCount: 2
Fore
SplineSet
209 798 m 128,-1,1
 166 840 166 840 164 910 c 1,2,-1
 262 910 l 1,3,4
 263 883 263 883 279.5 866.5 c 128,-1,5
 296 850 296 850 320 850 c 256,6,7
 344 850 344 850 360 866.5 c 128,-1,8
 376 883 376 883 378 910 c 1,9,-1
 476 910 l 1,10,11
 473 840 473 840 430 798 c 128,-1,12
 387 756 387 756 320 756 c 0,13,0
 252 756 252 756 209 798 c 128,-1,1
434 -84.5 m 128,-1,15
 454 -106 454 -106 454 -135 c 0,16,17
 454 -181 454 -181 419 -205 c 128,-1,18
 384 -229 384 -229 331 -229 c 0,19,20
 280 -229 280 -229 226 -208 c 1,21,-1
 252 -133 l 1,22,23
 279 -143 279 -143 306 -143 c 0,24,25
 324 -143 324 -143 335.5 -136.5 c 128,-1,26
 347 -130 347 -130 347 -121 c 0,27,28
 347 -109 347 -109 333 -102.5 c 128,-1,29
 319 -96 319 -96 295 -96 c 2,30,-1
 268 -96 l 1,31,-1
 296 -10 l 1,32,33
 176 -2 176 -2 105 51.5 c 128,-1,34
 34 105 34 105 34 190 c 0,35,36
 34 255 34 255 76.5 303 c 128,-1,37
 119 351 119 351 193 371 c 1,38,39
 138 389 138 389 105 431.5 c 128,-1,40
 72 474 72 474 72 528 c 0,41,42
 72 584 72 584 105.5 626 c 128,-1,43
 139 668 139 668 201 690.5 c 128,-1,44
 263 713 263 713 346 713 c 0,45,46
 412 713 412 713 478 699 c 128,-1,47
 544 685 544 685 586 664 c 1,48,-1
 535 543 l 1,49,50
 497 560 497 560 449.5 570 c 128,-1,51
 402 580 402 580 359 580 c 0,52,53
 296 580 296 580 259 557.5 c 128,-1,54
 222 535 222 535 222 498 c 0,55,56
 222 463 222 463 255 444 c 128,-1,57
 288 425 288 425 338 425 c 2,58,-1
 501 425 l 1,59,-1
 501 298 l 1,60,-1
 338 298 l 2,61,62
 274 298 274 298 235.5 275.5 c 128,-1,63
 197 253 197 253 197 214 c 0,64,65
 197 174 197 174 239 148 c 128,-1,66
 281 122 281 122 346 122 c 0,67,68
 394 122 394 122 454.5 138.5 c 128,-1,69
 515 155 515 155 555 177 c 1,70,-1
 615 57 l 1,71,72
 573 32 573 32 513 14.5 c 128,-1,73
 453 -3 453 -3 389 -8 c 1,74,-1
 372 -54 l 1,75,14
 414 -63 414 -63 434 -84.5 c 128,-1,15
EndSplineSet
EndChar

StartChar: Eogonek.ss01
Encoding: 65587 -1 758
Width: 624
Flags: W
LayerCount: 2
Fore
SplineSet
571 -119 m 1,1,-1
 599 -207 l 1,2,3
 551 -228 551 -228 508 -228 c 0,4,5
 458 -228 458 -228 427.5 -200.5 c 128,-1,6
 397 -173 397 -173 397 -121 c 0,7,8
 397 -60 397 -60 450 0 c 1,9,10
 389 -11 389 -11 332 -11 c 0,11,12
 243 -11 243 -11 175.5 14 c 128,-1,13
 108 39 108 39 71 84.5 c 128,-1,14
 34 130 34 130 34 190 c 0,15,16
 34 255 34 255 76.5 303 c 128,-1,17
 119 351 119 351 193 371 c 1,18,19
 138 389 138 389 105 431.5 c 128,-1,20
 72 474 72 474 72 528 c 0,21,22
 72 584 72 584 105.5 626 c 128,-1,23
 139 668 139 668 201 690.5 c 128,-1,24
 263 713 263 713 346 713 c 0,25,26
 412 713 412 713 478 699 c 128,-1,27
 544 685 544 685 586 664 c 1,28,-1
 535 543 l 1,29,30
 497 560 497 560 449.5 570 c 128,-1,31
 402 580 402 580 359 580 c 0,32,33
 296 580 296 580 259 557.5 c 128,-1,34
 222 535 222 535 222 498 c 0,35,36
 222 463 222 463 255 444 c 128,-1,37
 288 425 288 425 338 425 c 2,38,-1
 501 425 l 1,39,-1
 501 298 l 1,40,-1
 338 298 l 2,41,42
 274 298 274 298 235.5 275.5 c 128,-1,43
 197 253 197 253 197 214 c 0,44,45
 197 174 197 174 239 148 c 128,-1,46
 281 122 281 122 346 122 c 0,47,48
 394 122 394 122 454.5 138.5 c 128,-1,49
 515 155 515 155 555 177 c 1,50,-1
 615 57 l 1,51,52
 601 49 601 49 594 46 c 0,53,54
 559 11 559 11 538 -28 c 128,-1,55
 517 -67 517 -67 517 -96 c 0,56,57
 517 -127 517 -127 541 -127 c 0,58,0
 557 -127 557 -127 571 -119 c 1,1,-1
EndSplineSet
EndChar

StartChar: F.ss01
Encoding: 65589 -1 760
Width: 549
Flags: W
LayerCount: 2
Fore
SplineSet
252 541 m 128,-1,1
 223 513 223 513 223 466 c 2,2,-1
 223 387 l 1,3,-1
 489 387 l 1,4,-1
 489 256 l 1,5,-1
 223 256 l 1,6,-1
 223 0 l 1,7,-1
 64 0 l 1,8,-1
 64 469 l 2,9,10
 64 541 64 541 95 595 c 128,-1,11
 126 649 126 649 182.5 678 c 128,-1,12
 239 707 239 707 314 707 c 0,13,14
 378 707 378 707 441.5 694.5 c 128,-1,15
 505 682 505 682 550 662 c 1,16,-1
 513 526 l 1,17,18
 469 545 469 545 418.5 557 c 128,-1,19
 368 569 368 569 328 569 c 0,20,0
 281 569 281 569 252 541 c 128,-1,1
EndSplineSet
EndChar

StartChar: G.ss01
Encoding: 65590 -1 761
Width: 746
Flags: W
LayerCount: 2
Fore
SplineSet
547 361 m 1,0,-1
 684 361 l 1,1,-1
 684 0 l 1,2,-1
 567 0 l 1,3,-1
 567 54 l 1,4,5
 526 23 526 23 478.5 6 c 128,-1,6
 431 -11 431 -11 383 -11 c 0,7,8
 283 -11 283 -11 202 36.5 c 128,-1,9
 121 84 121 84 74 167 c 128,-1,10
 27 250 27 250 27 351 c 256,11,12
 27 452 27 452 77 534.5 c 128,-1,13
 127 617 127 617 214 664 c 128,-1,14
 301 711 301 711 407 711 c 0,15,16
 485 711 485 711 561 683 c 128,-1,17
 637 655 637 655 691 607 c 1,18,-1
 601 494 l 1,19,20
 562 531 562 531 511 552 c 128,-1,21
 460 573 460 573 409 573 c 0,22,23
 348 573 348 573 297.5 543.5 c 128,-1,24
 247 514 247 514 218 463.5 c 128,-1,25
 189 413 189 413 189 351 c 0,26,27
 189 288 189 288 217 237 c 128,-1,28
 245 186 245 186 293.5 156.5 c 128,-1,29
 342 127 342 127 401 127 c 0,30,31
 443 127 443 127 481.5 145 c 128,-1,32
 520 163 520 163 547 194 c 1,33,-1
 547 361 l 1,0,-1
EndSplineSet
EndChar

StartChar: I.ss01
Encoding: 65597 -1 768
Width: 498
Flags: W
LayerCount: 2
Fore
SplineSet
451 569 m 1,0,-1
 328 569 l 1,1,-1
 328 132 l 1,2,-1
 451 132 l 1,3,-1
 451 0 l 1,4,-1
 47 0 l 1,5,-1
 47 132 l 1,6,-1
 170 132 l 1,7,-1
 170 569 l 1,8,-1
 47 569 l 1,9,-1
 47 700 l 1,10,-1
 451 700 l 1,11,-1
 451 569 l 1,0,-1
EndSplineSet
EndChar

StartChar: Iogonek.ss01
Encoding: 65613 -1 784
Width: 498
Flags: W
LayerCount: 2
Fore
SplineSet
328 569 m 1,0,-1
 328 132 l 1,1,-1
 451 132 l 1,2,-1
 451 0 l 1,3,-1
 304 0 l 1,4,5
 262 -30 262 -30 242.5 -53.5 c 128,-1,6
 223 -77 223 -77 223 -100 c 0,7,8
 223 -127 223 -127 247 -127 c 0,9,10
 264 -127 264 -127 277 -119 c 1,11,-1
 306 -207 l 1,12,13
 258 -228 258 -228 213 -228 c 0,14,15
 162 -228 162 -228 132.5 -201 c 128,-1,16
 103 -174 103 -174 103 -127 c 0,17,18
 103 -59 103 -59 165 0 c 1,19,-1
 47 0 l 1,20,-1
 47 132 l 1,21,-1
 170 132 l 1,22,-1
 170 569 l 1,23,-1
 47 569 l 1,24,-1
 47 700 l 1,25,-1
 451 700 l 1,26,-1
 451 569 l 1,27,-1
 328 569 l 1,0,-1
EndSplineSet
EndChar

StartChar: J.ss01
Encoding: 65615 -1 786
Width: 524
Flags: W
LayerCount: 2
Fore
SplineSet
397.5 -46 m 128,-1,1
 335 -107 335 -107 225 -107 c 0,2,3
 89 -107 89 -107 -4 2 c 1,4,-1
 69 114 l 1,5,6
 105 76 105 76 144.5 56 c 128,-1,7
 184 36 184 36 217 36 c 0,8,9
 257 36 257 36 279 60 c 128,-1,10
 301 84 301 84 301 128 c 2,11,-1
 301 566 l 1,12,-1
 60 566 l 1,13,-1
 60 700 l 1,14,-1
 460 700 l 1,15,-1
 460 124 l 2,16,0
 460 15 460 15 397.5 -46 c 128,-1,1
EndSplineSet
EndChar

StartChar: M.ss01
Encoding: 65620 -1 791
Width: 1183
Flags: W
LayerCount: 2
Fore
SplineSet
1009 679 m 128,-1,1
 1061 647 1061 647 1090 588.5 c 128,-1,2
 1119 530 1119 530 1119 454 c 2,3,-1
 1119 0 l 1,4,-1
 959 0 l 1,5,-1
 959 416 l 2,6,7
 959 482 959 482 923.5 522 c 128,-1,8
 888 562 888 562 829 562 c 0,9,10
 785 562 785 562 750.5 539 c 128,-1,11
 716 516 716 516 696.5 476.5 c 128,-1,12
 677 437 677 437 677 388 c 2,13,-1
 677 0 l 1,14,-1
 517 0 l 1,15,-1
 517 416 l 2,16,17
 517 481 517 481 481 521.5 c 128,-1,18
 445 562 445 562 387 562 c 0,19,20
 343 562 343 562 308.5 539 c 128,-1,21
 274 516 274 516 254.5 476.5 c 128,-1,22
 235 437 235 437 235 388 c 2,23,-1
 235 0 l 1,24,-1
 77 0 l 1,25,-1
 77 705 l 1,26,-1
 235 705 l 1,27,-1
 235 599 l 1,28,29
 270 652 270 652 325 681.5 c 128,-1,30
 380 711 380 711 449 711 c 0,31,32
 522 711 522 711 577 672 c 128,-1,33
 632 633 632 633 658 565 c 1,34,35
 691 634 691 634 751 672.5 c 128,-1,36
 811 711 811 711 890 711 c 0,37,0
 957 711 957 711 1009 679 c 128,-1,1
EndSplineSet
EndChar

StartChar: N.ss01
Encoding: 65622 -1 793
Width: 766
Flags: W
LayerCount: 2
Fore
SplineSet
586.5 679 m 128,-1,1
 641 647 641 647 671.5 588.5 c 128,-1,2
 702 530 702 530 702 454 c 2,3,-1
 702 0 l 1,4,-1
 542 0 l 1,5,-1
 542 416 l 2,6,7
 542 481 542 481 503.5 521.5 c 128,-1,8
 465 562 465 562 402 562 c 0,9,10
 354 562 354 562 316 539 c 128,-1,11
 278 516 278 516 256.5 476.5 c 128,-1,12
 235 437 235 437 235 388 c 2,13,-1
 235 0 l 1,14,-1
 77 0 l 1,15,-1
 77 700 l 1,16,-1
 235 700 l 1,17,-1
 235 596 l 1,18,19
 272 651 272 651 330 681 c 128,-1,20
 388 711 388 711 461 711 c 0,21,0
 532 711 532 711 586.5 679 c 128,-1,1
EndSplineSet
EndChar

StartChar: Eng.ss01
Encoding: 65629 -1 800
Width: 767
Flags: W
LayerCount: 2
Fore
SplineSet
586.5 668 m 128,-1,1
 641 636 641 636 671.5 578 c 128,-1,2
 702 520 702 520 702 444 c 2,3,-1
 702 0 l 2,4,5
 700 -99 700 -99 636.5 -155.5 c 128,-1,6
 573 -212 573 -212 468 -212 c 0,7,8
 358 -212 358 -212 282 -148 c 1,9,-1
 343 -26 l 1,10,11
 372 -47 372 -47 403 -58 c 128,-1,12
 434 -69 434 -69 461 -69 c 0,13,14
 499 -69 499 -69 520.5 -46.5 c 128,-1,15
 542 -24 542 -24 542 17 c 2,16,-1
 542 406 l 2,17,18
 542 471 542 471 503.5 511.5 c 128,-1,19
 465 552 465 552 402 552 c 0,20,21
 353 552 353 552 315 529 c 128,-1,22
 277 506 277 506 256 466 c 128,-1,23
 235 426 235 426 235 377 c 2,24,-1
 235 0 l 1,25,-1
 77 0 l 1,26,-1
 77 700 l 1,27,-1
 235 700 l 1,28,-1
 235 585 l 1,29,30
 271 640 271 640 329 669.5 c 128,-1,31
 387 699 387 699 461 700 c 0,32,0
 532 700 532 700 586.5 668 c 128,-1,1
EndSplineSet
EndChar

StartChar: Q.ss01
Encoding: 65633 -1 804
Width: 806
Flags: W
LayerCount: 2
Fore
SplineSet
737.5 181.5 m 128,-1,1
 696 104 696 104 623 54 c 128,-1,2
 550 4 550 4 457 -8 c 1,3,-1
 457 -122 l 1,4,-1
 349 -122 l 1,5,-1
 349 -8 l 1,6,7
 256 4 256 4 183 53.5 c 128,-1,8
 110 103 110 103 68.5 180.5 c 128,-1,9
 27 258 27 258 27 351 c 0,10,11
 27 452 27 452 76.5 534.5 c 128,-1,12
 126 617 126 617 211.5 664 c 128,-1,13
 297 711 297 711 403 711 c 0,14,15
 508 711 508 711 594 664 c 128,-1,16
 680 617 680 617 729.5 534.5 c 128,-1,17
 779 452 779 452 779 351 c 0,18,0
 779 259 779 259 737.5 181.5 c 128,-1,1
572 212 m 128,-1,20
 617 272 617 272 617 351 c 0,21,22
 617 412 617 412 588.5 463 c 128,-1,23
 560 514 560 514 511.5 543.5 c 128,-1,24
 463 573 463 573 405 573 c 256,25,26
 347 573 347 573 297 543.5 c 128,-1,27
 247 514 247 514 218 463 c 128,-1,28
 189 412 189 412 189 351 c 0,29,30
 189 273 189 273 234.5 213.5 c 128,-1,31
 280 154 280 154 349 135 c 1,32,-1
 349 286 l 1,33,-1
 457 286 l 1,34,-1
 457 134 l 1,35,19
 527 152 527 152 572 212 c 128,-1,20
EndSplineSet
EndChar

StartChar: uni018F.ss01
Encoding: 65634 -1 805
Width: 769
Flags: W
LayerCount: 2
Fore
SplineSet
560.5 664 m 128,-1,1
 643 617 643 617 690.5 534.5 c 128,-1,2
 738 452 738 452 738 351 c 256,3,4
 738 250 738 250 690.5 167 c 128,-1,5
 643 84 643 84 560 36.5 c 128,-1,6
 477 -11 477 -11 376 -11 c 0,7,8
 280 -11 280 -11 207.5 26.5 c 128,-1,9
 135 64 135 64 89.5 126 c 128,-1,10
 44 188 44 188 25 263 c 1,11,-1
 549 470 l 1,12,13
 523 518 523 518 477.5 545.5 c 128,-1,14
 432 573 432 573 378 573 c 256,15,16
 324 573 324 573 277.5 547.5 c 128,-1,17
 231 522 231 522 201 478 c 1,18,-1
 90 590 l 1,19,20
 201 711 201 711 376 711 c 0,21,0
 478 711 478 711 560.5 664 c 128,-1,1
485 157 m 128,-1,23
 531 187 531 187 555.5 237.5 c 128,-1,24
 580 288 580 288 580 348 c 2,25,-1
 580 360 l 1,26,-1
 209 215 l 1,27,28
 234 177 234 177 277 152 c 128,-1,29
 320 127 320 127 378 127 c 0,30,22
 439 127 439 127 485 157 c 128,-1,23
EndSplineSet
EndChar

StartChar: T.ss01
Encoding: 65635 -1 806
Width: 674
Flags: W
LayerCount: 2
Fore
SplineSet
599 506 m 1,0,1
 513 551 513 551 413 564 c 1,2,-1
 413 0 l 1,3,-1
 254 0 l 1,4,-1
 254 564 l 1,5,6
 156 551 156 551 68 506 c 1,7,-1
 21 633 l 1,8,9
 89 671 89 671 169 691 c 128,-1,10
 249 711 249 711 333 711 c 256,11,12
 417 711 417 711 497 690.5 c 128,-1,13
 577 670 577 670 646 632 c 1,14,-1
 599 506 l 1,0,1
EndSplineSet
EndChar

StartChar: Tbar.ss01
Encoding: 65636 -1 807
Width: 674
Flags: W
LayerCount: 2
Fore
SplineSet
413 564 m 1,1,-1
 413 361 l 1,2,-1
 548 361 l 1,3,-1
 548 274 l 1,4,-1
 413 274 l 1,5,-1
 413 0 l 1,6,-1
 254 0 l 1,7,-1
 254 274 l 1,8,-1
 118 274 l 1,9,-1
 118 361 l 1,10,-1
 254 361 l 1,11,-1
 254 564 l 1,12,13
 156 551 156 551 68 506 c 1,14,-1
 21 633 l 1,15,16
 89 671 89 671 169 691 c 128,-1,17
 249 711 249 711 333 711 c 256,18,19
 417 711 417 711 497 690.5 c 128,-1,20
 577 670 577 670 646 632 c 1,21,-1
 599 506 l 1,22,0
 513 551 513 551 413 564 c 1,1,-1
EndSplineSet
EndChar

StartChar: uni0162.ss01
Encoding: 65638 -1 809
Width: 674
Flags: W
LayerCount: 2
Fore
SplineSet
389 0 m 1,0,-1
 369 -54 l 1,1,2
 411 -63 411 -63 431 -84.5 c 128,-1,3
 451 -106 451 -106 451 -135 c 0,4,5
 451 -181 451 -181 416 -205 c 128,-1,6
 381 -229 381 -229 328 -229 c 0,7,8
 277 -229 277 -229 223 -208 c 1,9,-1
 249 -133 l 1,10,11
 276 -143 276 -143 303 -143 c 0,12,13
 321 -143 321 -143 332.5 -136.5 c 128,-1,14
 344 -130 344 -130 344 -121 c 0,15,16
 344 -109 344 -109 330 -102.5 c 128,-1,17
 316 -96 316 -96 292 -96 c 2,18,-1
 265 -96 l 1,19,-1
 296 0 l 1,20,-1
 254 0 l 1,21,-1
 254 564 l 1,22,23
 156 551 156 551 68 506 c 1,24,-1
 21 633 l 1,25,26
 89 671 89 671 169 691 c 128,-1,27
 249 711 249 711 333 711 c 256,28,29
 417 711 417 711 497 690.5 c 128,-1,30
 577 670 577 670 646 632 c 1,31,-1
 599 506 l 1,32,33
 513 551 513 551 413 564 c 1,34,-1
 413 0 l 1,35,-1
 389 0 l 1,0,-1
EndSplineSet
EndChar

StartChar: U.ss01
Encoding: 65642 -1 813
Width: 766
Flags: W
LayerCount: 2
Fore
SplineSet
689 700 m 1,0,-1
 689 0 l 1,1,-1
 531 0 l 1,2,-1
 531 106 l 1,3,4
 494 50 494 50 436 19.5 c 128,-1,5
 378 -11 378 -11 305 -11 c 0,6,7
 234 -11 234 -11 179.5 22 c 128,-1,8
 125 55 125 55 94.5 114.5 c 128,-1,9
 64 174 64 174 64 252 c 2,10,-1
 64 700 l 1,11,-1
 224 700 l 1,12,-1
 224 290 l 2,13,14
 224 222 224 222 263 179.5 c 128,-1,15
 302 137 302 137 364 137 c 0,16,17
 413 137 413 137 451 161 c 128,-1,18
 489 185 489 185 510 226.5 c 128,-1,19
 531 268 531 268 531 319 c 2,20,-1
 531 700 l 1,21,-1
 689 700 l 1,0,-1
EndSplineSet
EndChar

StartChar: Udieresis.alt
Encoding: 65647 -1 818
Width: 753
Flags: W
LayerCount: 2
Fore
SplineSet
419.5 686.5 m 128,-1,1
 437 668 437 668 437 641 c 256,2,3
 437 614 437 614 419.5 596 c 128,-1,4
 402 578 402 578 375 578 c 256,5,6
 348 578 348 578 330.5 596 c 128,-1,7
 313 614 313 614 313 641 c 0,8,9
 313 669 313 669 330.5 687 c 128,-1,10
 348 705 348 705 375 705 c 256,11,0
 402 705 402 705 419.5 686.5 c 128,-1,1
265.5 170.5 m 128,-1,13
 308 127 308 127 379 127 c 0,14,15
 448 127 448 127 489 170 c 128,-1,16
 530 213 530 213 530 289 c 2,17,-1
 530 700 l 1,18,-1
 688 700 l 1,19,-1
 688 289 l 2,20,21
 688 197 688 197 650.5 129.5 c 128,-1,22
 613 62 613 62 543 25.5 c 128,-1,23
 473 -11 473 -11 378 -11 c 256,24,25
 283 -11 283 -11 212 25.5 c 128,-1,26
 141 62 141 62 103 129.5 c 128,-1,27
 65 197 65 197 65 289 c 2,28,-1
 65 700 l 1,29,-1
 223 700 l 1,30,-1
 223 289 l 2,31,12
 223 214 223 214 265.5 170.5 c 128,-1,13
419.5 508.5 m 128,-1,33
 437 491 437 491 437 463 c 0,34,35
 437 436 437 436 419.5 418 c 128,-1,36
 402 400 402 400 375 400 c 256,37,38
 348 400 348 400 330.5 418 c 128,-1,39
 313 436 313 436 313 463 c 0,40,41
 313 491 313 491 330.5 508.5 c 128,-1,42
 348 526 348 526 375 526 c 256,43,32
 402 526 402 526 419.5 508.5 c 128,-1,33
EndSplineSet
EndChar

StartChar: Udieresis.ss01.alt
Encoding: 65649 -1 820
Width: 766
Flags: W
LayerCount: 2
Fore
SplineSet
333 596 m 128,-1,1
 315 614 315 614 315 641 c 0,2,3
 315 669 315 669 332.5 687 c 128,-1,4
 350 705 350 705 378 705 c 0,5,6
 404 705 404 705 421.5 686.5 c 128,-1,7
 439 668 439 668 439 641 c 0,8,9
 439 615 439 615 421.5 596.5 c 128,-1,10
 404 578 404 578 378 578 c 0,11,0
 351 578 351 578 333 596 c 128,-1,1
689 700 m 1,12,-1
 689 0 l 1,13,-1
 531 0 l 1,14,-1
 531 106 l 1,15,16
 494 50 494 50 436 19.5 c 128,-1,17
 378 -11 378 -11 305 -11 c 0,18,19
 234 -11 234 -11 179.5 22 c 128,-1,20
 125 55 125 55 94.5 114.5 c 128,-1,21
 64 174 64 174 64 252 c 2,22,-1
 64 700 l 1,23,-1
 224 700 l 1,24,-1
 224 290 l 2,25,26
 224 222 224 222 263 179.5 c 128,-1,27
 302 137 302 137 364 137 c 0,28,29
 413 137 413 137 451 161 c 128,-1,30
 489 185 489 185 510 226.5 c 128,-1,31
 531 268 531 268 531 319 c 2,32,-1
 531 700 l 1,33,-1
 689 700 l 1,12,-1
332.5 418 m 128,-1,35
 315 436 315 436 315 463 c 0,36,37
 315 491 315 491 332.5 508.5 c 128,-1,38
 350 526 350 526 377 526 c 256,39,40
 404 526 404 526 421.5 508.5 c 128,-1,41
 439 491 439 491 439 463 c 0,42,43
 439 436 439 436 421.5 418 c 128,-1,44
 404 400 404 400 377 400 c 256,45,34
 350 400 350 400 332.5 418 c 128,-1,35
EndSplineSet
EndChar

StartChar: Uhorn.ss01
Encoding: 65653 -1 824
Width: 798
Flags: W
LayerCount: 2
Fore
SplineSet
810 752 m 0,1,2
 810 700 810 700 779 666.5 c 128,-1,3
 748 633 748 633 689 621 c 1,4,-1
 689 0 l 1,5,-1
 531 0 l 1,6,-1
 531 106 l 1,7,8
 494 50 494 50 436 19.5 c 128,-1,9
 378 -11 378 -11 305 -11 c 0,10,11
 234 -11 234 -11 179.5 22 c 128,-1,12
 125 55 125 55 94.5 114.5 c 128,-1,13
 64 174 64 174 64 252 c 2,14,-1
 64 700 l 1,15,-1
 224 700 l 1,16,-1
 224 290 l 2,17,18
 224 222 224 222 263 179.5 c 128,-1,19
 302 137 302 137 364 137 c 0,20,21
 413 137 413 137 451 161 c 128,-1,22
 489 185 489 185 510 226.5 c 128,-1,23
 531 268 531 268 531 319 c 2,24,-1
 531 700 l 1,25,-1
 632 700 l 1,26,-1
 632 701 l 1,27,28
 663 701 663 701 678.5 715 c 128,-1,29
 694 729 694 729 694 752 c 0,30,31
 694 777 694 777 678 804 c 1,32,-1
 789 846 l 1,33,0
 810 794 810 794 810 752 c 0,1,2
EndSplineSet
EndChar

